<?xml version="1.0" encoding="UTF-8"?>
<!DOCTYPE svg PUBLIC "-//W3C//DTD SVG 1.1//EN" "http://www.w3.org/Graphics/SVG/1.1/DTD/svg11.dtd">
<!-- Creator: CorelDRAW 2018 (64-Bit) -->
<svg xmlns="http://www.w3.org/2000/svg" xml:space="preserve" width="297mm" height="210mm" version="1.1" style="shape-rendering:geometricPrecision; text-rendering:geometricPrecision; image-rendering:optimizeQuality; fill-rule:evenodd; clip-rule:evenodd"
viewBox="0 0 29700 21000"
 xmlns:xlink="http://www.w3.org/1999/xlink">
 <defs>
  <style type="text/css">
   <![CDATA[
    .fil0 {fill:#FEFEFE}
   ]]>
  </style>
 </defs>
 <g id="Слой_x0020_1">
  <metadata id="CorelCorpID_0Corel-Layer"/>
  <path class="fil0" d="M24576.85 13363.84c8.58,-59.71 -3.09,-79.95 28.82,-111.18 113.92,-2.75 301.62,72.06 325.29,148.24 18.19,57.65 19.56,199.02 -20.59,226.47 -36.03,28.14 -123.19,-8.24 -156.47,-24.71 -104.99,-51.46 -201.41,-67.59 -177.05,-238.82zm-547.65 -304.7c10.98,-2.75 21.96,-5.49 32.94,-8.24 43.92,-0.34 261.81,72.06 275.88,90.59 39.12,51.47 27.11,221.67 -4.12,267.65 -127.65,30.2 -274.17,-24.36 -333.53,-102.94 -10.97,-54.22 -12.34,-226.13 28.83,-247.06zm-588.82 -123.53c10.64,-17.84 22.3,-15.78 41.18,-24.71 114.95,0 218.58,36.72 288.24,86.47 16.81,71.72 15.78,171.23 8.24,247.06 -99.51,66.57 -307.45,-4.46 -350,-70 -18.53,-28.82 -1.72,-86.13 -8.24,-127.65 -6.19,-40.83 -2.41,-87.84 20.58,-111.17zm-588.82 -90.59c25.39,-14.75 59.36,-16.13 90.59,-28.82 71.37,8.24 142.75,16.47 214.12,24.71 66.57,33.63 44.95,234.71 24.71,304.71 -63.48,43.58 -270.39,-0.69 -317.06,-45.29 -35.01,-21.29 -24.37,-208.3 -12.36,-255.31zm-584.71 98.82c7.89,-113.92 -5.49,-144.8 78.24,-189.41 261.81,-5.49 339.02,63.48 255.29,325.29 -83.38,57.3 -308.48,2.4 -337.65,-65.88 -9.95,-23.67 2.4,-47.35 4.12,-70zm-535.29 -189.41c59.02,-4.12 118.04,-8.24 177.06,-12.35 44.61,0.34 87.16,5.83 115.29,20.59 22.65,84.07 28.14,233.33 -16.47,292.35 -98.14,18.19 -222.35,1.37 -300.59,-20.59 -39.8,-53.87 -42.89,-251.18 24.71,-280zm-601.18 37.06c16.81,-24.36 44.95,-28.14 74.12,-41.18 72.75,0 145.49,0 218.24,0 31.57,30.88 36.72,76.86 37.06,140 0.69,154.41 -25.05,185.98 -164.71,185.29 -30.2,2.75 -60.39,5.49 -90.59,8.24 -108.43,-16.81 -135.54,-201.76 -74.12,-292.35zm-1169.41 135.88c40.83,-70.34 210.34,-40.15 280,-82.35 6.86,1.37 13.73,2.75 20.59,4.12 50.78,70 49.75,213.43 20.59,308.82 -73.77,44.95 -224.41,44.95 -312.94,16.47 -24.37,-37.06 -30.89,-206.91 -8.24,-247.06zm-527.06 53.53c66.57,-14.07 174.31,-8.92 226.47,-41.18 9.61,2.75 19.22,5.49 28.82,8.24 26.08,38.77 71.03,262.84 8.24,304.71 -43.92,5.49 -87.84,10.98 -131.76,16.47 -41.18,6.86 -82.35,13.73 -123.53,20.59 -117.02,-33.63 -57.31,-246.03 -8.24,-308.83zm-366.47 61.77c111.52,0 60.39,125.93 74.12,222.35 18.53,132.45 -207.25,164.36 -325.29,119.41 -18.19,-29.85 -4.46,-53.53 -12.35,-102.94 -32.61,-201.08 126.95,-180.83 263.52,-238.82zm-757.65 160.58c60.39,-8.24 120.78,-16.47 181.18,-24.71 17.84,4.12 35.69,8.24 53.53,12.35 24.71,33.97 40.49,177.4 20.59,247.06 -23.33,52.5 -275.54,137.25 -321.18,74.12 -25.39,-109.45 -25.74,-274.16 65.88,-308.82zm-601.18 140c65.88,-12.7 159.22,-7.21 210,-37.06 8.24,0 16.47,0 24.71,0 13.73,16.47 27.45,32.94 41.18,49.41 30.2,74.8 -5.15,219.61 -37.06,263.53 -47.01,11.67 -227.16,68.63 -251.18,57.65 -83.04,-38.43 -50.44,-284.11 12.35,-333.53zm-597.05 152.36c74.12,-15.1 148.24,-30.2 222.35,-45.29 38.77,2.75 48.04,15.78 70,32.94 16.81,70.69 17.5,198.68 -12.35,263.53 -41.86,17.16 -246.72,80.29 -275.88,74.12 -79.61,-40.16 -26.43,-271.43 -4.12,-325.3zm-6073.53 3372.35c-36.37,54.22 -224.41,14.41 -267.65,0 -9.95,-13.04 -8.24,-8.92 -8.24,-24.71 47.35,-25.39 112.21,-1.03 164.71,-24.71 46.67,-0.34 75.15,6.86 107.06,16.47 5.83,11.68 9.95,18.2 4.12,32.95zm255.29 4.12c0.69,-25.74 4.8,-33.28 12.35,-49.41 60.39,-4.12 120.78,-8.24 181.18,-12.35 60.05,-1.37 114.26,-1.72 148.24,20.59 55.93,203.13 -291.33,152.69 -341.77,41.17zm914.12 61.76c-22.3,39.8 -275.54,53.87 -321.18,20.59 -19.9,-14.41 -21.27,-60.05 -20.59,-94.71 0.69,-43.58 15.44,-75.83 41.18,-94.71 49.41,-8.24 98.82,-16.47 148.24,-24.71 45.29,1.37 90.59,2.75 135.88,4.12 45.98,18.88 40.14,146.53 16.47,189.42zm551.76 8.24c-51.81,40.49 -229.9,30.54 -292.35,8.24 -30.54,-51.47 -45.98,-254.95 16.47,-284.12 63.14,-29.51 153.04,-4.8 197.65,-49.41 9.61,0 19.22,0 28.82,0 72.4,51.12 160.25,238.82 49.41,325.29zm613.53 -168.83c-5.49,36.03 5.83,69.31 -12.35,90.59 -36.37,61.42 -276.23,62.11 -329.41,24.71 -20.25,-79.61 -11.67,-197.3 12.35,-263.53 55.93,-35.34 163.68,-11.32 230.59,-41.18 99.16,12.7 112.89,95.74 98.82,189.41zm407.65 65.89c-45.29,9.61 -90.59,19.22 -135.88,28.82 -68.28,-65.2 -54.9,-251.86 -4.12,-325.29 53.19,-12.01 157.16,-3.09 201.76,-28.82 49.07,1.03 64.51,16.81 102.94,24.71 21.96,36.72 -3.43,70.34 4.12,119.41 25.39,165.38 -21.27,153.37 -168.82,181.17zm568.23 -86.47c-37.06,6.18 -92.65,21.62 -127.65,12.35 -47.35,-22.3 -68.28,-262.16 -12.35,-300.59 51.47,-35.34 164.36,-8.92 218.24,-37.06 46.67,1.03 86.13,21.96 107.06,49.41 6.52,35.34 -9.95,58.33 -8.24,94.71 6.87,148.23 -42.2,158.19 -177.06,181.18zm436.47 -94.71c-39.46,-25.74 -12.01,-62.11 -20.59,-115.29 -38.09,-234.71 79.95,-178.77 234.71,-234.71 50.78,0 66.57,11.67 98.82,24.71 13.73,51.47 10.29,169.17 12.35,226.47 -29.5,40.83 -253.57,150.29 -325.29,98.82zm177.06 -481.76c-70.69,12.35 -121.47,39.8 -181.18,53.53 -72.75,8.24 -145.49,16.47 -218.24,24.71 -57.65,16.47 -115.29,32.94 -172.94,49.41 -86.47,8.24 -172.94,16.47 -259.41,24.71 -53.87,9.95 -88.53,30.54 -135.88,41.18 -109.8,8.24 -219.61,16.47 -329.41,24.71 -41.18,13.73 -82.35,27.45 -123.53,41.18 -60.05,13.38 -167.79,9.26 -205.88,-16.47 0,-1.37 0,-2.75 0,-4.12 42.55,-9.61 85.1,-19.22 127.65,-28.82 12.35,-17.84 24.71,-35.69 37.06,-53.53 49.41,-13.73 98.82,-27.45 148.24,-41.18 93.68,-58.68 208.63,-86.13 308.82,-144.12 16.47,-13.73 32.94,-27.45 49.41,-41.18 32.94,-10.98 65.88,-21.96 98.82,-32.94 16.47,-15.1 32.94,-30.2 49.41,-45.29 30.2,-9.61 60.39,-19.22 90.59,-28.82 53.53,-30.54 111.18,-87.5 164.71,-119.41 24.71,-8.24 49.41,-16.47 74.12,-24.71 66.91,-41.86 135.2,-85.44 205.88,-131.76 16.47,-19.22 32.94,-38.43 49.41,-57.65 249.8,-150.29 508.53,-364.07 716.47,-560 8.24,1.37 16.47,2.75 24.71,4.12 37.06,64.85 35.34,306.42 20.59,403.53 -18.19,119.07 45.98,394.95 -16.47,490 -87.51,132.77 -335.59,139.63 -522.95,172.92zm411.77 362.35c-39.12,-37.06 -60.05,-262.84 -4.12,-300.59 38.77,-26.08 182.55,-45.98 234.71,-70 12.35,4.12 24.71,8.24 37.06,12.35 40.49,62.45 44.61,145.49 49.41,238.82 -83.39,93.34 -139.32,121.48 -317.06,119.42zm584.7 -140c-70.34,-29.17 -45.29,-204.17 -24.71,-280 61.42,-41.86 179.46,-33.97 238.82,-78.24 10.98,1.37 21.96,2.75 32.94,4.12 77.55,35.69 29.51,98.48 45.29,181.18 2.75,20.59 5.49,41.18 8.24,61.76 -23.32,82.7 -190.77,137.6 -300.58,111.18zm687.65 -152.35c-35.69,10.98 -71.37,21.96 -107.06,32.94 -66.57,-65.54 -44.95,-230.93 -16.47,-312.94 60.39,-37.06 170.54,-29.51 230.59,-65.88 9.61,0 19.22,0 28.82,0 46.67,42.89 49.41,63.48 49.41,148.24 0.01,176.02 -21.27,164.35 -185.29,197.64zm741.18 -185.3c-22.65,15.78 -250.83,79.61 -275.88,65.88 -71.03,-39.12 -33.63,-262.5 -4.12,-317.06 87.84,-19.9 166.08,-17.84 230.59,-53.53 112.2,26.77 81.66,208.98 49.41,304.71zm564.12 -127.65c-43.92,8.24 -87.84,16.47 -131.76,24.71 -34.31,10.98 -79.26,42.55 -119.41,32.94 -83.38,-39.8 -48.04,-264.22 -4.12,-325.29 78.92,-14.07 162.99,-6.18 218.24,-41.18 9.61,0 19.22,0 28.82,0 47,50.1 83.37,255.98 8.23,308.82zm189.41 -691.76c1.37,28.82 2.75,57.65 4.12,86.47 -44.95,172.25 -308.82,150.29 -477.65,205.88 -28.82,15.1 -57.65,30.2 -86.47,45.29 -49.41,5.49 -98.82,10.98 -148.24,16.47 -54.9,17.84 -109.8,35.69 -164.71,53.53 -60.39,8.24 -120.78,16.47 -181.18,24.71 -28.82,15.1 -57.65,30.2 -86.47,45.29 -56.27,6.86 -112.55,13.73 -168.82,20.59 -34.31,15.1 -68.63,30.2 -102.94,45.29 -63.14,8.24 -126.27,16.47 -189.41,24.71 -53.53,10.98 -85.78,45.98 -131.76,57.65 -28.82,1.37 -57.65,2.75 -86.47,4.12 -161.96,31.23 -353.09,130.74 -522.94,74.12 -72.4,-105.34 -37.06,-482.79 -37.06,-683.53 0,-138.97 -28.14,-365.1 16.47,-473.53 29.17,-70.34 111.18,-106.72 152.35,-164.71 61.76,-87.5 141.03,-158.87 201.76,-242.94 40.15,-55.59 135.54,-225.1 193.53,-247.06 28.82,-2.75 57.65,-5.49 86.47,-8.24 38.43,-16.47 76.86,-32.94 115.29,-49.41 64.51,-8.24 129.02,-16.47 193.53,-24.71 54.9,-20.59 109.8,-41.18 164.71,-61.76 56.27,-5.49 112.55,-10.98 168.82,-16.47 27.45,-16.47 54.9,-32.94 82.35,-49.41 65.2,-15.1 121.47,-3.77 177.06,-20.59 34.31,-15.1 68.63,-30.2 102.94,-45.29 74.12,-9.61 148.24,-19.22 222.35,-28.82 45.29,-17.84 90.59,-35.69 135.88,-53.53 76.86,-17.16 158.87,-9.95 218.24,-41.18 199.71,-2.75 156.47,176.37 156.47,362.35 0,278.63 0,557.25 0,835.88 0.01,112.21 8.25,227.51 -8.22,308.83zm415.88 527.06c-26.76,54.9 -99.17,25.05 -156.47,49.41 -29.85,12.7 -57.3,33.28 -94.71,45.29 -30.88,-1.37 -37.06,-8.24 -57.65,-16.47 -26.08,-48.04 -9.61,-152.7 -28.82,-205.88 4.8,-47.35 35.69,-64.51 49.41,-107.06 56.96,-32.94 164.36,-16.13 222.35,-45.29 10.98,2.75 21.96,5.49 32.94,8.24 60.06,28.82 55.6,196.27 32.95,271.76zm584.71 -144.12c-23.68,84.41 -250.83,133.48 -329.41,74.12 -44.26,-210.69 10.98,-277.6 172.94,-325.29 28.82,-4.12 57.65,-8.24 86.47,-12.35 21.62,2.75 46.67,7.21 57.65,20.59 22.64,27.78 26.41,192.49 12.35,242.93zm560 -61.76c-50.44,33.63 -185.64,40.15 -251.18,49.41 -22.99,-14.75 -51.47,-26.42 -61.76,-53.53 -21.27,-56.27 -1.03,-231.96 32.94,-255.29 75.49,-13.73 150.98,-27.45 226.47,-41.18 9.61,1.37 19.22,2.75 28.82,4.12 79.26,37.4 48.38,223.03 24.71,296.47zm564.11 -70c-88.19,22.65 -211.03,30.54 -288.24,4.12 -30.2,-44.61 -38.43,-186.32 -24.71,-255.29 40.83,-24.36 128.68,-60.74 172.94,-70 31.57,-2.75 63.14,-5.49 94.71,-8.24 12.35,0 24.71,0 37.06,0 64.17,61.76 58.68,256.32 8.24,329.41zm20.59 -473.53c-202.45,27.11 -485.54,77.55 -687.65,119.41 -75.49,8.24 -150.98,16.47 -226.47,24.71 -143.43,30.54 -351.37,72.4 -494.12,111.18 -72.75,10.98 -145.49,21.96 -218.24,32.94 -89.22,22.99 -185.98,57.65 -251.18,-28.82 -27.45,-36.37 -12.35,-147.21 -12.35,-205.88 0,-179.8 0,-359.61 0,-539.41 2.75,-271.76 5.49,-543.53 8.24,-815.29 84.75,-155.1 338.33,-143.09 535.29,-189.41 146.52,-34.66 350.34,-80.29 494.12,-115.29 85.1,-6.86 170.2,-13.73 255.29,-20.59 49.41,-16.47 98.82,-32.94 148.24,-49.41 108.43,-6.86 216.86,-13.73 325.29,-20.59 30.2,-13.73 60.39,-27.45 90.59,-41.18 142.75,-10.98 285.49,-21.96 428.24,-32.94 145.83,26.76 115.29,212.75 115.29,382.94 -1.37,413.14 -2.75,826.27 -4.12,1239.41 -35.67,148.56 -333.86,124.88 -506.46,148.22zm564.12 403.53c-88.87,26.42 -245.34,33.63 -312.94,-12.35 -14.41,-57.3 -16.47,-171.23 -4.12,-234.71 90.93,-57.99 175,-31.91 271.76,-74.12 122.85,2.06 73.44,253.58 45.3,321.18zm-4.12 -2318.24c-59.02,47.35 -247.4,12.7 -296.47,-4.12 -14.07,-23.33 -19.22,-51.47 -24.71,-86.47 -41.86,-262.5 130.74,-164.02 284.12,-218.24 8.24,1.37 16.47,2.75 24.71,4.12 59.36,27.11 72.74,265.59 12.35,304.71zm584.71 2264.71c-26.42,25.74 -79.95,7.55 -127.65,16.47 -163.33,30.88 -181.18,-10.64 -193.53,-152.35 -3.43,-38.43 -6.52,-85.44 8.24,-119.41 22.65,-52.16 108.43,-20.93 164.71,-41.18 51.13,-2.06 145.49,-11.32 164.71,20.59 30.53,51.46 21.61,252.2 -16.48,275.88zm580.59 0c-73.77,17.84 -308.14,16.81 -329.41,-41.18 2.75,-72.75 5.49,-145.49 8.24,-218.24 23.68,-20.93 48.38,-28.14 78.24,-45.29 84.75,-0.69 204.17,-12.01 259.41,24.71 21.6,84.07 23.66,225.09 -16.48,280zm572.35 41.17c-109.12,44.26 -256.67,-23.68 -312.94,-65.88 -19.9,-79.61 -9.95,-177.75 12.35,-238.82 19.22,-9.61 38.43,-19.22 57.65,-28.82 75.49,-0.69 177.75,-6.86 230.59,20.59 62.79,29.5 77.89,271.41 12.35,312.93zm580.59 61.77c-45.29,6.52 -102.25,-9.26 -144.12,-16.47 -206.57,-35.34 -196.96,-60.74 -177.06,-284.12 25.39,-17.16 53.19,-19.56 86.47,-32.94 62.79,-1.03 194.22,-4.46 238.82,24.71 59.02,38.77 37.41,276.22 -4.11,308.82zm-37.06 -461.18c-127.65,-23.68 -262.16,-24.71 -370.59,-45.29 -304.36,-57.65 -677.35,-41.18 -1021.18,-41.18 -137.94,0 -569.61,34.66 -634.12,-16.47 -65.54,-52.16 -85.78,-211.37 -65.88,-341.76 1.37,-310.2 2.75,-620.39 4.12,-930.59 0,-121.47 -17.5,-302.3 41.18,-370.59 67.94,-79.61 205.88,-74.12 354.12,-74.12 39.8,-1.37 79.61,-2.75 119.41,-4.12 157.84,0 315.69,0 473.53,0 131.76,2.75 263.53,5.49 395.29,8.24 156.13,24.36 271.76,38.09 424.12,61.76 196.27,30.2 468.38,2.4 555.88,131.76 47.01,69.31 32.94,212.06 32.94,325.29 0,215.49 0,430.98 0,646.47 0,218.92 39.8,547.99 -53.53,675.29 -88.87,15.8 -171.91,-9.25 -255.29,-24.69zm646.47 551.77c-82.35,59.36 -298.87,0.34 -341.76,-61.76 -14.41,-20.93 -12.35,-54.9 -12.35,-90.59 -0.34,-105 -3.77,-145.83 70,-185.29 111.52,1.03 191.81,45.98 275.88,78.24 21.61,71.36 16.81,178.07 8.23,259.4zm580.59 148.23c-82.35,66.57 -317.75,-13.38 -350,-78.24 -1.37,-45.29 -2.75,-90.59 -4.12,-135.88 0,-35.69 -5.83,-88.53 8.24,-111.18 4.12,-5.49 8.24,-10.98 12.35,-16.47 136.91,0 227.16,42.21 321.18,90.59 17.49,66.57 20.92,169.51 12.35,251.18zm564.11 234.71c-104.31,24.71 -161.62,-38.43 -230.59,-65.88 -36.37,-14.41 -70.69,-14.75 -98.82,-32.94 -12.35,-55.59 -36.72,-240.54 12.35,-271.76 17.84,-2.75 35.69,-5.49 53.53,-8.24 64.51,5.83 236.42,77.21 263.53,115.29 25.39,36.03 16.81,91.62 16.47,144.12 -0.34,55.24 6.18,85.09 -16.47,119.41zm-15015.16 -6470.41c291.54,0 527.88,236.34 527.88,527.87 0,291.54 -236.34,527.88 -527.88,527.88 -291.54,0 -527.88,-236.34 -527.88,-527.88 0,-291.53 236.34,-527.87 527.88,-527.87zm1659.61 -463.8c89.38,277.5 -63.12,574.92 -340.62,664.3 -277.5,89.38 -574.91,-63.13 -664.29,-340.62 -89.38,-277.5 63.12,-574.92 340.62,-664.3 277.49,-89.37 574.91,63.13 664.29,340.62zm951.25 1410.14c-233.5,174.55 -564.31,126.76 -738.86,-106.75 -174.55,-233.51 -126.75,-564.31 106.75,-738.86 233.51,-174.55 564.31,-126.75 738.86,106.75 174.55,233.51 126.76,564.31 -106.75,738.86zm-1027.84 1357.96c-240.56,-164.69 -302.06,-493.22 -137.37,-733.78 164.7,-240.56 493.23,-302.07 733.78,-137.37 240.57,164.7 302.07,493.23 137.37,733.79 -164.69,240.56 -493.22,302.05 -733.78,137.36zm-1648.3 -579.35c88.67,-277.72 385.71,-430.98 663.43,-342.3 277.72,88.68 430.97,385.71 342.3,663.43 -88.68,277.73 -385.71,430.98 -663.44,342.3 -277.72,-88.68 -430.97,-385.71 -342.29,-663.43zm-2289.73 -3600.04c889.9,0 1611.31,721.41 1611.31,1611.31 0,889.9 -721.41,1611.31 -1611.31,1611.31 -889.9,0 -1611.31,-721.41 -1611.31,-1611.31 0,-889.9 721.41,-1611.31 1611.31,-1611.31zm5065.86 -1415.7c272.82,847.05 -192.68,1754.89 -1039.72,2027.72 -847.05,272.82 -1754.89,-192.68 -2027.72,-1039.72 -272.82,-847.05 192.68,-1754.89 1039.72,-2027.72 847.05,-272.82 1754.89,192.68 2027.72,1039.72zm2903.64 4304.36c-712.77,532.81 -1722.52,386.92 -2255.33,-325.84 -532.8,-712.78 -386.91,-1722.52 325.85,-2255.33 712.78,-532.8 1722.52,-386.91 2255.33,325.85 532.8,712.77 386.91,1722.51 -325.85,2255.32zm-3137.43 4145.09c-734.3,-502.72 -922.03,-1505.54 -419.31,-2239.84 502.73,-734.29 1505.54,-922.02 2239.83,-419.3 734.3,502.73 922.03,1505.54 419.31,2239.84 -502.72,734.29 -1505.53,922.01 -2239.83,419.3zm-5031.34 -1768.44c270.68,-847.73 1177.35,-1315.53 2025.08,-1044.85 847.73,270.69 1315.53,1177.35 1044.85,2025.08 -270.69,847.74 -1177.35,1315.53 -2025.09,1044.85 -847.73,-270.68 -1315.51,-1177.34 -1044.84,-2025.08zm3701.7 -3086.13c324.57,0 587.69,263.12 587.69,587.69 0,324.57 -263.12,587.69 -587.69,587.69 -324.57,0 -587.69,-263.12 -587.69,-587.69 0,-324.57 263.12,-587.69 587.69,-587.69zm14024.21 5824.55c-31.57,-20.59 -63.14,-41.18 -94.71,-61.76 -48.04,-15.1 -96.08,-30.2 -144.12,-45.29 -138.28,-57.3 -310.54,-125.93 -452.94,-185.29 -49.41,-9.61 -98.82,-19.22 -148.24,-28.82 -28.82,-16.47 -57.65,-32.94 -86.47,-49.41 -149.95,-43.24 -343.48,-42.21 -424.12,-152.35 -43.24,-59.02 -28.82,-198.33 -28.82,-296.47 0,-240.2 0,-480.39 0,-720.59 0,-196.27 -32.6,-517.45 45.29,-634.12 120.44,-24.36 313.63,58.33 411.76,98.82 54.9,9.61 109.8,19.22 164.71,28.82 86.13,27.11 197.65,84.75 275.88,119.41 38.43,6.86 76.86,13.73 115.29,20.59 27.45,17.84 54.9,35.69 82.35,53.53 41.18,9.61 82.35,19.22 123.53,28.82 44.61,19.22 71.03,51.13 135.88,61.76 5.49,-2.75 10.98,-5.49 16.47,-8.24 30.2,-51.13 33.97,-495.83 0,-543.53 -31.57,-44.61 -210.34,-87.16 -275.88,-111.18 -26.08,-17.84 -52.16,-35.69 -78.24,-53.53 -37.06,-5.49 -74.12,-10.98 -111.18,-16.47 -23.33,-15.1 -46.67,-30.2 -70,-45.29 -45.29,-9.61 -90.59,-19.22 -135.88,-28.82 -27.45,-16.47 -54.9,-32.94 -82.35,-49.41 -150.98,-49.41 -270.39,-60.74 -432.35,-102.94 -26.08,-13.73 -52.16,-27.45 -78.24,-41.18 -70,-10.98 -140,-21.96 -210,-32.94 -52.16,-16.47 -104.31,-32.94 -156.47,-49.41 -85.1,-8.24 -170.2,-16.47 -255.29,-24.71 -30.2,-12.35 -60.39,-24.71 -90.59,-37.06 -123.53,-28.82 -248.77,-3.43 -382.94,-24.71 -107.06,-16.47 -214.12,-32.94 -321.18,-49.41 -122.16,-2.75 -244.31,-5.49 -366.47,-8.24 -112.55,0 -225.1,0 -337.65,0 -115.29,0 -230.59,0 -345.88,0 -164.71,26.42 -335.93,32.6 -490,57.65 -56.27,0 -112.55,0 -168.82,0 -98.82,8.24 -197.65,16.47 -296.47,24.71 -65.88,15.1 -131.76,30.2 -197.65,45.29 -78.24,5.49 -156.47,10.98 -234.71,16.47 -78.92,15.1 -149.95,40.15 -222.35,53.53 -94.71,8.24 -189.41,16.47 -284.12,24.71 -41.18,16.47 -82.35,32.94 -123.53,49.41 -83.73,9.61 -167.45,19.22 -251.18,28.82 -193.53,40.83 -411.08,98.82 -609.41,140 -35.69,4.12 -71.37,8.24 -107.06,12.35 -37.06,15.1 -74.12,30.2 -111.18,45.29 -54.9,5.49 -109.8,10.98 -164.71,16.47 -50.78,19.22 -101.57,38.43 -152.35,57.65 -53.53,4.12 -107.06,8.24 -160.59,12.35 -30.2,15.1 -60.39,30.2 -90.59,45.29 -52.84,16.47 -110.49,6.52 -172.94,20.59 -31.57,16.47 -63.14,32.94 -94.71,49.41 -57.65,6.86 -115.29,13.73 -172.94,20.59 -47.83,8.53 -233.01,73.74 -343.27,91.73 482.64,-915.13 756.26,-1957.58 756.26,-3064.11 0,-3633.02 -2945.14,-6578.16 -6578.16,-6578.16 -3633.02,0 -6578.16,2945.14 -6578.16,6578.16 0,3309.88 2444.66,6048.38 5626.79,6509.42l30.08 12.38c59.02,6.86 118.04,13.73 177.06,20.59 46.67,16.47 93.33,32.94 140,49.41 71.37,5.49 142.75,10.98 214.12,16.47 60.39,17.84 120.78,35.69 181.18,53.53 157.84,9.61 315.69,19.22 473.53,28.82 38.43,12.35 76.86,24.71 115.29,37.06 161.96,4.12 323.92,8.24 485.88,12.35 83.73,-1.37 167.45,-2.75 251.18,-4.12 78.24,-1.37 156.47,-2.75 234.71,-4.12 67.25,1.37 134.51,2.75 201.76,4.12 112.55,-17.84 229.22,-23.68 329.41,-41.18 129.71,-22.65 267.99,-4.12 399.41,-20.59 134.17,-16.47 252.55,-44.26 374.71,-65.88 79.61,-4.12 159.22,-8.24 238.82,-12.35 80.98,-14.41 152.01,-43.24 226.47,-57.65 86.47,-8.24 172.94,-16.47 259.41,-24.71 49.41,-16.47 98.82,-32.94 148.24,-49.41 71.37,-5.49 142.75,-10.98 214.12,-16.47 28.82,-15.1 57.65,-30.2 86.47,-45.29 93.33,-10.98 186.67,-21.96 280,-32.94 49.41,-17.84 98.82,-35.69 148.24,-53.53 46.67,-2.75 93.33,-5.49 140,-8.24 46.67,-19.22 93.33,-38.43 140,-57.65 52.16,-5.49 104.31,-10.98 156.47,-16.47 59.71,-13.38 124.22,-42.55 177.06,-57.65 52.16,-5.49 104.31,-10.98 156.47,-16.47 56.27,-20.59 112.55,-41.18 168.82,-61.76 50.78,-4.12 101.57,-8.24 152.35,-12.35 38.43,-17.84 76.86,-35.69 115.29,-53.53 45.29,-4.12 90.59,-8.24 135.88,-12.35 137.94,-33.63 306.08,-93.68 444.71,-127.65 65.88,-9.61 131.76,-19.22 197.65,-28.82 31.57,-15.1 63.14,-30.2 94.71,-45.29 43.92,-5.49 87.84,-10.98 131.76,-16.47 109.8,-26.08 219.26,-49.41 345.88,-78.24 42.55,-16.47 85.1,-32.94 127.65,-49.41 78.24,-12.35 156.47,-24.71 234.71,-37.06 39.8,-15.1 79.61,-30.2 119.41,-45.29 67.25,-8.24 134.51,-16.47 201.76,-24.71 34.31,-15.1 68.63,-30.2 102.94,-45.29 78.24,-8.24 156.47,-16.47 234.71,-24.71 46.67,-16.47 93.33,-32.94 140,-49.41 72.75,-6.86 145.49,-13.73 218.24,-20.59 56.27,-17.84 112.55,-35.69 168.82,-53.53 76.86,-5.49 153.73,-10.98 230.59,-16.47 45.29,-16.47 90.59,-32.94 135.88,-49.41 82.35,-4.12 164.71,-8.24 247.06,-12.35 99.51,-16.81 196.27,-49.75 288.24,-65.88 170.2,-9.61 340.39,-19.22 510.59,-28.82 94.02,-18.87 217.55,-28.14 325.29,-45.29 118.04,-1.37 236.08,-2.75 354.12,-4.12 105.69,0 211.37,0 317.06,0 148.24,0 296.47,0 444.71,0 127.65,8.24 255.29,16.47 382.94,24.71 60.39,13.73 120.78,27.45 181.18,41.18 80.98,4.12 161.96,8.24 242.94,12.35 159.9,30.54 376.76,66.91 531.18,119.41 76.86,9.61 153.73,19.22 230.59,28.82 35.69,17.84 71.37,35.69 107.06,53.53 49.41,6.86 98.82,13.73 148.24,20.59 21.96,15.1 43.92,30.2 65.88,45.29 42.55,5.49 85.1,10.98 127.65,16.47 28.82,16.47 57.65,32.94 86.47,49.41 41.18,6.86 82.35,13.73 123.53,20.59 38.43,11.67 63.14,40.83 94.71,53.53 27.45,4.12 54.9,8.24 82.35,12.35 39.46,12.35 71.03,39.12 102.94,57.65 37.06,9.61 74.12,19.22 111.18,28.82 35.34,14.75 136.91,109.12 172.94,41.18 17.16,-21.27 18.87,-99.17 12.35,-140 -14.06,-86.81 29.52,-331.46 -12.35,-395.29z"/>
 </g>
</svg>
