<?xml version="1.0" encoding="UTF-8"?>
<!DOCTYPE svg PUBLIC "-//W3C//DTD SVG 1.1//EN" "http://www.w3.org/Graphics/SVG/1.1/DTD/svg11.dtd">
<!-- Creator: CorelDRAW 2021 (64-Bit) -->
<svg xmlns="http://www.w3.org/2000/svg" xml:space="preserve" width="67.3247mm" height="58.4765mm" version="1.1" style="shape-rendering:geometricPrecision; text-rendering:geometricPrecision; image-rendering:optimizeQuality; fill-rule:evenodd; clip-rule:evenodd"
viewBox="0 0 21057.05 18289.62"
 xmlns:xlink="http://www.w3.org/1999/xlink"
 xmlns:xodm="http://www.corel.com/coreldraw/odm/2003">
 <defs>
  <style type="text/css">
   <![CDATA[
    .str0 {stroke:#008DD2;stroke-width:441.35;stroke-linecap:round;stroke-miterlimit:22.9256}
    .str1 {stroke:#008DD2;stroke-width:441.35;stroke-linecap:round;stroke-linejoin:round;stroke-miterlimit:22.9256}
    .fil1 {fill:none}
    .fil2 {fill:#FEFEFE}
    .fil0 {fill:#B8FFFF}
   ]]>
  </style>
 </defs>
 <g id="Layer_x0020_1">
  <metadata id="CorelCorpID_0Corel-Layer"/>
  <path class="fil0" d="M15074.23 3672.5c657.28,371.44 1179.36,865.68 1530.5,1645.29l1760.11 -4075 -3290.61 2429.71z"/>
  <polygon class="fil0" points="5542.26,3841.67 6767.72,2989.16 5462.32,691.38 "/>
  <path class="fil0 str0" d="M10345.07 2211.15c3076.55,329.35 5071.42,1133.79 6156.48,2915.88 647.4,1063.32 1137.2,2393.59 1080.74,4002.81 -76.75,2188.04 -41.6,3805.17 -1378.59,5345.56 -1144.33,1318.41 -4079.16,1662.77 -6390.18,1257.86 -3393.98,-594.64 -6762.59,-1859.53 -6664.76,-6153.63 97.83,-4294.09 3080.52,-7809.08 7196.31,-7368.49z"/>
  <path class="fil1 str1" d="M15668.52 3257.05c919.04,-703.82 1838.11,-1407.65 2757.15,-2111.47 -418.8,617.44 -837.63,1627.9 -1256.42,2896.74"/>
  <path class="fil1 str0" d="M5552.21 9747.47c0,0 -2638.52,-1566.6 -3957.74,-3648.51"/>
  <path class="fil1 str0" d="M4078.35 10097.89c0,0 -1288.29,-422.55 -3164.09,-535.93"/>
  <path class="fil1 str0" d="M4107.65 10899.27c0,0 -1438.36,616.44 -3886.93,1267.12"/>
  <path class="fil1 str0" d="M7074.2 10749.51c0,0 77.32,124.86 316.4,317.93 386.77,312.36 1122.9,688.37 2185.41,828.4 412.39,54.36 850.67,87.48 1331.24,117.76"/>
  <path class="fil1 str0" d="M13883.96 10729.12c0,0 5382.59,183.47 6952.5,142.72"/>
  <path class="fil1 str0" d="M14475.25 11972.81c0,0 937.87,489.33 2915.54,897.11 1977.67,407.79 2303.92,407.79 3037.89,632.04"/>
  <path class="fil1 str0" d="M13598.52 13583.51c0,0 897.11,754.4 1671.87,1651.48 774.76,897.08 2793.18,2507.78 3078.64,2834"/>
  <path class="fil1 str0" d="M9786.28 8853.04c-36.37,-31.9 -66.81,-50.82 -66.81,-50.82"/>
  <path class="fil2" d="M6183 6151.66c54.02,285.81 613.31,720.87 951.63,726.41 147.44,2.41 394.34,41.19 521.42,-31.93 122.26,-70.37 219.88,-56.33 352.08,-209.52 68.78,-79.66 128.7,-102.71 -49.04,-224.57 -180.31,-123.61 -831.34,-343.29 -1074.33,-359.56 -135.99,-9.1 -577.93,-27.65 -699.69,80.44l-2.06 18.73z"/>
  <path class="fil1 str0" d="M7716.25 6875.69c-135.93,61.21 -869.87,101.9 -1060.19,-81.54 -190.32,-183.44 -448.54,-632.04 -448.54,-632.04"/>
  <path class="fil1 str0" d="M8185.19 6549.5c0,0 -611.62,-570.9 -1182.52,-530.11 -570.9,40.79 -937.87,265.04 -937.87,265.04"/>
  <ellipse class="fil2" cx="13466.69" cy="7350.19" rx="1016.69" ry="280.46"/>
  <path class="fil1 str0" d="M12079.41 7256.83c0,0 483.04,-285.43 1461.69,-244.65 978.65,40.79 1146.42,282.27 1024.1,486.17 -122.32,203.89 -1425.6,233.67 -1731.42,111.35 -305.83,-122.32 -553.6,-381.08 -553.6,-381.08"/>
  <path class="fil1 str1" d="M6384.86 2428.12l-994.64 -2207.46c98.49,1012.12 151.6,1998.03 87.2,3010.15"/>
 </g>
</svg>
