<?xml version="1.0" encoding="utf-8"?>
<!-- Generator: Adobe Illustrator 26.3.1, SVG Export Plug-In . SVG Version: 6.00 Build 0)  -->
<svg version="1.1" id="Layer_1" xmlns="http://www.w3.org/2000/svg" xmlns:xlink="http://www.w3.org/1999/xlink" x="0px" y="0px"
	 viewBox="0 0 151.1 21.3" style="enable-background:new 0 0 151.1 21.3;" xml:space="preserve">
<style type="text/css">
	.st0{fill:#282828;}
</style>
<g>
	<path class="st0" d="M55.6,19.8h-3.7V6.6H47V3.4h13.5v3.2h-4.9V19.8z"/>
	<path class="st0" d="M75.5,3.4h-3.8v16.4h3.8V3.4z"/>
	<path class="st0" d="M142.3,16.6h6.6v3.2h-10.4V3.4h3.8V16.6z"/>
	<path class="st0" d="M91.7,16.7h2.4c3.1,0,5.3-2,5.3-5.1c0-2.9-2.1-4.9-5.2-4.9h-2.4V16.7z M88.1,3.4h6.1c4.5,0,9,2.3,9,8.2
		c0,5.4-4.4,8.2-8.8,8.2h-6.3V3.4z"/>
	<path class="st0" d="M117,13.7l2.5-6.4l2.4,6.4H117z M124.3,19.8h4.2l-6.9-16.4h-3.9l-6.9,16.4h4l1.2-3.2h7L124.3,19.8z"/>
	<path class="st0" d="M16.8,1.1L12,5.9l4.9,4.8l4.9-4.8L16.8,1.1z"/>
	<path class="st0" d="M16.8,10.7L12,15.5l4.9,4.8l4.9-4.8L16.8,10.7z"/>
	<path class="st0" d="M7.2,1L2.3,5.9l4.9,4.8L12,5.9L7.2,1z"/>
	<path class="st0" d="M26.5,1.1l-4.9,4.8l4.9,4.8l4.9-4.8L26.5,1.1z"/>
</g>
</svg>
