<?xml version="1.0" encoding="utf-8"?>
<!-- Generator: Adobe Illustrator 26.3.1, SVG Export Plug-In . SVG Version: 6.00 Build 0)  -->
<svg version="1.1" id="Layer_1" xmlns="http://www.w3.org/2000/svg" xmlns:xlink="http://www.w3.org/1999/xlink" x="0px" y="0px"
	 viewBox="0 0 114.5 25.4" style="enable-background:new 0 0 114.5 25.4;" xml:space="preserve">
<style type="text/css">
	.st0{clip-path:url(#SVGID_00000051371528701961446990000014657205674124969091_);}
</style>
<g>
	<g>
		<defs>
			<rect id="SVGID_1_" x="1.2" y="0.2" width="112" height="25"/>
		</defs>
		<clipPath id="SVGID_00000004520779379198077840000000180851668633017278_">
			<use xlink:href="#SVGID_1_"  style="overflow:visible;"/>
		</clipPath>
		<g style="clip-path:url(#SVGID_00000004520779379198077840000000180851668633017278_);">
			<path d="M1.2,12.5v12.3h2.4h2.4v-5v-5L8,14.8l1.9,0.1l2.9,4.9l2.9,4.9l2.8,0c1.5,0,2.8,0,2.8-0.1c0-0.1-1.3-2.3-2.9-5.1
				c-1.6-2.7-2.9-5-3-5.1c0-0.1,0.4-0.4,1.1-0.7c1.5-0.7,3-2.1,3.6-3.3C21,8.8,21,5.7,20.1,4c-0.9-1.7-3-3.1-5.3-3.6
				c-0.7-0.1-3.5-0.2-7.4-0.2H1.2V12.5z M14.2,4.8c1.1,0.5,1.7,1.4,1.7,2.7c0,1.2-0.5,2.1-1.5,2.6c-0.6,0.3-1.3,0.4-4.5,0.4
				l-3.8,0.1V7.5V4.4h3.6C12.8,4.4,13.5,4.5,14.2,4.8z"/>
			<path d="M78.9,12.7v12.1h2.3h2.3V12.7V0.6h-2.3h-2.3V12.7z"/>
			<path d="M104.7,11.9c0.1,9.3,0.1,9.4,0.5,10.3c0.5,1.1,1.8,2.3,2.8,2.7c0.4,0.2,1.5,0.3,2.9,0.3h2.2v-2v-2h-1.3
				c-1,0-1.4-0.1-1.8-0.4l-0.5-0.4v-4.7V11h1.8h1.8V9.1V7.2h-1.8h-1.8V4.9V2.6h-2.5h-2.4L104.7,11.9z"/>
			<path d="M27.4,7.2c-1.6,0.5-2.8,1.2-4,2.5c-1.2,1.3-1.8,2.3-2.2,4c-1.1,4.6,0.9,8.9,5,10.8c1.3,0.6,1.4,0.6,4,0.6
				c2.3,0,2.8-0.1,3.8-0.5c1.4-0.6,3.3-2.2,4.1-3.6l0.5-1L37,19.2c-0.9-0.5-1.7-0.9-1.8-0.9c-0.1,0-0.4,0.4-0.8,0.9
				c-0.8,1.2-1.9,1.9-3.2,2.1c-1.2,0.2-2.1,0.1-3.1-0.4c-1.2-0.6-2.4-2.2-2.4-3.2c0-0.4,0.1-0.4,6.7-0.4H39v-1.7
				c0-3.8-1.8-6.7-5.2-8.1C32.4,6.7,29.1,6.7,27.4,7.2z M32.9,11.1c0.5,0.4,1,0.9,1.4,1.6l0.5,1l-4.5,0.1c-2.5,0-4.5,0-4.6-0.1
				c-0.3-0.3,1.2-2.1,2.2-2.7c1-0.6,1.2-0.7,2.7-0.6C31.8,10.5,32.2,10.6,32.9,11.1z"/>
			<path d="M64.3,7.1c-2.6,0.7-5,2.6-6,4.8c-0.7,1.6-1,4-0.7,5.8c0.8,4.7,4.3,7.6,9.5,7.6c3.1,0,5.1-0.7,7.1-2.5
				c1.1-1,1.9-2.3,2.4-4c0.4-1.5,0.3-4.7-0.2-6.1c-0.8-2.3-3-4.4-5.5-5.2C69.3,6.8,65.8,6.7,64.3,7.1z M69.2,11.6
				c2.9,1.2,3.8,5,1.9,7.5c-1.4,1.8-4.2,2.4-6.2,1.4c-1-0.6-2.2-1.8-2.5-2.8c-0.4-1.2-0.2-3.3,0.5-4.3
				C64.3,11.3,66.8,10.6,69.2,11.6z"/>
			<path d="M38.9,7.5c0.1,0.1,1.7,4.1,3.6,8.8l3.5,8.5l2.2-0.1l2.2-0.1l3.4-8.3c1.9-4.6,3.5-8.5,3.6-8.8l0.1-0.5l-2.5,0.1l-2.5,0.1
				l-2.2,5.6c-1.2,3.1-2.2,5.6-2.3,5.5c-0.1-0.1-1.1-2.6-2.2-5.7l-2.1-5.5h-2.5C39.3,7.2,38.8,7.3,38.9,7.5z"/>
			<path d="M86,12.7c0,3.1,0.1,6,0.2,6.6c0.4,2.4,1.8,4.1,4,5.2c1.3,0.6,1.4,0.6,4.1,0.6c2.6,0,2.8,0,4-0.6c2.3-1,3.7-2.9,4.1-5.2
				c0.1-0.7,0.2-3.6,0.2-6.6V7.2h-2.3H98L98,12.7c-0.1,5.2-0.1,5.5-0.5,6.3c-0.7,1.2-1.8,1.7-3.4,1.6c-1.5-0.1-2.3-0.6-2.9-1.7
				c-0.3-0.7-0.4-1.4-0.4-6.2l-0.1-5.4h-2.3H86L86,12.7L86,12.7z"/>
		</g>
	</g>
</g>
</svg>
