<?xml version="1.0" encoding="utf-8"?>
<!-- Generator: Adobe Illustrator 26.3.1, SVG Export Plug-In . SVG Version: 6.00 Build 0)  -->
<svg version="1.1" id="Layer_1" xmlns="http://www.w3.org/2000/svg" xmlns:xlink="http://www.w3.org/1999/xlink" x="0px" y="0px"
	 viewBox="0 0 73.7 56.7" style="enable-background:new 0 0 73.7 56.7;" xml:space="preserve">
<style type="text/css">
	.st0{clip-path:url(#SVGID_00000183218801874657695820000012516929003474869669_);}
	.st1{fill:#1D1D1B;}
</style>
<g>
	<defs>
		<rect id="SVGID_1_" x="0.9" y="1.8" width="72" height="54.7"/>
	</defs>
	<clipPath id="SVGID_00000004534782278059058070000004066661972765457830_">
		<use xlink:href="#SVGID_1_"  style="overflow:visible;"/>
	</clipPath>
	<g style="clip-path:url(#SVGID_00000004534782278059058070000004066661972765457830_);">
		<path class="st1" d="M14.4,32.9L14.4,32.9c0-0.1,0-0.1,0-0.1c0,0,0,0,0-0.1c0-0.1,0-0.1,0-0.1c0-0.1,0.1-0.1,0.1-0.1
			c0-0.1,0-0.1,0-0.1c0,0,0,0,0-0.1c0,0,0,0,0-0.1c0,0,0,0,0-0.1c0,0,0,0,0-0.1c0,0,0,0-0.1-0.1V32c0-0.1,0.1-0.3,0.1-0.4
			c0-0.1,0-0.1,0-0.1v-0.1h0.1c0.1,0,0.1-0.1,0.1-0.1c0-0.1,0-0.1,0.1-0.1v-0.1c0,0,0,0-0.1,0V31c0-0.1,0-0.1,0.1-0.1l0.1-0.1
			c0,0,0,0,0-0.1c0,0,0,0,0-0.1c0-0.1,0-0.1,0-0.1l0.1-0.1c0,0,0,0,0-0.1v-0.1c0-0.1-0.1,0-0.1-0.1c0-0.1,0-0.1,0-0.1v-0.1v-0.1
			c0-0.1,0-0.1,0.1-0.1V30v-0.1c0,0,0,0,0-0.1c0-0.1,0-0.1,0-0.1v-0.1c0,0,0,0,0-0.1v-0.1v-0.1l0.1-0.1c0-0.1,0-0.1,0-0.1
			c0-0.1,0-0.1,0-0.1v-0.1c0,0,0-0.1,0.1-0.1V29c0-0.1,0-0.1,0-0.1c0,0,0,0,0-0.1v-0.1c0,0,0,0,0-0.1v-0.1v-0.1c0-0.1,0-0.1,0.1-0.2
			c0-0.1,0-0.1,0.1-0.1c0,0,0-0.1,0.1-0.1c0,0-0.1,0-0.1-0.1c0,0,0,0,0.1-0.1c0-0.1,0-0.1,0-0.1s0,0,0-0.1v-0.1c0,0,0,0,0.1-0.1
			v-0.1c0-0.1,0-0.1,0-0.1c0,0,0,0,0-0.1v-0.1v-0.1c0-0.1,0-0.1,0-0.1v-0.1h0.1v-0.1V27c0,0,0,0,0-0.1v-0.1v-0.1c0,0,0,0,0-0.1
			c0,0,0,0,0-0.1c0-0.1,0-0.1,0-0.1c0-0.1,0-0.1,0-0.1v-0.1c0,0,0,0,0-0.1v-0.1c0,0,0,0,0-0.1v-0.1c0,0,0,0,0-0.1c0,0,0,0,0-0.1
			v-0.1c0,0,0,0,0-0.1V26c0,0,0,0,0.1,0c0,0,0,0,0-0.1v-0.1c0,0,0-0.1,0.1-0.1v-0.1c0,0,0,0,0-0.1c0,0,0,0,0-0.1c0-0.1,0-0.1,0-0.1
			l0.1-0.1c0,0,0-0.1,0-0.1c0-0.1,0-0.1,0-0.1c0.1-0.1,0.1-0.1,0.1-0.1c0,0,0,0,0-0.1c0,0,0,0,0-0.1c0,0,0,0,0-0.1c0,0,0,0,0-0.1
			v-0.1c0-0.1,0.1-0.1,0.1-0.1v-0.1c0,0,0-0.1,0-0.1c0-0.1,0-0.1,0-0.1c0-0.1,0-0.1,0-0.1l0.1-0.1c0-0.1,0.1-0.1,0.1-0.1h0.1
			c0,0,0,0,0.1,0L16,24c0,0,0,0,0-0.1v-0.1c0,0,0,0,0-0.1c0,0,0,0,0-0.1v-0.1v-0.1c0,0,0,0,0-0.1c0-0.1,0-0.1,0-0.1
			c0-0.1,0-0.1,0-0.1s0.1-0.1,0.1-0.1s0,0,0-0.1v-0.1c0-0.1,0-0.1,0-0.1c0-0.1,0-0.1,0-0.1c0,0,0,0,0-0.1v-0.1c0-0.1,0-0.1,0-0.1
			c0-0.1,0-0.1,0-0.1v-0.1c0,0,0,0,0-0.1v-0.1c0,0,0,0,0-0.1c0,0,0,0,0.1-0.1c0,0,0,0,0-0.1v-0.1c0-0.1,0-0.1,0-0.1
			c0,0,0.1,0,0.1-0.1c0-0.1,0-0.1,0-0.1v-0.1c0-0.1,0.1-0.1,0.1-0.2c0.1-0.1,0.1-0.1,0.1-0.2c0.1-0.1,0.1-0.1,0.1-0.3c0,0,0,0,0-0.1
			V21c0-0.1,0-0.1,0.1-0.1c0-0.1,0.1-0.1,0.1-0.2c0-0.1,0-0.1,0-0.1c0-0.1,0-0.1,0-0.1c0-0.1,0.1-0.1,0.1-0.1v-0.1c0,0,0,0,0.1-0.1
			c0.1,0,0.1-0.1,0.1-0.1c0-0.1,0-0.1,0.1-0.2H17v-0.1v-0.1c0-0.1-0.1-0.1-0.1-0.1c0-0.1,0-0.1,0-0.1s0,0,0-0.1c0,0,0,0,0-0.1
			c0-0.1,0.1-0.1,0.1-0.1c0-0.1,0-0.1,0-0.1v-0.1c0,0,0-0.1,0.1-0.1l0.1-0.1v-0.1v-0.1c0,0,0,0,0-0.1c0,0,0-0.1,0-0.1
			s0.1-0.1,0.1-0.1c0,0,0.1-0.1,0-0.1v-0.1v-0.1c0-0.1,0,0,0.1,0c0,0,0.1,0,0,0c0,0,0,0,0-0.1c0-0.1,0-0.1,0-0.1s0.1-0.1,0.1-0.1
			v-0.1c0-0.1,0-0.1,0-0.1c0-0.1,0-0.1,0.1-0.1c0-0.1,0-0.1,0.1-0.1c0.1,0,0.1-0.1,0.1-0.1v-0.1c0,0,0,0,0-0.1v-0.1v-0.1
			c0,0,0,0,0.1-0.1V17c0,0,0,0,0-0.1c0,0,0-0.1,0.1-0.1v-0.1h0.1v-0.1c0,0,0,0,0-0.1c0,0,0,0,0.1-0.1v-0.1c0-0.1,0-0.1,0-0.1v-0.1
			c0,0,0,0,0-0.1v-0.1c0,0,0,0,0-0.1v-0.1c0,0,0-0.1,0.1-0.1V16c0-0.1,0-0.1,0.1-0.1c0,0,0,0,0-0.1h0.1c0,0,0,0,0-0.1v-0.1
			c0,0,0,0,0.1,0v-0.1c0,0,0-0.1,0-0.1v-0.1v-0.1v-0.1l0.1-0.1v-0.1v-0.1c0,0,0-0.1,0.1-0.1c0,0,0,0,0-0.1l0.1-0.1v-0.1
			c0-0.1,0-0.1,0.1-0.1l0.1-0.1c0-0.1,0.1-0.1,0.1-0.2s0.1-0.1,0.1-0.1v-0.1c0,0-0.1,0,0-0.1c0,0,0.1-0.1,0.1-0.1
			c0.1-0.1,0-0.1,0.1-0.1l0.1-0.1c0,0,0,0,0-0.1v-0.1v-0.1v-0.1v-0.1c0,0,0.1-0.1,0-0.1c0-0.1,0.1-0.1,0.1-0.1
			c0-0.1,0.1-0.1,0.1-0.1c0-0.1,0.1-0.1,0.1-0.2c0,0,0-0.1,0.1-0.1v-0.1c0-0.1,0.1-0.1,0.1-0.1v-0.1v-0.1c0.1,0,0-0.1,0.1-0.1
			c0,0,0,0,0-0.1c0-0.1,0.1-0.1,0.1-0.1c0,0,0,0,0-0.1c0,0,0,0,0-0.1c0,0,0,0,0.1,0c0,0,0,0,0-0.1c0-0.1,0-0.1,0.1-0.1
			c0,0,0,0,0-0.1c0.1,0,0.1-0.2,0.1-0.2c0.1-0.1,0.1-0.3,0.2-0.4c0.1-0.1,0.1-0.2,0.1-0.3c0,0,0-0.1,0.1-0.1c0,0,0,0,0-0.1
			c0-0.1,0.1-0.1,0.1-0.1v-0.1c0-0.1,0-0.1,0.1-0.1c0.1-0.1,0.1-0.1,0.1-0.2c0,0,0,0,0-0.1c0,0,0,0,0-0.1c0,0,0-0.1,0.1-0.1v-0.1
			c0,0,0-0.1,0.1-0.1v-0.1c0-0.1,0.1-0.1,0.1-0.1c0,0,0,0,0-0.1c0-0.1,0.1-0.1,0.1-0.1c0-0.1,0.1-0.1,0.1-0.1c0,0,0.1,0,0.1-0.1
			c0,0,0-0.1,0.1-0.1c0-0.1,0-0.2,0.1-0.2V9.4l0.1-0.1c-0.1-0.1,0-0.1,0.1-0.1c0,0,0.1,0,0.1-0.1V9c0-0.1,0.1-0.1,0.1-0.1
			c0-0.1,0-0.1,0.1-0.1c0,0,0,0,0.1-0.1c0-0.1,0.1-0.1,0.1-0.1c0.1-0.1,0.1-0.1,0.2-0.3c0,0,0-0.1,0.1-0.1h0.1c0,0,0-0.1,0.1-0.1
			c0-0.1,0-0.1,0.1-0.1l0.1-0.1L21.5,8L21.6,8c0,0,0-0.1,0.1-0.1c0,0,0.1,0,0.1-0.1V7.8c0,0,0,0,0-0.1c0,0,0,0,0-0.1
			c0,0,0,0,0.1-0.1c0,0,0,0,0-0.1h0.1c0,0,0,0,0-0.1h0.1c0,0,0,0,0-0.1H22c0,0,0.1-0.1,0.1-0.1c0.1,0,0.1,0,0.1,0
			c0.1,0,0-0.1,0.1-0.1c0,0,0,0,0.1,0c0,0,0,0,0-0.1c0,0,0,0,0-0.1c0,0,0,0,0-0.1c0,0,0,0,0.1,0c0,0,0,0,0,0.1c0,0,0,0,0,0.1h0.1
			c0,0,0,0,0-0.1c0,0,0,0,0.1-0.1V6.9V6.9h0.1V6.8c0,0,0.1,0,0,0c0,0,0,0,0,0.1h0.1c0,0,0,0,0-0.1c0,0,0,0,0.1,0c0,0,0,0,0.1,0
			c0,0,0,0,0-0.1c0,0,0,0,0-0.1V6.6c0,0,0,0,0-0.1c0,0,0.1,0.1,0.1,0V6.5c0,0,0,0,0-0.1c0-0.1,0-0.1,0-0.1c0-0.1,0-0.1,0-0.1
			l0.1-0.1c0,0,0,0,0.1,0c0,0-0.1-0.1,0-0.1c0,0,0,0,0-0.1c0,0,0,0,0.1,0c0,0,0,0,0-0.1c0,0,0,0,0-0.1c0,0,0,0,0-0.1l0.1-0.1
			l0.1-0.1c0,0,0,0,0-0.1c0,0,0-0.1,0.1-0.1c0,0,0,0,0-0.1l0.1-0.1V5.3c0,0,0,0,0-0.1c0,0,0,0,0-0.1V5.1c0,0,0,0,0-0.1
			c0,0,0-0.1,0-0.1c0-0.1,0-0.1,0-0.1c0,0,0,0,0-0.1c0,0,0,0,0-0.1c0,0,0,0,0-0.1c0,0,0,0,0-0.1c0,0,0-0.1,0-0.1c0-0.1,0-0.1,0-0.2
			V4.2V4.1V4.1V4c0-0.1,0-0.1,0-0.1c0-0.1,0-0.1-0.1-0.1V3.7c0,0,0,0,0-0.1V3.6V3.5c0,0,0,0,0-0.1V3.4c0-0.1-0.1-0.1-0.1-0.1V3.3
			c0,0,0,0-0.1-0.1c0,0,0,0,0-0.1C23.1,3.1,23,3.1,23,3V3c0,0,0,0-0.1-0.1c-0.1-0.1-0.1-0.1-0.1-0.2l-0.1-0.1c0,0,0,0,0-0.1
			c0,0,0,0-0.1,0c0,0-0.1,0-0.1-0.1c0,0,0,0,0-0.1h-0.1c0,0,0,0-0.1,0l-0.1-0.1c0,0,0,0-0.1,0c0,0-0.1,0-0.1-0.1
			c-0.1,0-0.1-0.1-0.1-0.1c-0.1,0-0.1,0-0.1-0.1c-0.1,0-0.1,0-0.1,0c0,0,0,0-0.1,0l-0.1-0.1c-0.1,0-0.1,0-0.1,0c-0.1,0-0.1,0-0.1,0
			c-0.1,0-0.1,0-0.1,0s-0.1,0-0.1,0h-0.1h-0.1h-0.1c0,0,0,0-0.1,0s-0.1,0-0.1,0c-0.1,0-0.1,0-0.1,0c-0.1,0-0.1,0.1-0.1,0.1
			s-0.1,0-0.1,0.1c-0.1,0-0.1,0.1-0.1,0.1c-0.2,0.1-0.4,0.3-0.6,0.4c1.1,1.3,1.1,1.3,1,1.4c0,0,0,0,0,0.1h-0.1c0,0-0.1,0.1,0,0.1
			c-0.1,0-0.1,0.1-0.1,0.1c0,0.1-0.1,0-0.1,0.1c0,0,0,0.1-0.1,0.1c-0.1,0.1-0.1,0.1-0.1,0.1c-0.1,0.1-0.1,0.1-0.1,0.1
			c-0.1,0.1-0.1,0.2-0.2,0.3c0,0.1-0.1,0.1-0.1,0.2c-0.1,0-0.1,0.2-0.2,0.3c-0.1,0.1-0.1,0.2-0.1,0.3c-0.1,0.2-0.1,0.4-0.3,0.6
			c-0.1,0.1-0.1,0.2-0.1,0.3c-0.1,0.1-0.1,0.2-0.1,0.3c0,0.1-0.1,0.3-0.1,0.4C19,7.4,19,7.5,19,7.6c-0.1,0.2-0.2,0.4-0.3,0.6
			c-0.1,0.1-0.1,0.2-0.1,0.3c-0.1,0.1-0.1,0.2-0.1,0.3c-0.1,0.2-0.1,0.4-0.2,0.6c0,0.1-0.1,0.1-0.1,0.2c0,0.1-0.1,0.2-0.1,0.3
			c-0.1,0.1-0.1,0.3-0.2,0.4c-0.1,0.2-0.1,0.4-0.2,0.5c-0.1,0.3-0.2,0.4-0.3,0.7c0,0.1-0.1,0.2-0.1,0.3c0,0.1-0.1,0.2-0.1,0.3
			c-0.1,0.1-0.1,0.3-0.1,0.4c-0.1,0.1-0.1,0.3-0.1,0.4c-0.1,0.2-0.1,0.3-0.2,0.5c-0.1,0.2-0.1,0.4-0.2,0.6c-0.2,0.5-0.4,1-0.5,1.5
			c0,0.1,0,0.1-0.1,0.1c0,0.1,0,0.1-0.1,0.1c0,0.1-0.1,0.1-0.1,0.1c-0.1,0.1-0.1,0.1-0.1,0.1c0,0.1-0.1,0.2-0.1,0.3
			c0,0.2-0.1,0.3-0.1,0.4c0,0.1-0.1,0.1-0.1,0.3c-0.1,0.1-0.2,0.3-0.2,0.4c0,0.1-0.1,0.2-0.1,0.3c0,0.1-0.1,0.2-0.1,0.3
			c0,0.1-0.1,0.2-0.1,0.3c-0.1,0.1-0.1,0.2-0.1,0.3c-0.1,0.1,0,0.2-0.1,0.3c-0.1,0.1-0.1,0.2-0.1,0.3c0,0.1,0,0.2,0,0.3
			c0,0.1-0.1,0.1-0.1,0.1c0,0.1-0.1,0.1-0.1,0.2c0,0.1,0,0.1,0,0.2c0,0.1-0.1,0.1-0.1,0.2c-0.1,0.3-0.1,0.6-0.3,0.8
			c-0.1,0.1-0.1,0.3-0.1,0.4c-0.1,0.1-0.1,0.3-0.1,0.4c-0.1,0.3-0.1,0.6-0.2,0.8c0,0.1-0.1,0.2-0.1,0.3c0,0.1,0,0.1,0,0.1
			c0,0.1-0.1,0.1-0.1,0.2c0,0.1,0,0.1-0.1,0.2c-0.1,0.1-0.1,0.3-0.1,0.4c-0.1,0.3-0.2,0.6-0.3,0.8c-0.1,0.3-0.1,0.4-0.2,0.7
			c0,0.1,0,0.2-0.1,0.3c0,0.1-0.1,0.3-0.1,0.3c0,0.1-0.1,0.1-0.1,0.3c0,0.1,0,0.1,0,0.1c0,0.1-0.1,0.1-0.1,0.1c0,0.1,0,0.1,0,0.2
			c-0.1,0.1,0,0.1-0.1,0.2c0,0.1-0.1,0.3-0.1,0.4c-0.1,0.2-0.1,0.4-0.2,0.6c0,0.1-0.1,0.3-0.1,0.3c-0.1,0.2-0.1,0.4-0.1,0.6
			c0,0.1-0.1,0.2-0.1,0.3c0,0.1-0.1,0.2-0.1,0.3c0,0.1-0.1,0.3-0.1,0.3c-0.1,0.1-0.1,0.2-0.1,0.3c0,0.1,0,0.2-0.1,0.3
			c-0.1,0.1-0.1,0.3-0.1,0.4c0,0.1-0.1,0.3-0.1,0.4c0,0.1-0.1,0.2-0.1,0.3c0,0.1-0.1,0.3-0.1,0.5c-0.1,0.3-0.1,0.6-0.2,1
			c0,0.1-0.1,0.3-0.1,0.4c0,0.2-0.1,0.4-0.1,0.6c0,0.1-0.1,0.1-0.1,0.3c0,0.2-0.1,0.3-0.1,0.5c-0.1,0.3-0.1,0.6-0.2,0.9
			c0,0.1-0.1,0.3-0.1,0.3c-0.1,0.4-0.1,0.8-0.2,1.2c0,0.2-0.1,0.4-0.1,0.6c0,0.1,0,0.2,0,0.3c0,0.1,0,0.1,0,0.2l-0.1,0.1
			c0,0,0,0.1,0,0.1c0,0.1-0.1,0.3-0.1,0.4c0,0,0,0-0.1,0c0,0.1,0,0.1,0,0.1c-0.1,0,0,0.1-0.1,0.1c-0.1,0-0.1-0.1-0.1-0.1
			c-0.1-0.1-0.1-0.1-0.1-0.1c0-0.1,0-0.1-0.1-0.1c0-0.1,0-0.1,0-0.1c0-0.1,0.1-0.2,0-0.3c0-0.1-0.1-0.1-0.1-0.1c0-0.1,0.1-0.1,0-0.1
			c0-0.1-0.1-0.1-0.2-0.1c0-0.1,0.1-0.1,0.1-0.1c0-0.1,0-0.1,0-0.1c0-0.1,0-0.1,0-0.3c0-0.1,0-0.1,0-0.2c0-0.1-0.1-0.1-0.1-0.2
			c0-0.1-0.1-0.1-0.1-0.2l0.1-0.1c0-0.1,0-0.1,0-0.1c0-0.1,0.1-0.1,0.1-0.2c-0.1-0.2,0-0.1,0-0.3c0-0.1,0-0.1-0.1-0.2l-0.1-0.1
			c-0.1,0,0-0.1-0.1-0.1c0,0,0,0,0-0.1h0.1c0,0,0,0-0.1,0c-0.1,0.1-0.1,0-0.1-0.1v-0.1c0,0-0.1,0,0-0.1l0.1-0.1H9.6
			c0,0.1-0.1,0-0.1,0v-0.1v-0.1c0-0.1,0-0.1,0-0.1c0-0.1,0-0.1,0-0.1l0.1-0.1c0-0.1,0-0.1,0-0.1c-0.1-0.1,0,0,0-0.1v-0.1v-0.1v-0.1
			c0,0,0,0,0-0.1v-0.1c0-0.1,0-0.1,0-0.1c0-0.1-0.1-0.1-0.1-0.1c0-0.1,0-0.1,0-0.1L9.5,35V35c0,0-0.1-0.1,0-0.1c0-0.1,0-0.1,0-0.1
			v-0.1c0,0,0-0.1-0.1-0.1v-0.1c0-0.1-0.1-0.1-0.1-0.2c0-0.1,0-0.1,0-0.2c0-0.1,0-0.1,0-0.2V34v-0.1c0,0,0-0.1-0.1-0.1l-0.1-0.1
			c0-0.1,0-0.1-0.1-0.1v-0.1v-0.1v-0.1c0,0-0.1-0.1,0-0.1h0.1v-0.1c0-0.1-0.1-0.1-0.1-0.1c-0.1-0.1-0.1-0.1-0.1-0.1
			c0-0.1,0-0.1,0-0.1c0-0.1,0-0.1,0-0.1c0-0.1,0-0.1,0-0.1c0-0.1,0-0.1-0.1-0.1c0-0.1,0-0.1,0-0.1L9,32.5c-0.1-0.1-0.1-0.1-0.1-0.2
			v-0.1c0,0-0.1,0-0.1-0.1c0-0.1,0.1,0,0-0.1c0,0,0,0-0.1,0V32c0-0.1,0-0.1,0-0.1s0.1-0.1,0-0.1c0-0.1-0.1-0.1-0.1-0.1
			c-0.1,0-0.1,0-0.1-0.1c0-0.1,0-0.1,0-0.1s0-0.1,0-0.1v-0.1c0-0.1,0-0.1,0-0.1v-0.1H8.6c0-0.1-0.1-0.3-0.1-0.4c0-0.1,0-0.1,0-0.1
			c0-0.1,0-0.1-0.1-0.1c-0.1-0.1-0.1-0.1-0.1-0.2c0-0.1,0-0.1,0-0.1c0-0.1,0-0.1,0-0.1v-0.1c0,0,0.1,0,0.1-0.1H8.4c0,0,0,0,0-0.1
			c0,0,0,0,0-0.1c0,0,0,0,0-0.1c0,0,0-0.1,0-0.1v-0.1c0,0,0,0,0-0.1v-0.1v-0.1c0,0,0,0,0-0.1c0,0,0.1-0.1,0-0.1c0-0.1,0-0.1,0-0.1
			s0,0,0-0.1v-0.1c0-0.1,0-0.1,0.1-0.1c0,0,0.1,0,0.1-0.1c0,0,0,0,0-0.1V29V29v-0.1c0,0-0.1,0-0.1-0.1c0,0,0.1,0,0.1-0.1
			c0,0,0,0,0-0.1c0,0,0.1,0,0.1-0.1c0,0,0,0-0.1-0.1c-0.1,0-0.1,0-0.1-0.1c0-0.1,0-0.1,0-0.1c0-0.1,0.1-0.1,0.1-0.1s0,0,0-0.1
			c0,0,0,0-0.1-0.1v-0.1h0.1c0-0.1,0-0.1-0.1,0H8.4V28c0,0,0,0,0.1,0v-0.1c0,0,0,0-0.1,0c0,0-0.1-0.1,0-0.1c0,0,0,0,0.1,0
			c0,0,0,0,0-0.1c0,0,0,0,0-0.1c0,0-0.1,0-0.1-0.1c0-0.1,0-0.1,0-0.1v-0.1c0,0,0,0,0-0.1c0-0.1-0.1-0.1-0.1-0.1c0-0.1,0-0.1,0-0.1
			V27c0,0,0,0,0-0.1v-0.1c0,0,0,0,0-0.1c0,0,0,0,0-0.1c0-0.1-0.1-0.1,0-0.2c0-0.1,0-0.1,0-0.1c0-0.1,0-0.1,0-0.1c0-0.1,0-0.1,0-0.1
			v-0.1v-0.1c0-0.1,0-0.1,0-0.1v-0.1c0,0,0,0-0.1-0.1c0-0.1,0-0.1,0-0.1c0,0,0,0,0-0.1s0-0.1,0-0.1c0-0.1,0-0.1-0.1-0.1v-0.1v-0.1
			v-0.1c0,0,0,0,0-0.1c0,0,0,0,0-0.1c0,0,0,0,0-0.1c0-0.1,0-0.1,0-0.1c0-0.1,0-0.1,0-0.1v-0.1v-0.1c0-0.1,0-0.1,0-0.1s0-0.1,0-0.1
			v-0.1v-0.1c0-0.1,0-0.1,0-0.1V24V24c0-0.1,0-0.2-0.1-0.3c0-0.1,0-0.1,0-0.1c0-0.1,0-0.1-0.1-0.1c0-0.1-0.1-0.2-0.1-0.3
			c0-0.1,0-0.1-0.1-0.1v-0.1c0,0,0,0,0-0.1V23c0-0.1-0.1-0.1-0.1-0.1c0,0,0,0,0-0.1v-0.1l-0.1-0.1c0,0,0-0.1-0.1-0.1l-0.1-0.1
			l-0.1-0.1l-0.1-0.1c-0.1-0.1-0.1-0.1-0.1-0.1H7.3c-0.1,0-0.1,0-0.1-0.1H7.2c-0.1,0-0.1,0-0.2,0s-0.1,0-0.1,0s0,0-0.1,0H6.7
			c-0.1,0-0.1,0-0.1,0c-0.1,0-0.1,0-0.1,0c-0.1,0-0.1,0-0.1,0.1H6.3c0,0,0,0-0.1,0.1H6.1c-0.1,0-0.1,0-0.1,0.1
			c-0.1,0-0.1,0.1-0.1,0.1c-0.1,0.1-0.1,0.1-0.2,0.1c-0.1,0.1-0.1,0.1-0.1,0.1c-0.1,0.1-0.1,0.1-0.1,0.3c-0.1,0.1-0.1,0.2-0.1,0.3
			c-0.1,0.1-0.1,0.3-0.1,0.4v0.1l-0.1,0.1c0,0.1,0,0.1-0.1,0.2c0,0,0,0.1-0.1,0.1v0.1c0,0.1-0.1,0.1-0.1,0.1v0.1c0,0,0,0,0,0.1
			c0,0,0,0,0,0.1c-0.1,0.1-0.1,0.3-0.1,0.4c0,0.1,0,0.1-0.1,0.1V25c0,0.1-0.1,0.1-0.1,0.2c0,0.1-0.1,0.1-0.1,0.1
			c-0.1,0.2-0.1,0.4-0.2,0.6c0,0.1-0.1,0.1-0.1,0.2c-0.5,0.3-0.5,0.3-0.5,0.4c0,0.1-0.1,0.1-0.1,0.3c0,0.1-0.1,0.1-0.1,0.2
			c-0.1,0.1-0.1,0.1-0.1,0.2c0,0.1-0.1,0.1-0.1,0.2c0,0.1,0,0.1,0,0.2c0,0.1-0.1,0.2-0.1,0.3c-0.1,0.1-0.1,0.3-0.1,0.4
			s-0.1,0.3-0.1,0.4c0,0.1,0,0.1-0.1,0.2c-0.1,0.1-0.1,0.1-0.1,0.2C3.1,29,3,29.1,3,29.2c0,0.1,0,0.1-0.1,0.2
			c-0.1,0.1-0.1,0.3-0.1,0.4c0,0.1-0.1,0.2-0.2,0.3c0,0.1-0.1,0.1-0.1,0.2c0,0.1,0,0.1,0,0.3c-0.1,0.1-0.1,0.2-0.1,0.3
			c0,0-0.2,0.1-0.1,0.1C2.3,31,2.2,31,2.3,31.1l-0.1,0.1c0,0.1,0,0.1,0,0.2C2.2,31.6,2.1,31.8,2,32c-0.1,0.2-0.2,0.4-0.3,0.6
			c0,0,0,0,0.1,0c0,0.1,0,0.1-0.1,0.2c0,0.1-0.1,0.1-0.1,0.2c0,0.1,0,0.1,0,0.1l-0.1,0.1c0,0.1,0,0.1-0.1,0.2c0,0.1,0,0.1-0.1,0.1
			c0,0.1,0,0.1-0.1,0.2c0,0.1-0.1,0.2-0.1,0.3c-0.1,0.1-0.1,0.2-0.1,0.3c-0.1,0.3-0.1,0.5-0.1,0.8c0,0.1,0.1,0.3,0.1,0.4
			c0.1,0.2,0.3,0.4,0.4,0.4c0.1,0.1,0.2,0.1,0.3,0.1C2,36,2,36,2,36c0.1,0,0.1,0,0.1,0c0.1,0,0.1,0,0.1,0c0.1,0,0.1,0,0.1,0
			s0.1,0,0.1,0h0.1c0,0,0.1,0,0.1-0.1h0.1c0,0,0,0,0.1-0.1c0.1,0,0.1,0,0.1-0.1c0.1-0.1,0.2-0.1,0.3-0.1s0.1-0.1,0.1-0.1
			c0,0,0.1,0,0.1-0.1c0,0,0-0.1,0.1-0.1c0.1-0.1,0.1,0.1,0.1,0c0-0.1,0-0.1,0-0.1c-0.1-0.1,0-0.1,0-0.2c0-0.1,0-0.1,0.1-0.1
			c0.1,0,0.1-0.1,0-0.1v-0.1c0,0,0.1,0,0-0.1c0,0,0.1,0,0.1-0.1c0-0.1,0-0.1,0-0.1c-0.1,0.1-0.1,0.1-0.1,0.1c0,0,0-0.1,0-0.1
			c0-0.1,0.1-0.1,0.1-0.1l0.1-0.1c0,0-0.1,0,0-0.1c0-0.1,0.1-0.1,0.1-0.1v-0.1c0,0,0.1,0,0.1-0.1C4,34,4,34,4,34v-0.1
			C4,33.9,4,33.8,4,33.8l0.1-0.1c0,0,0.1,0,0.1-0.1c0-0.1-0.1,0-0.1,0v-0.1c0,0,0,0,0.1,0v-0.1v-0.1c0,0,0,0,0.1,0c0,0,0,0,0-0.1
			v-0.1c0,0,0,0,0.1-0.1c0,0,0.1,0,0,0s0-0.1,0-0.1l0.1-0.1v-0.1c0,0,0,0,0-0.1c0,0,0,0,0-0.1c0-0.1,0.1,0,0.1-0.1c0,0,0,0,0-0.1
			c0,0,0,0-0.1,0c0,0,0,0-0.1,0v-0.1c0,0,0-0.1,0.1,0c0,0,0,0,0.1,0c0,0,0,0,0-0.1c-0.1,0,0,0,0,0s0,0,0.1,0c0,0,0,0,0-0.1
			c0,0,0,0,0-0.1c0,0,0,0,0-0.1v-0.1c0,0,0,0,0.1,0c0,0,0,0,0-0.1c0,0,0,0-0.1,0s0,0,0-0.1v-0.1c0,0,0,0,0.1,0c0,0,0,0,0-0.1
			c0-0.1,0-0.1,0.1-0.1V32h0.1V32c0,0,0,0,0-0.1c0,0,0-0.1,0-0.1c0,0,0,0,0-0.1v-0.1v-0.1c0,0,0,0-0.1,0c0,0,0,0,0-0.1
			c0,0,0.1,0,0,0c0,0,0,0,0-0.1c0,0,0.1,0,0.1-0.1l0.1-0.1c0,0,0,0-0.1,0c0,0,0,0,0-0.1c0-0.1,0,0,0.1,0c0.1,0,0-0.1,0-0.1
			s0,0,0-0.1c0,0,0.1-0.1,0-0.1c0,0,0,0.1,0,0c0,0,0,0,0-0.1c0,0,0,0,0-0.1v-0.1h0.1h0.1c0,0,0,0,0,0.1c0-0.1-0.1,0-0.1-0.1
			c0,0,0,0-0.1,0v-0.1c0,0,0,0,0-0.1v-0.1c0,0,0.1,0.1,0.1,0.1c0,0,0,0,0-0.1v-0.1v-0.1v-0.1c0,0,0,0,0.1,0c0,0,0,0,0-0.1
			c0,0,0,0,0-0.1c0,0,0,0,0-0.1L5,30.2c0,0,0,0,0-0.1L5.1,30h0.1c0,0,0,0,0,0.1c0,0,0,0,0.1,0c0,0,0,0,0.1,0c0,0,0,0,0.1,0
			c0,0,0,0,0,0.1c0,0,0,0.1,0.1,0.1c0,0,0,0,0.1,0c0,0,0.1,0,0,0v0.1c0,0,0,0,0,0.1c0,0-0.1,0.1,0,0.1c0,0,0,0,0,0.1l0.1-0.1
			l0.1-0.1c0.1,0,0.1,0,0.1,0.1c0,0.1,0,0.1-0.1,0.1H5.5c0,0,0,0,0,0.1v0.1v0.1c0,0-0.1,0,0,0.1c0,0,0.1,0,0.1,0.1v0.1v0.1V31
			c0,0.1,0.1,0,0.1,0.1c0,0.1,0,0.1,0,0.1c-0.1,0.1,0,0.1,0,0.2l0.1,0.1c0,0,0,0,0.1,0v0.1c0,0,0,0,0,0.1c0,0,0,0,0,0.1
			c0,0,0,0,0.1,0c0,0,0,0,0,0.1s0,0.1,0,0.2c0,0.1,0,0.1-0.1,0.1l0.1-0.1c0,0.1,0,0.1,0,0.2c0,0.1,0,0.1,0,0.1v0.1
			c0,0.1,0,0.1,0,0.2c0,0.1,0,0.1,0,0.1c0,0.1,0,0.1,0,0.1v0.1c0,0.1,0,0.1,0.1,0.2c0,0.1,0,0.1,0,0.2c0,0.1,0,0.1,0,0.1v0.1
			c0,0,0,0,0,0.1v0.1c0,0.1,0,0.1,0,0.1c0,0.1,0,0.1,0,0.1c0,0.1,0,0.1,0,0.1c0,0.1,0,0.1,0,0.1s0,0.1,0,0.1c0,0.1,0,0.1,0,0.2
			c0,0,0,0,0,0.1c0,0,0,0,0,0.1v0.1c0,0.1,0,0.1,0,0.2v0.1c0,0,0,0,0,0.1c0.1,0,0,0.2,0.1,0.1v0.1c0,0,0.1,0,0.1,0.1
			c0,0,0,0.1,0,0.1s0,0.1,0,0.3c0,0.1,0,0.1,0,0.2v0.1v0.1v0.1v0.1c0,0.1,0,0.1,0,0.2c0,0.1,0.1,0.3,0.1,0.4v0.1v0.1
			c0,0.1,0,0.1,0,0.1c0,0.1,0,0.1,0,0.1c0,0.1,0,0.1,0,0.2c0,0.1,0,0.1,0,0.1c0,0.1,0,0.1,0,0.2c0,0.1,0,0.1,0,0.1v0.1
			c0,0,0,0,0,0.1v0.1c0,0.1,0,0.1,0,0.2v0.1c0,0.1,0,0.1,0,0.1c0,0.1,0,0.1,0,0.2V38V38v0.1c0,0.1,0,0.1,0,0.1c0,0.1,0,0.1,0.1,0.2
			c0,0.1,0,0.1,0,0.2c0,0.1,0,0.1,0,0.1v0.1c0,0.1,0,0.1,0,0.1c0,0.1,0,0.1,0,0.1c0,0.1,0,0.1,0,0.1c0,0.1,0,0.1,0.1,0.1v0.1v0.1
			c0,0.1,0.1,0.1,0.1,0.1v0.1c0,0.1,0,0.1,0,0.1v0.1c0,0,0,0,0,0.1c0,0.1,0,0.1,0,0.1s0,0,0,0.1c0,0,0,0,0,0.1c0,0,0,0.1,0,0.1v0.1
			c0,0,0,0,0,0.1c0,0.1,0,0.1,0,0.1c0,0.1,0,0.1,0.1,0.1v0.1c0,0,0,0,0,0.1v0.1c0,0.1,0,0.1,0,0.1c-0.1,0,0,0,0,0.1v0.1v0.1V41V41
			c0,0,0,0,0,0.1c0,0.1,0,0.1,0,0.1c0,0.1,0,0.1,0,0.1c0,0,0,0,0,0.1v0.1v0.1v0.1c0,0.1,0,0.1,0,0.1c0,0,0,0,0.1,0.1v0.1v0.1V42v0.1
			v0.1v0.1c0,0,0,0,0,0.1v0.1v0.1c0,0,0,0,0,0.1c0,0,0,0,0,0.1c0,0.1,0,0.1,0.1,0.1v0.1v0.1v0.1c0,0,0,0.1,0,0.1V43c0,0,0,0,0,0.1
			c0,0,0,0,0,0.1v0.1v0.1c0,0.1,0,0.1,0,0.1s-0.1,0.1,0,0.1v0.1c0,0,0,0,0,0.1v0.1c0,0.1,0,0.1,0,0.1s0,0,0.1,0c0,0,0,0,0.1,0
			l0.1,0.1v0.1c0,0,0,0,0,0.1c0,0,0,0,0,0.1c0,0,0,0,0,0.1s0,0.1-0.1,0.1c0,0,0,0-0.1,0H6.5c0,0,0.1,0,0,0c0,0-0.1,0,0,0.1
			c0,0,0,0,0.1,0c0,0,0,0,0.1,0c0,0,0,0,0.1,0h0.1v0.1c0,0.1,0,0.1,0,0.1c0,0.1,0,0.1,0,0.1c0,0.1,0,0.1,0,0.1s0,0.1,0,0.1v0.1
			c0,0,0,0,0,0.1c0,0,0,0,0,0.1c0,0,0,0,0,0.1c0,0,0,0,0,0.1v0.1H6.6l0.1,0.1c0,0,0,0,0,0.1v0.1v0.1c0,0,0,0,0,0.1c0,0,0,0,0,0.1
			c0,0,0,0,0,0.1v0.1c0,0.1,0,0.1,0,0.1v0.1c0,0,0,0,0,0.1c0,0,0,0.1,0,0.1c0,0,0,0,0.1,0V46c0,0.1,0.1,0.1,0.1,0.1
			c0,0.1,0,0.1,0,0.1c0,0,0,0,0,0.1v0.1c0,0,0,0.1,0,0c0,0.1,0,0.1,0,0.1c0,0.1,0,0.1,0,0.1c0,0.1,0,0.1,0,0.1v0.1v0.1v0.1
			c0,0,0,0,0,0.1c0,0,0,0,0,0.1c0,0,0,0,0.1,0.1v0.1c0,0,0,0,0,0.1c0,0.1,0,0.1,0,0.2c0,0.1,0,0.1,0.1,0.2c0,0.1,0,0.1,0,0.1
			c0,0.1,0,0.1,0,0.1v0.1v0.1c0,0,0,0,0,0.1V48c0,0,0,0,0,0.1c0,0.1,0,0.1,0,0.1c0,0.1,0,0.1,0,0.1c-0.1,0,0,0,0,0.1v0.1v0.1v0.1
			c0,0,0,0,0,0.1c0,0.1,0,0.1,0.1,0.1v0.1v0.1c0,0,0,0.1,0,0.1c0,0,0,0,0,0.1c0,0,0,0,0,0.1v0.1v0.1c0,0,0,0,0,0.1s0,0.1,0,0.1v0.1
			c0,0,0,0,0,0.1v0.1v0.1c0,0,0,0,0,0.1c0,0,0,0.1,0,0.1v0.1V50V50c0,0.1,0,0.1,0.1,0.1c0,0,0,0,0,0.1c0,0,0,0,0,0.1
			c0,0.1,0,0.1,0.1,0.1c0,0,0,0,0,0.1v0.1c0,0,0,0,0,0.1v0.1c0,0.1,0.1,0.1,0.1,0.1c0,0,0,0,0.1,0l0.1,0.1c0,0,0,0,0.1,0.1V51
			c0,0,0,0,0.1,0.1l0.1,0.1h0.1c0,0,0,0,0.1,0.1c0.1,0,0.1,0,0.1,0c0.1,0,0.1,0.1,0.1,0.1h0.1H8c0.1,0,0.1,0,0.1,0h0.1h0.1
			c0.1,0,0.1,0,0.1,0h0.1h0.1c0.1,0,0.1,0,0.1-0.1l0.2-0.1c0,0,0,0,0-0.1h0.1c0,0,0,0,0.1-0.1H9h0.1c0,0,0,0,0.1,0l0.1-0.1l0.1-0.1
			c0,0,0,0,0.1-0.1c0,0,0,0,0.1-0.1v-0.1c0,0,0,0,0.1-0.1v-0.1c0,0,0,0,0-0.1c0,0,0,0,0-0.1v-0.1c0-0.1,0-0.1,0.1-0.1
			c0-0.1,0-0.1,0-0.1c0,0,0,0,0-0.1V50c0-0.1,0-0.1,0-0.1c0,0,0,0,0-0.1v-0.1c0-0.1,0-0.1,0-0.1v-0.1v-0.1c0-0.1,0-0.1,0.1-0.2
			c0-0.1,0,0,0.1-0.1c0,0,0,0-0.1,0v-0.1c0-0.1,0-0.1,0-0.1c0,0,0-0.1,0-0.1v-0.1v-0.1c0,0,0,0,0.1,0c0,0,0,0,0-0.1s0-0.1,0-0.1
			c0-0.1,0-0.1,0-0.1c0-0.1,0-0.1,0-0.1c0-0.1,0-0.1,0-0.1v-0.1c0-0.1,0-0.1,0-0.1v-0.1v-0.1v-0.1v-0.1c0-0.1,0-0.1,0-0.1
			c0-0.1,0-0.1,0-0.1c0,0,0,0,0-0.1c0,0,0,0,0-0.1c0,0,0,0,0-0.1v-0.1c0-0.1,0-0.1,0-0.1c0,0,0,0,0-0.1V47v-0.1v-0.1c0,0,0,0,0-0.1
			v-0.1c0,0,0,0,0-0.1v-0.1v-0.1v-0.1v-0.1c0,0,0,0,0-0.1c0-0.1,0-0.1,0-0.1c0-0.1,0-0.1,0-0.1c0-0.1,0-0.1,0-0.1c0-0.1,0-0.1,0-0.1
			v-0.1v-0.1c0-0.1,0-0.1,0-0.1c0,0,0,0,0-0.1c0-0.1,0-0.1,0-0.1c0-0.1,0-0.1,0-0.1c0,0,0,0,0-0.1v-0.1v-0.1c0,0,0,0,0-0.1
			c0,0,0,0,0-0.1v-0.1c-0.1,0,0-0.1,0-0.1c0-0.1,0-0.1,0-0.1v-0.1v-0.1v-0.1c0-0.1,0-0.1,0-0.1v-0.1c0,0,0,0,0-0.1
			c0-0.1,0-0.1,0-0.1c0-0.1,0-0.1,0-0.1s0-0.1,0-0.1v-0.1c0,0,0,0,0-0.1c0-0.1,0-0.1,0-0.1v-0.1v-0.1v-0.1c0-0.1,0-0.1,0-0.1v-0.1
			c0-0.1,0,0,0,0c0-0.1,0-0.1,0-0.1c0,0,0-0.1,0-0.1c0-0.1,0-0.1,0-0.1v-0.1c0,0,0,0,0-0.1c0,0,0,0,0-0.1c0,0,0,0,0-0.1
			c0-0.1,0-0.1,0-0.1c0-0.1,0-0.1,0-0.1c0-0.1,0-0.1,0-0.1c0-0.1,0-0.1,0-0.1V42v-0.1c0-0.1,0-0.1,0-0.1c0,0,0,0,0-0.1v-0.1
			c0-0.1,0-0.1,0-0.1s0-0.1,0-0.1c0-0.1,0.1-0.1,0-0.1c0,0,0,0,0-0.1v-0.1c0-0.1,0-0.1,0-0.1c0,0,0,0,0-0.1V41v-0.1v-0.1v-0.1v-0.1
			v-0.1v-0.1c0-0.1,0-0.1,0-0.1c0-0.1,0.1-0.1,0.1-0.1c0-0.1,0-0.1,0-0.1c0,0,0,0,0-0.1v-0.1c0,0,0,0,0-0.1v-0.1c0,0,0,0,0.1,0
			c0,0,0,0,0-0.1c0,0,0,0,0-0.1c0,0,0,0,0-0.1c0,0,0,0,0-0.1c0,0,0,0,0-0.1c0-0.1,0-0.1,0-0.1v-0.1c0,0,0-0.1,0.1-0.1h0.1H10
			l0.1-0.1c0,0,0,0,0-0.1c0,0,0,0,0-0.1c0,0,0,0,0-0.1c0,0,0,0,0-0.1H10c3.3,0.8,3.3,0.8,3.3,0.8v-0.1c0,0,0,0,0-0.1c0,0,0,0,0-0.1
			c0,0,0,0,0-0.1v-0.1c0,0,0,0,0-0.1c0,0,0-0.1,0.1-0.1c0,0,0-0.1,0-0.1s0-0.1,0-0.1c0-0.1,0-0.1,0-0.1c0-0.1,0-0.1,0-0.1
			c0-0.1,0-0.1,0-0.1c0-0.1,0-0.1,0-0.1c0,0,0,0,0-0.1v-0.1c0-0.1,0-0.1,0-0.1s0,0,0-0.1v-0.1c0-0.1,0.1,0,0.1-0.1v-0.1
			c0,0,0.1,0,0.1-0.1c0,0,0-0.1,0-0.1l0.1-0.1v-0.1v-0.1c0,0,0,0,0.1,0c0,0,0-0.1,0-0.1c0-0.1,0-0.1,0-0.1v-0.1c0,0,0,0,0-0.1v-0.1
			v-0.1h-0.1v-0.1v-0.1c0,0,0,0,0-0.1c-0.1,0,0,0-0.1,0c0,0-0.1,0-0.1-0.1V37c0,0,0,0,0-0.1c0,0,0,0,0-0.1c0,0,0,0,0-0.1
			s0-0.1,0-0.1s0,0,0-0.1c0,0,0,0,0-0.1v-0.1c0,0,0,0,0-0.1c0,0,0,0,0-0.1c0,0,0,0,0-0.1c0,0,0,0,0-0.1c0,0,0,0,0-0.1c0,0,0,0,0-0.1
			c0,0,0,0,0-0.1v-0.1c0,0,0,0,0-0.1v-0.1c0,0,0,0,0-0.1v-0.1v-0.1c0,0,0,0,0.1,0c0,0,0,0,0-0.1c0,0,0-0.1,0-0.1c0-0.1,0-0.1,0-0.1
			c0,0,0,0,0-0.1v-0.1c0,0,0,0,0-0.1h0.1l-0.1-0.1v-0.1c0,0,0,0,0-0.1V35c0,0,0,0-0.1-0.1c0,0,0,0,0-0.1c0,0,0,0,0-0.1
			c0-0.1,0-0.1,0.1-0.1c0,0,0,0,0-0.1c0.1-0.1,0.1-0.1,0-0.2c0,0,0-0.1,0-0.1v-0.1c0,0,0,0,0-0.1v-0.1l0.1-0.1L13.4,34v-0.1
			c0-0.1,0-0.1,0-0.1c0-0.1,0-0.1,0.1-0.2l0.1-0.1v-0.1v-0.1c0,0,0,0,0-0.1c0-0.1,0-0.1,0.1-0.1v-0.1c0,0,0,0,0-0.1v-0.1
			c0,0,0,0,0-0.1c0,0,0,0,0-0.1c0,0,0,0,0-0.1v-0.1v-0.1c0,0,0,0,0.1,0C14.3,33,14.4,33,14.4,32.9C14.4,33,14.4,32.9,14.4,32.9
			C14.4,32.9,14.4,32.9,14.4,32.9z"/>
		<path class="st1" d="M24.5,27.1C24.5,27.1,24.5,27.1,24.5,27.1C24.5,27.1,24.5,27.1,24.5,27.1c-0.1,0-0.2,0-0.3,0.1
			c-0.1,0-0.1,0.1-0.2,0.1c0,0-0.1,0-0.1,0.1H24c-0.1,0-0.1,0-0.1,0.1c0,0-0.1,0-0.1,0.1l-0.1,0.1c0,0-0.1,0-0.1,0.1c0,0,0,0-0.1,0
			c-0.1,0.1-0.2,0.1-0.3,0.2c-0.1,0.1-0.1,0.1-0.1,0.1c-0.1,0.1-0.1,0.1-0.1,0.1c0,0,0,0.1-0.1,0.1c0,0.1-0.1,0.1-0.1,0.1
			c0,0.1-0.1,0.1-0.1,0.2c0,0.1-0.1,0.1-0.1,0.2v0.1c-0.1,0.1-0.1,0.1-0.1,0.2c0,0.1,0,0.1-0.1,0.2c0,0.1-0.1,0.3-0.1,0.4
			s0,0.2,0,0.3c0,0.1,0,0.1,0,0.2V30V30c0.1,0,0,0.1,0,0.1c0,0.1,0,0.1,0,0.1c0,0.1,0,0.2,0,0.3c0,0.1,0,0.3,0,0.4
			c0,0.1,0,0.1,0,0.1v0.1c0,0.1,0,0.1,0,0.2c0,0.1,0,0.1,0,0.2s0,0.1,0,0.2c0,0.1,0,0.1,0,0.2c0,0.1,0,0.1,0,0.2s0,0.1,0,0.2
			c0,0,0,0.1,0,0.1c0,0-0.1,0.1,0,0.1c-0.1,0,0,0.1,0,0.1c0,0.1,0,0.1,0,0.1v0.1c0,0,0,0,0,0.1V33L22.7,33c0,0.1,0,0.1-0.1,0.2
			c-0.1,0-0.1,0.2,0,0.2v0.1c0,0-0.1,0.1,0,0.1c0,0-0.1,0.3,0,0.3v0.1l-0.1,0.1c0,0.1,0,0.1,0.1,0.1c0,0.1-0.1,0.1,0,0.2
			c0,0,0,0,0,0.1c0,0,0,0,0,0.1c0,0,0,0,0,0.1v0.1c0,0,0,0.1-0.1,0.1v0.1c0,0.1,0,0.1,0,0.1c0,0.1,0,0.1,0,0.1c0,0,0,0.1-0.1,0.1
			c0,0.1,0,0.1,0,0.1v0.1c0,0.1,0,0.1,0,0.2c0,0.1,0,0.1,0,0.2c0,0.1,0,0,0,0.1c0,0,0,0.1,0,0.1c0,0.1,0,0.1,0,0.2
			c0,0.1,0,0.1,0,0.2c0,0.1-0.1,0.1-0.1,0.1c0,0.1,0,0.1,0,0.1v0.1c0,0.1,0.1,0.1,0.1,0.1c0,0.1,0,0.1,0,0.1c0,0.1,0,0.1,0,0.2
			c0,0.1,0,0.1,0,0.2c0,0.1,0,0.1,0,0.2c0,0.1,0,0.1,0,0.2c0,0.1,0,0.1,0,0.2v0.1v0.1v0.1v0.1c0,0,0,0,0.1,0v0.1V38
			c0,0.1,0.1,0.1,0.1,0.1s0,0,0.1,0.1c0,0,0,0,0.1,0.1c0,0,0,0,0.1,0c0,0,0,0,0,0.1c0.1,0,0.1,0.1,0.1,0.1c0.1,0,0.1,0,0.1,0.1
			c0-0.1,0.1,0,0.1,0c0.1,0,0.1,0,0.2,0c0,0,0,0,0.1,0h0.1c0.1,0,0.1-0.1,0.1-0.1s0.1,0,0.1-0.1h0.1c0-0.1,0.1-0.1,0.2-0.1
			c0.1,0,0.1-0.1,0.1-0.1l0.1-0.1c0,0,0,0,0.1,0c0,0,0,0,0.1,0h0.1c0,0,0.1,0,0.1-0.1c0,0,0.1,0,0.1-0.1c0,0,0.1,0,0.1-0.1l0.1-0.1
			h0.1v-0.1c0,0,0-0.1,0.1-0.1c0.1-0.1,0.1-0.1,0.2-0.2c0,0,0-0.1,0.1-0.1l0.1-0.1c0.1-0.1,0.1-0.1,0.1-0.1c0-0.1,0.1-0.1,0.1-0.1
			c0-0.1,0.1-0.1,0.1-0.1l0.1-0.1v-0.1v-0.1c0-0.1,0-0.1,0-0.1c0-0.1,0-0.1,0-0.2c0-0.1,0-0.1,0-0.2c0-0.1,0-0.1,0-0.2v-0.1v-0.1
			c0-0.1,0-0.1,0-0.2c0.1,0,0.1-0.1,0.1-0.1c0-0.1,0-0.1,0-0.1c0,0-0.1-0.1,0-0.1c0-0.1,0,0,0.1-0.1c0-0.1,0-0.1,0-0.2
			c0-0.1,0-0.1,0-0.2c0-0.1,0-0.1,0-0.3c0-0.1,0-0.1,0-0.1v-0.1c0,0-0.1-0.1,0-0.1v-0.1c0,0,0-0.1,0-0.1c0-0.1,0-0.1,0-0.1v-0.1
			c0-0.1,0-0.1,0-0.2c0-0.1,0-0.1,0-0.2c0-0.1,0-0.1,0-0.1s0-0.1,0-0.1c0.1,0,0-0.1,0-0.1c0-0.1,0-0.1,0-0.2c0-0.1,0.1-0.1,0.1-0.1
			v-0.1v-0.1c0-0.1,0-0.1,0-0.2c0-0.1,0-0.1,0-0.1s0,0-0.1,0c0,0,0,0,0-0.1c0,0-0.1,0,0-0.1v-0.1c0-0.1,0-0.1,0-0.1
			c-0.1,0,0-0.1,0-0.1s0,0,0-0.1c0,0,0,0,0-0.1c0.1,0,0-0.1,0-0.1s0.1,0,0.1-0.1c0,0,0-0.1,0.1-0.1c0,0,0,0,0.1,0c0,0,0,0,0-0.1
			v-0.1v-0.1v-0.1c0,0,0-0.1,0.1-0.1v-0.1c0-0.1,0.1-0.1,0.1-0.1c0-0.1,0-0.1,0-0.1s0-0.1,0-0.1v-0.1c0-0.1,0.1,0,0.1-0.1
			c0,0-0.1,0-0.1-0.1v-0.1c0-0.1,0.1-0.1,0.1-0.1c0-0.1-0.1-0.1-0.1-0.1c0-0.1,0-0.1,0-0.1c0-0.1,0-0.1,0.1-0.1c0,0,0-0.1,0.1-0.1
			v-0.1l0.1-0.1c0.1-0.1,0.1-0.1,0.1-0.1c0.1-0.1,0.1-0.1,0.1-0.1c0.1-0.1,0.1-0.1,0.1-0.1c0.1-0.1,0.1-0.1,0.1-0.1l0.1-0.1
			c0,0,0,0,0-0.1h0.1c0,0,0.1,0,0.1-0.1l0.1-0.1c0,0,0-0.1,0.1-0.1c0,0,0,0,0.1,0c0,0,0,0,0.1-0.1H27c0.1,0,0.1-0.1,0.1-0.1l0.1-0.1
			c0.1,0,0.1-0.1,0.1-0.1c0.1-0.1,0.1-0.1,0.1-0.1l0.1-0.1c0,0,0,0,0.1,0l0.1-0.1c0,0,0.1,0,0.1-0.1c0.1,0,0.1-0.1,0.1-0.1
			c0.1,0,0.1-0.1,0.1-0.1h0.1c0.1-0.1,0.1-0.2,0.2-0.2c0-0.1,0.1-0.1,0.1-0.1c0,0,0-0.1,0.1-0.1c0,0,0.1,0,0.1-0.1v-0.1
			c0,0,0-0.1,0.1-0.1c0-0.1,0.1-0.1,0.1-0.2c-0.1,0,0-0.1,0-0.2c0-0.1,0-0.1,0-0.1c0-0.1,0-0.1,0-0.1l-0.1-0.1v-0.1
			c0,0,0-0.1-0.1-0.1c0,0,0-0.1-0.1-0.1c0,0,0,0,0-0.1c0,0,0,0,0-0.1c0-0.1,0-0.1,0-0.1l-0.1-0.1c0,0,0-0.1-0.1-0.1c0,0,0,0,0-0.1
			c0,0,0,0,0-0.1L28,26.7c-0.1-0.1-0.1-0.1-0.1-0.1l-0.1-0.1h-0.1c-0.1,0-0.1-0.1-0.2-0.1h-0.1c-0.1,0-0.1,0-0.1,0
			c-0.1,0-0.1,0-0.1,0h-0.1c-0.1,0-0.1,0-0.1,0s0,0-0.1,0h-0.1c0,0-0.1-0.1-0.1,0c0,0,0,0,0,0.1H27v-0.1c0,0,0,0-0.1,0
			c0,0,0,0,0.1,0.1l-0.1,0.1c0,0,0,0-0.1,0h-0.1c0,0-0.1,0-0.1,0.1c-0.1,0-0.1,0.1-0.1,0.1c-0.1,0-0.1,0-0.1,0c0,0,0,0-0.1,0
			s-0.1,0-0.1,0.1h0.1c0,0,0,0,0,0.1c-0.1,0-0.1,0-0.1,0s-0.1,0.1-0.1,0.1c-0.1,0-0.1,0.1-0.1,0.1c-0.1,0-0.1,0.1-0.2,0.1
			S25.7,27,25.7,27h-0.1c-0.1,0-0.1,0-0.1,0c-0.1,0-0.1,0-0.1,0.1c-0.1,0-0.2,0-0.3,0c-0.1,0-0.1,0-0.1,0
			C24.6,27.1,24.6,27.1,24.5,27.1C24.5,27.2,24.5,27.1,24.5,27.1z"/>
		<path class="st1" d="M21.5,24c0.1-0.1,0-0.1,0-0.2v-0.1c-0.1,0-0.1-0.1-0.1-0.1c0-0.1,0-0.1-0.1-0.1v-0.1v-0.1c0,0,0,0,0-0.1
			c0,0,0,0,0-0.1c0,0,0,0-0.1-0.1v-0.1v-0.1c0-0.1,0-0.1-0.1-0.1h-0.1c0,0,0,0-0.1,0h-0.1c-0.1,0-0.1,0-0.1,0h-0.1h-0.1h-0.1
			c0,0,0,0,0,0.1h-0.1c-0.1,0-0.1,0.1-0.1,0.1l-0.1,0.1c-0.1,0-0.1,0-0.1,0c-0.1,0-0.1,0.1-0.1,0.1s-0.1,0-0.1,0.1l-0.1,0.1
			c-0.1,0.1-0.2,0.1-0.3,0.2c-0.1,0.1-0.1,0.1-0.1,0.1c-0.1,0.1-0.1,0-0.1,0.1c0,0.1-0.1,0.1-0.1,0.1c-0.1,0-0.1,0.1-0.1,0.1
			c-0.1,0.1-0.1,0.1-0.1,0.2c0,0,0,0.1-0.1,0.1l-0.1,0.1v0.1c0,0.1,0,0.1,0,0.1s0,0.1-0.1,0.1L19,24.6c0,0,0,0,0,0.1v0.1
			c0,0.1-0.1,0.1-0.1,0.1v0.1c0,0,0,0,0,0.1c0,0.1,0,0.1,0,0.1c0,0.1,0,0.1,0,0.1c0,0,0,0,0,0.1v0.1c0,0,0,0,0,0.1c0,0,0,0,0.1,0.1
			v0.1c0,0.1,0.1,0.1,0.1,0.1v0.1v0.1h0.1c0,0.1,0,0.1,0.1,0.1l0.1,0.1c0,0,0,0,0.1,0h0.1h0.1c0,0,0,0,0,0.1c0,0,0.1-0.1,0.1,0h0.1
			h0.1c0,0,0,0,0.1,0s0.1,0.1,0.1,0.1h0.1h0.1c0,0,0,0,0-0.1L20,26h0.1c0-0.1,0.1,0,0.1-0.1c0,0,0.1,0,0.1-0.1
			c-0.1-0.1,0.1,0,0.1-0.1c0,0,0-0.1,0.1-0.1h0.1c0,0,0-0.1,0.1-0.1c0,0,0.1,0,0.1-0.1h0.1c0,0,0.1,0,0.1-0.1h0.1c0,0,0-0.1,0.1-0.1
			l0.1-0.1l0.1-0.1v-0.1c0,0,0-0.1,0.1-0.1c0,0,0,0,0.1-0.1c0.1,0,0.1-0.1,0.1-0.1c0,0,0,0,0-0.1V25c0-0.1,0.1-0.1,0.1-0.1
			c0.1,0,0.1,0,0.1-0.1l0.1-0.1c0,0,0-0.1,0.1-0.1c0,0,0,0,0-0.1v-0.1c0,0,0,0,0.1,0c0,0,0,0,0-0.1c0-0.1,0.1-0.1,0.1-0.1
			c0-0.1,0-0.1,0-0.1c0-0.1,0,0,0-0.1c0,0,0,0,0-0.1c0,0,0,0,0.1,0c0,0-0.1,0-0.1-0.1c0,0,0-0.1,0.1-0.1
			C21.5,24.1,21.5,24.1,21.5,24C21.5,24,21.5,24,21.5,24z"/>
		<path class="st1" d="M39.8,29.5c0,0.1,0,0.1,0.1,0.1c0.1,0.1,0.1,0.1,0.1,0.1l0.1,0.1c0.1,0,0.1,0,0.2,0.1c0.1,0,0.2,0,0.2,0
			c0.1,0,0.1,0,0.2,0s0.3-0.1,0.3-0.1c0.1-0.1,0.3-0.1,0.3-0.2c0.1-0.1,0.1-0.1,0.2-0.1c0,0,0,0,0.1,0c0,0,0,0,0-0.1h0.1l0.1-0.1
			h0.1c0,0,0,0,0-0.1h0.1c0.1,0,0.1-0.1,0.1-0.1c0.1-0.1,0.1-0.1,0.1-0.1c0.1-0.1,0.1-0.1,0.2-0.2c0-0.1,0.1-0.1,0.1-0.1
			c0-0.1,0-0.1,0-0.1c0-0.1,0.1,0,0.1-0.1c0.1,0,0.1-0.1,0.1-0.1c0-0.1,0-0.1,0-0.1c-0.1,0-0.1,0,0,0c0-0.1,0-0.1,0-0.1v-0.1
			c0,0,0-0.1,0.1-0.1c0,0,0,0,0-0.1v-0.1v-0.1l-0.1-0.1c0,0,0-0.1,0-0.1c0-0.1,0-0.1,0-0.2s0-0.1,0-0.2v-0.1c0,0,0,0,0-0.1
			c0,0-0.1,0,0-0.1c0-0.1,0-0.1,0-0.2c0,0,0-0.1,0-0.1c0-0.1,0-0.3,0-0.3c0-0.1,0-0.1,0-0.2v-0.1c0,0,0,0,0-0.1c0,0,0,0,0-0.1V26V26
			v-0.1l0.1,0.1c0,0,0,0,0.1,0v-0.1v-0.1v-0.1h-0.1v-0.1v-0.1h-0.1c0,0,0,0,0-0.1v-0.1c0,0,0,0,0.1,0c0,0,0,0,0,0.1h0.1v-0.1
			c0,0,0,0,0-0.1c0,0,0,0,0-0.1c0,0,0,0-0.1,0c0,0-0.1,0-0.1-0.1c0,0,0,0,0-0.1v-0.1c0,0,0,0,0-0.1v-0.1V25v-0.1c0,0,0,0,0.1,0
			c0,0,0,0,0-0.1c0-0.1-0.1-0.1,0-0.1l0.1-0.1c0,0,0,0,0.1,0c0,0,0,0,0-0.1c0,0,0,0,0-0.1c0,0,0,0,0-0.1l0.1-0.1c0,0,0,0,0.1,0
			c0,0,0,0,0-0.1c0,0-0.1,0-0.1-0.1c0-0.1,0-0.1,0-0.1c0,0,0,0,0-0.1V24c0,0,0,0-0.1-0.1v-0.1v-0.1h0.1l-0.1-0.1c0,0,0,0,0-0.1v-0.1
			c0,0,0.1,0,0.1-0.1v-0.1c0,0,0,0.1-0.1,0c0,0,0,0,0-0.1c0,0,0,0,0-0.1v-0.1v-0.1c0,0,0,0,0.1,0v-0.1v-0.1c0,0,0,0,0-0.1
			c0,0,0,0-0.1,0V23c0,0,0.1,0,0.1-0.1c0,0,0,0-0.1-0.1c0,0,0,0,0-0.1v-0.1c0-0.1,0-0.1,0.1-0.1v-0.1c0,0,0,0,0-0.1c0,0,0,0,0-0.1
			v-0.1c0-0.1,0-0.1,0-0.1v-0.1v-0.1V22v-0.1v-0.1c0,0,0,0,0-0.1c0,0,0,0,0-0.1v-0.1v-0.1v-0.1c0,0,0,0,0-0.1h0.1h-0.1v-0.1
			c0,0,0,0,0-0.1c0,0,0.1,0,0,0c0,0,0,0,0-0.1v-0.1c0,0,0,0-0.1,0c0,0,0,0,0.1,0c0,0,0,0,0.1,0v-0.1v-0.1V21c0,0,0,0-0.1,0l0.1-0.1
			c0,0,0,0,0-0.1v-0.1c0,0,0,0-0.1-0.1c0,0,0,0,0.1,0v-0.1c0,0,0,0,0-0.1c0,0,0,0,0-0.1v-0.1c0,0,0,0,0-0.1v-0.1v-0.1c0,0,0,0,0-0.1
			v-0.1v-0.1v-0.1c0,0,0,0,0-0.1c0,0,0,0-0.1,0c0,0,0,0,0-0.1v-0.1c0-0.1,0,0,0,0v-0.1c0,0,0,0,0-0.1c0,0,0,0,0-0.1c0,0,0,0-0.1,0
			h-0.1c0,0,0,0-0.1,0h-0.1c0,0-0.1,0-0.1,0c0,0,0,0-0.1,0h-0.1h-0.1c0,0,0,0.1,0,0c0,0,0,0,0-0.1c0,0,0,0-0.1,0c0,0,0,0-0.1,0H42
			h-0.1h-0.1h-0.1h-0.1h-0.1l-0.1,0.1c0,0-0.1,0.1-0.1,0.1l-0.1,0.1c0,0,0,0-0.1,0c0,0,0,0,0,0.1c0,0-0.1,0-0.1,0.1c0,0,0,0-0.1,0
			l-0.1,0.1c0,0-0.1,0.1-0.1,0.1c0,0,0,0.1-0.1,0.1l-0.1,0.1v0.1l-0.1,0.1c0,0,0,0,0,0.1l-0.1,0.1v0.1v0.1v0.1c0,0,0,0,0,0.1
			l-0.1,0.1v0.1v0.1c0,0,0,0,0,0.1v0.1v0.1l-0.1,0.1v0.1v0.1v0.1v0.1v0.1V22c0,0,0,0,0,0.1v0.1v0.1v0.1c0,0,0,0.1,0,0c0,0,0,0,0,0.1
			v0.1v0.1v0.1v0.1v0.1v0.1v0.1V23V23c0,0,0,0,0,0.1v0.1c0,0,0,0,0,0.1c0,0,0,0,0,0.1c0,0,0,0,0,0.1c0,0,0,0-0.1,0c0,0,0,0,0,0.1
			c0,0,0,0,0,0.1c0,0.1,0,0.1,0,0.1v0.1v0.1v0.1V24c0,0,0,0.1,0.1,0.1c0,0,0,0,0,0.1c0,0.1,0,0.1,0,0.1c0,0.1,0,0.1,0,0.1v0.1
			c0,0,0,0,0,0.1c0,0,0,0-0.1,0c0,0,0,0,0,0.1c0,0,0,0-0.1,0v0.2v0.1c0,0,0,0,0,0.1c0,0,0,0,0,0.1c0,0.1,0,0.1,0,0.1
			c0,0,0,0.1,0,0.2c0,0,0,0,0,0.1v0.1v0.1v0.1v0.2c0,0,0,0.1,0,0.1c0,0,0,0.1,0,0.1v0.2v0.1c0,0,0,0,0,0.1v0.1v0.2v0.1
			c0,0,0,0,0,0.1v0.1c0,0-0.1,0.1,0,0.1c0,0,0,0,0,0.1v0.1c0,0.1,0,0.1,0,0.1c0,0.1,0,0.3-0.1,0.3c0,0.1-0.1,0.1,0,0.2
			c0,0.1,0,0.1,0,0.2c0,0.1,0,0.1,0,0.2c0,0.1,0,0.1,0,0.2c0,0.1,0,0.1,0,0.1v0.1v0.3c0,0.1,0,0.1,0,0.2c0,0.1,0,0.1,0,0.1
			c0,0.1,0,0.1,0.1,0.2C39.7,29.4,39.7,29.5,39.8,29.5z"/>
		<path class="st1" d="M60.4,23.5C60.4,23.5,60.3,23.5,60.4,23.5C60.3,23.4,60.4,23.4,60.4,23.5c0-0.1,0-0.1,0-0.1
			c0-0.1,0-0.1,0.1-0.1c0,0,0,0,0-0.1c0,0,0,0,0-0.1c0-0.1,0,0,0,0s-0.1,0-0.1-0.1l0.1-0.1c0-0.1-0.1,0-0.1-0.1c0,0,0,0,0-0.1v-0.1
			c-0.1,0,0-0.1-0.1-0.1c0,0-0.1,0-0.1-0.1c0-0.1-0.1,0-0.1-0.1c0-0.1,0-0.1,0-0.1l-0.1-0.1c0-0.1,0-0.1-0.1-0.1c0,0,0,0-0.1-0.1
			c0,0,0,0-0.1,0v-0.1c0,0,0-0.1-0.1-0.1l-0.1-0.1c0,0,0,0,0,0.1c0,0-0.1,0-0.1-0.1c0,0,0-0.1-0.1-0.1c0,0.1-0.1,0-0.1,0
			c0,0.1,0,0.1,0.1,0.1c-0.1,0-0.1,0-0.1,0s-0.1,0-0.1,0c-0.1,0-0.1,0-0.1,0s-0.1,0-0.1,0c-0.1,0-0.1,0-0.1,0s-0.1,0-0.1,0
			s-0.2,0-0.3,0h-0.1h-0.1c0,0,0,0-0.1,0c0,0,0,0-0.1,0h-0.1c-0.1,0-0.1,0-0.2,0.1c-0.1,0-0.1,0.1-0.2,0.1h-0.1
			c-0.1,0.1-0.2,0.1-0.3,0.1c-0.1,0-0.1,0.1-0.1,0.1s0,0.1-0.1,0.1c0,0,0,0-0.1,0s-0.1,0.1-0.1,0.1c0,0.1-0.1,0.1-0.1,0.1
			s-0.1,0.1-0.1,0.1c-0.1,0-0.1,0.1-0.1,0.1c-0.1,0.1-0.1,0.1-0.2,0.1h-0.1c0,0,0,0-0.1,0.1h-0.1c0,0.1-0.1,0.1-0.1,0.1s0,0-0.1,0
			c0.2,0.1,0.1,0.1,0.1,0.1s0,0-0.1,0.1h-0.1c0,0-0.1,0-0.1,0.1h-0.1c0,0-0.1,0-0.1,0.1c0,0,0,0-0.1,0c-0.1,0-0.1,0-0.1,0.1
			c0,0-0.1,0-0.1,0.1c-0.1,0-0.1,0.1-0.1,0.1c-0.1,0-0.1,0.1-0.1,0.1h-0.1c0,0.1-0.1,0.1-0.1,0.1c-0.1,0-0.1,0.1-0.2,0.1
			c-0.1,0.1-0.3,0.1-0.3,0.1c-0.1,0-0.1,0-0.1,0c-0.1,0-0.1-0.1-0.1,0c-0.1,0-0.1-0.1-0.1-0.1c-0.1-0.1,0-0.1-0.1-0.1
			c0,0-0.1-0.1-0.1,0c0,0-0.1,0-0.1-0.1c0,0,0,0,0-0.1s-0.1,0-0.1,0s-0.1-0.1,0-0.1v-0.1c-0.1,0,0-0.1-0.1-0.1c0,0.1-0.1,0.1-0.1,0
			c-0.1,0,0,0-0.1-0.1H54c0,0-0.1-0.1,0-0.1s0.1-0.1,0.1-0.1v-0.1c0,0,0,0-0.1,0H54V23c-0.1,0,0.1-0.1,0.1-0.1H54
			c-0.1,0-0.1,0-0.1,0s0,0,0-0.1c0-0.1,0,0,0-0.1v-0.1c0-0.1,0-0.1-0.1-0.1v-0.1c0.1,0,0.1,0,0.1,0v-0.1c0-0.1-0.1,0-0.1,0
			c-0.1,0-0.1-0.1-0.1-0.1h0.1c0.1-0.1-0.1,0-0.1,0c-0.1,0,0-0.1,0-0.1h0.1c0,0,0,0,0-0.1c0,0,0,0,0-0.1c0,0,0-0.1-0.1-0.1
			c-0.1,0,0,0.1,0,0.1h-0.1c0,0,0,0,0-0.1v-0.1V22c0.1,0,0.1,0.1,0.1,0c0-0.1,0-0.1,0-0.1v-0.1c0,0,0-0.1-0.1-0.1c0-0.1,0-0.1,0-0.1
			v-0.1c0,0,0-0.1,0.1-0.1v0.1c0,0,0,0,0-0.1c0,0,0,0,0-0.1c0,0,0,0,0-0.1c0,0,0,0,0-0.1c0,0,0,0,0-0.1v-0.1c0-0.1,0.1,0,0.1-0.1
			c0-0.1,0.1-0.1,0-0.1c0,0-0.1,0-0.1-0.1c0,0,0,0,0-0.1v-0.1v-0.1c0,0,0,0,0-0.1c0,0,0.1,0,0.1-0.1s0-0.1-0.1-0.1l-0.1-0.1v-0.1
			v-0.1c0,0,0,0,0-0.1h0.1c0.1,0,0-0.1,0-0.1c0-0.1,0-0.1-0.1-0.1s-0.1,0-0.1-0.1c0-0.1,0-0.1,0-0.1c0-0.1,0-0.1,0-0.2
			c0-0.1,0-0.1,0-0.2c0-0.1,0-0.1,0-0.3c0-0.1,0-0.2,0-0.3c0,0,0.1-0.1,0-0.1c0,0,0,0,0-0.1v-0.1h0.1h0.1c0,0-0.1,0-0.1-0.1
			c0,0,0,0,0-0.1h-0.1c0,0,0-0.1,0-0.1c0-0.1,0-0.1,0.1-0.1s0.1,0,0.1-0.1c0-0.1,0-0.1-0.1-0.1s-0.1,0-0.1-0.1c0-0.1,0-0.1,0-0.2
			h0.1c0,0,0,0,0.1,0c0,0,0,0.1,0.1,0c0,0,0,0,0-0.1c-0.1,0-0.1,0-0.1-0.1c0-0.1,0-0.1-0.1-0.1c0-0.1-0.1-0.1,0-0.1c0,0,0,0,0-0.1
			v-0.1c0,0,0.1,0,0.1-0.1h-0.1c0-0.1,0.1,0,0.1,0v-0.1c0,0-0.1,0-0.1-0.1c0,0,0-0.1,0.1-0.1l0.1,0.1c0.1,0,0-0.1,0-0.1
			c-0.1,0.1,0-0.1-0.1-0.1c0-0.1,0-0.1,0-0.2c0-0.1,0-0.1,0-0.1s0,0,0-0.1s-0.1,0.1-0.1,0.1c0,0-0.1,0.1-0.1,0v-0.1c0,0,0,0,0.1-0.1
			V17c-0.1,0-0.1-0.1-0.1-0.1c0-0.1,0-0.1,0-0.1c0-0.1,0-0.1,0-0.2c0,0,0-0.1,0.1-0.1c0,0,0,0,0.1,0c0,0,0,0,0.1,0h0.1
			c0,0,0,0,0-0.1c0,0,0,0-0.1,0s0,0-0.1,0v-0.1c0-0.1,0-0.1,0-0.1c0,0,0.1,0,0.1-0.1c0,0,0.1,0,0-0.1h-0.1c-0.1,0,0-0.1-0.1-0.1
			L53.6,16c0-0.1,0-0.1,0-0.2h0.1c0-0.1-0.1-0.1-0.1-0.1h-0.1v-0.1c0-0.1-0.1-0.1-0.1-0.2c0,0,0.1-0.1,0-0.1c0,0,0,0.1-0.1,0
			c0-0.1,0-0.1,0-0.1c0-0.1,0-0.1,0-0.1l-0.1-0.1c0,0,0,0,0-0.1V15c0-0.1-0.1,0-0.1,0.1c-0.1,0-0.1-0.1-0.1-0.1l-0.1-0.1l-0.1-0.1
			c-0.1-0.1-0.3-0.1-0.4-0.1c-0.1,0-0.1,0-0.2-0.1c-0.1,0-0.1,0-0.2,0s-0.1,0-0.2,0c-0.1,0-0.1,0-0.2,0.1h-0.1c0,0,0,0-0.1,0h-0.1
			c-0.1,0-0.1,0-0.1,0c-0.1,0-0.1,0-0.1,0.1c-0.1,0-0.1,0-0.2,0.1l-0.1,0.1c-0.1,0-0.1,0.1-0.1,0.1S51,15,50.9,15
			c-0.1,0.1-0.2,0.1-0.3,0.2c-0.1,0-0.1,0.1-0.1,0.1c-0.1,0-0.1,0.1-0.1,0.1s0,0.1-0.1,0.1l-0.1,0.1c-0.1,0.1-0.1,0.1-0.1,0.1
			c0,0.1-0.1,0.1-0.1,0.1l-0.1,0.1c0,0-0.1,0-0.1,0.1c-0.1,0.1-0.2,0.1-0.3,0.3c0,0,0,0.1-0.1,0.1h-0.1c0,0.1-0.1,0.1-0.1,0.1
			c-0.1,0.1-0.1,0.1-0.1,0.1c0,0-0.1,0-0.1,0.1c-0.1,0-0.1,0-0.1,0.1c0,0.1-0.1,0.1-0.1,0.1c-0.1,0-0.1,0.1-0.1,0.1h-0.1l-0.1,0.1
			c0,0-0.1,0-0.1,0.1c-0.1,0-0.1,0-0.1,0c-0.1,0-0.1,0.1-0.2,0h-0.1c-0.1,0-0.1,0-0.1,0c-0.1,0-0.1,0-0.1,0c-0.1,0-0.1,0-0.1-0.1
			c0-0.1,0-0.1-0.1-0.1s-0.1,0-0.1,0c-0.1,0-0.1,0-0.2,0c0,0-0.1,0-0.1,0.1l-0.1,0.1c-0.1,0.1-0.1,0-0.2,0c-0.1,0-0.1,0-0.2,0
			c-0.1,0-0.3,0-0.4,0.1c-0.1,0-0.1,0.1-0.2,0.1h-0.1h-0.1c-0.1,0-0.1,0.1-0.2,0.1c-0.1,0-0.1,0.1-0.2,0.1L46,17.2c0,0,0,0-0.1,0
			h-0.1c0,0,0,0.1-0.1,0.1s-0.1,0.1-0.1,0.2c-0.1,0.1-0.1,0.1-0.1,0.1c0,0.1-0.1,0.1-0.1,0.1c-0.1,0.1-0.1,0.1-0.1,0.1
			c0,0.1-0.1,0.1-0.1,0.2c0,0.1-0.1,0.1-0.1,0.2c-0.1,0.1-0.1,0.3-0.1,0.4c0,0.1,0,0.1,0,0.2c0,0.1,0,0.1,0,0.2c0,0.1,0,0.3-0.1,0.4
			c0,0.1,0,0.3,0,0.3c0,0.1,0,0.2,0,0.3c0,0.1,0,0.2,0,0.3c0,0.1,0,0.2,0,0.3c0,0,0,0,0,0.1c0,0,0,0,0,0.1v0.1v0.1
			c0,0.1,0,0.2,0,0.3c0,0.1,0,0.2,0,0.3c0,0.1,0,0.2,0,0.3v0.1c0,0.1,0,0.1,0,0.1c0,0.1,0,0.1,0,0.1c0,0.1,0,0.1,0,0.1
			c0,0.1,0,0.1,0,0.1c-0.1,0,0,0.1,0,0.1c-0.1,0.1,0,0.1,0,0.1v0.1c0,0.1-0.1,0.1,0,0.1c0,0,0,0,0,0.1c0,0,0,0,0,0.1
			c0,0.1,0,0.1,0,0.2c0,0.1,0,0.1,0,0.1c0,0.1,0,0.2,0,0.3c0,0.1,0,0.2,0,0.3v0.1c0,0.1,0,0,0,0.1c0,0.1,0,0.1,0,0.2
			c0,0.1,0,0.1,0,0.2V24c0,0,0,0.1,0,0.1c0,0.1,0,0.1,0,0.1c0,0.1,0,0.1,0,0.1c0,0.1,0,0.1,0,0.1v0.1c0.1,0,0,0.1,0,0.1
			c0,0.1,0,0.1,0,0.1s0,0.2,0,0.3c0,0.1,0,0.1,0,0.1c0,0.1,0,0.1,0,0.1v0.1v0.1c0,0.1,0,0.1,0,0.1c0,0.1,0,0.1,0,0.1v0.1
			c0,0.1,0,0.1,0,0.1s0,0,0,0.1c0,0.1,0,0.1,0,0.1c0,0.1,0,0.1,0,0.1c0,0.1,0,0.1,0,0.1c0,0.1,0,0.2,0.1,0.3c0,0,0,0.1,0.1,0.1
			c0,0.1,0,0.1,0.1,0.1c0.1,0.1,0.1,0.1,0.2,0.2c0.1,0.1,0.1,0.1,0.2,0.1c0.1,0,0.1,0,0.1,0h0.1h0.1c0.1,0,0.1,0.1,0.3,0
			c0.1,0,0.2,0,0.3-0.1c0.1,0,0.2-0.1,0.3-0.1c0.1,0,0.1,0,0.1-0.1c0,0,0.1-0.1,0.1-0.1s0.1-0.1,0.1-0.1H47c0,0,0.1,0,0.1-0.1
			c0.1,0,0.1-0.1,0.1-0.1s0.1,0,0.1-0.1l0.1-0.1c0,0,0,0,0.1,0h0.1c0,0,0,0,0-0.1c0,0,0,0,0.1-0.1l0.1-0.1c0,0.1,0.1,0,0.1,0
			c-0.1-0.1,0.1-0.1,0.1-0.1v-0.1c0,0,0,0,0-0.1c0,0,0,0,0-0.1c0,0,0,0,0-0.1c0,0,0,0,0.1,0s0,0,0-0.1c0,0,0,0,0-0.1v-0.1v-0.1
			c0.1,0,0-0.1,0.1-0.1l0.1-0.1c0,0,0.1,0,0.1-0.1c0-0.1,0,0,0-0.1c0-0.1,0.1,0,0.1-0.1c0-0.1,0-0.1,0-0.1c0-0.1-0.1-0.1-0.1-0.1
			c-0.1-0.1,0-0.1,0-0.1c0-0.1-0.1-0.1-0.1-0.1c0.1,0,0.1,0.1,0.1,0.1c0.1,0,0-0.1,0-0.1v-0.1c0,0,0,0,0-0.1c0-0.1,0.1-0.1,0.1-0.1
			v-0.1c0,0,0,0,0-0.1c0,0,0,0,0-0.1c0-0.1,0.1-0.1,0.1-0.1c0,0,0-0.1-0.1-0.1c0,0-0.1,0-0.1-0.1c0,0-0.1,0-0.1-0.1
			c0-0.1,0.1,0,0.1,0V24c0,0,0,0-0.1,0s-0.1-0.1-0.1-0.1c0-0.1-0.1-0.1,0-0.1c0,0,0.1,0,0.1-0.1c0-0.1,0-0.1-0.1-0.1
			c0-0.1,0.1-0.1,0.1-0.1c0.1,0,0.1-0.1,0.1-0.1c0,0,0,0-0.1,0s-0.1,0.1-0.1,0.1h-0.1l0.1-0.1c0,0-0.1,0-0.1-0.1v-0.1
			c0-0.1,0-0.1,0-0.1c0-0.1,0-0.1,0-0.2c0-0.1,0-0.1,0-0.2c0-0.1,0-0.1,0-0.1s0,0,0-0.1v-0.1c0-0.1,0-0.1,0.1-0.1H48
			c0-0.1-0.1-0.1,0-0.1c0,0,0,0-0.1-0.1c0,0,0,0-0.1,0c0-0.1,0.1-0.1,0-0.1c-0.1,0,0.1-0.1,0.1-0.1c0-0.1,0,0,0-0.1v-0.1
			c0,0-0.1-0.1,0-0.1v0.1H48c0,0,0.1,0,0.1-0.1c0.1,0,0.1-0.1,0-0.1H48V22v-0.1c0,0-0.1,0-0.1-0.1c0,0,0.1,0,0.1-0.1v-0.1
			c0,0,0,0-0.1,0s-0.1-0.1-0.1-0.1c0,0-0.1,0-0.1-0.1v-0.1v-0.1h0.1c0,0,0.1,0,0,0c0-0.1-0.1-0.1-0.1-0.1s0.2,0,0.1-0.1
			c-0.1,0,0,0,0,0h0.1c0.1,0,0.1-0.1,0.1-0.1C48,21,48,21,48,21v-0.1l-0.1-0.1v-0.1c0-0.1,0-0.1-0.1-0.1v-0.1v-0.1
			c0-0.1,0.1-0.1,0.1-0.1c0.1,0,0.1,0.1,0.1,0L48,20.4c0,0-0.1,0-0.1,0c0.1,0,0.1,0,0.1-0.1c0-0.1-0.1,0-0.1-0.1c0,0,0.1,0,0.1-0.1
			c0,0,0.1,0,0.1-0.1s-0.1,0-0.1,0c-0.1,0-0.1,0-0.1-0.1c0,0,0,0,0.1,0c0-0.1-0.1-0.1,0-0.1c0-0.1,0.1,0,0.1,0.1h0.1
			c0.1,0,0,0,0.1-0.1l0.1-0.1c0-0.1-0.1,0-0.1-0.1c0-0.1,0-0.1,0.1-0.1c0,0,0.1,0,0.1-0.1c0-0.1,0-0.1,0-0.1v-0.1c0-0.1,0-0.1,0-0.1
			v-0.1c0-0.1-0.1,0,0-0.1c0,0,0,0,0-0.1h0.1c0,0,0,0,0-0.1v-0.1v-0.1c0-0.1,0.1-0.1,0-0.2c0-0.1,0-0.1,0-0.1s0.1,0,0.1-0.1
			c0.1,0,0.1-0.1,0.1-0.1c0.1-0.1,0.1-0.1,0.1-0.2l-0.1-0.1h0.1c0,0,0,0,0,0.1c0,0.1,0.1,0,0.1,0c0-0.1,0.1-0.1,0.1-0.1
			c0.1-0.1,0.1-0.1,0.1-0.1l0.1-0.1c0,0,0.1,0,0.1-0.1C49,18.1,49,18,49,18c0.1,0,0.1-0.1,0.1-0.1s0,0,0-0.1c0-0.1,0-0.1,0-0.1
			s0-0.1,0.1-0.1c0,0,0.1,0,0.1-0.1c0.1,0,0.1,0,0.1,0c0.1,0,0.1-0.1,0.1-0.1l0.1-0.1c0.1,0,0.1,0,0.1,0l0.1-0.1
			c0.1,0,0.1,0,0.1-0.1c0.1-0.1,0.1-0.1,0.1-0.1c0.1,0,0.1,0,0.1,0c0.1,0,0.1-0.1,0.1-0.1h0.1c0,0,0,0,0.1,0c0.1,0,0.1,0,0.2,0
			c0.1,0,0.3,0.1,0.3,0.2l0.1,0.1v0.1h0.1c0,0,0,0,0,0.1c0,0.1,0,0.1,0,0.1c0,0.1,0,0.3,0,0.4c0,0.1,0,0.3,0,0.4c0,0.1,0,0.1,0,0.2
			c0,0.1,0,0.1,0,0.1c0,0.1,0,0.1,0,0.2c0,0.1,0,0.1,0,0.2c0,0.1,0,0.3,0,0.4v0.1c0,0.1,0,0.1,0,0.2V20c0,0,0,0-0.1,0c0,0,0,0,0,0.1
			c0,0.1,0,0.1,0,0.1c0,0,0,0,0.1,0v0.1c0,0.1,0,0.1-0.1,0.1c0,0-0.1,0.1,0,0.1v0.1c0,0.1,0,0.1,0,0.1v0.1c0,0.1,0,0.1-0.1,0.2v0.1
			V21c0,0.1,0,0.2-0.1,0.3c0,0.1,0,0.1,0.1,0.1c0,0.1,0.1,0.1,0.1,0.2c0,0.1,0,0.1-0.1,0.2c0,0.1,0,0.1,0,0.2c0,0.1,0,0.1,0,0.2
			c0,0.1,0,0.1,0,0.1c0,0,0,0,0,0.1c0,0,0,0,0,0.1c0,0.1,0,0.1,0,0.1c0,0.1-0.1,0.1,0,0.1c0,0.1,0.1,0.1,0.1,0.1c0,0.1,0,0.1,0,0.1
			c0,0.1,0,0.1,0,0.1c0,0.1,0,0.1,0,0.1c0,0.1,0,0.1,0,0.2c0,0.1,0,0.3,0,0.4c0,0.1,0,0.1,0,0.2c0,0.1,0,0.1,0.1,0.2
			c0,0,0,0.1,0,0.1c0,0.1,0,0.1,0.1,0.1l0.1,0.1v0.1c0,0,0,0.1,0.1,0.1l0.1,0.1c0,0.1,0.1,0.1,0.1,0.1l0.1,0.1l0.1,0.1
			c0.1,0.1,0.1,0.1,0.2,0.1c0.1,0,0.1,0,0.1,0.1c0,0.1,0,0.1-0.1,0.1c0,0-0.1,0-0.1,0.1c-0.1,0-0.1,0.1-0.1,0.1h-0.1
			c-0.1,0.1-0.1,0.1-0.2,0.1c-0.1,0-0.1,0.1-0.1,0.1s-0.1,0.1-0.1,0.1c0,0-0.1,0-0.1,0.1l-0.1,0.1c0,0-0.1,0-0.1,0.1l-0.1,0.1
			c-0.1,0.1-0.1,0.1-0.2,0.1c-0.1,0.1-0.2,0.1-0.3,0.1c-0.3,0.1-0.4,0.3-0.7,0.4c-0.1,0-0.1,0.1-0.2,0.1s-0.1,0.1-0.1,0.1
			s-0.1,0-0.1,0.1c-0.1,0.1-0.2,0.1-0.3,0.2c-0.1,0-0.1,0.1-0.1,0.1h-0.1c-0.1,0-0.1,0-0.1,0.1c-0.1,0.1-0.1,0.1-0.2,0.1
			c0,0,0,0-0.1,0s-0.1,0.1-0.1,0.1l-0.1,0.1c0,0-0.1,0-0.1,0.1c-0.1,0.1-0.2,0.1-0.3,0.2c-0.1,0.1-0.3,0.1-0.3,0.2l-0.1,0.1
			c0,0,0,0-0.1,0c0,0-0.1,0-0.1,0.1c0,0-0.1,0-0.1,0.1c-0.1,0.1-0.3,0.1-0.3,0.2c-0.1,0.1-0.3,0.1-0.3,0.2c-0.1,0.1-0.1,0.1-0.2,0.1
			c-0.1,0-0.1,0.1-0.1,0.1c-0.1,0.1-0.2,0.1-0.3,0.1c-0.1,0-0.1,0.1-0.2,0.1c-0.1,0-0.1,0.1-0.1,0.1l-0.1,0.1h-0.1
			c-0.1,0.1-0.1,0.1-0.1,0.1c-0.1,0.1-0.2,0.1-0.3,0.2c-0.1,0-0.1,0.1-0.1,0.1c0,0-0.1,0-0.1,0.1c0,0-0.1,0-0.1,0.1
			c0,0-0.1,0-0.1,0.1c-0.1,0-0.1,0-0.1,0.1c0,0-0.1,0-0.1,0.1l-0.1,0.1c-0.1,0-0.1,0-0.1,0s0,0.1-0.1,0.1c0,0,0,0-0.1,0
			c0,0,0,0-0.1,0c0,0,0,0-0.1,0c0,0,0,0,0,0.1c0,0,0,0-0.1,0s-0.1,0.1-0.1,0.1s-0.1,0-0.1,0.1c0,0-0.1,0-0.1,0.1l-0.1,0.1l-0.1-0.1
			c0,0-0.1,0-0.1,0.1c0,0,0,0,0,0.1h-0.1c-0.1,0.1-0.1,0.1-0.1,0.1c-0.1,0-0.1,0-0.1,0s0,0.1-0.1,0.1C43.1,30,43.1,30,43,30
			S42.9,30,42.9,30c-0.1,0-0.1,0.1-0.2,0.1s-0.1,0.1-0.2,0.1c-0.1,0.1-0.1,0.1-0.1,0.1l-0.1,0.1c0,0,0,0-0.1,0.1
			c-0.1,0.1-0.1,0.1-0.1,0.1C42,30.5,42,30.5,42,30.6c-0.1,0-0.1,0.1-0.1,0.1c-0.1,0-0.1,0-0.1,0.1c-0.1,0.1-0.1,0.1-0.1,0.1
			c-0.1,0.1-0.1,0.1-0.1,0.1c-0.1,0-0.1,0.1-0.1,0.1c0,0-0.1,0.1-0.1,0.1s-0.1,0-0.1,0l-0.1,0.1l-0.1,0.1c-0.1,0.1-0.3,0.2-0.4,0.3
			c-0.1,0.1-0.3,0.2-0.4,0.3c-0.3,0.2-0.5,0.3-0.8,0.4c-0.1,0.1-0.3,0.2-0.4,0.3l-0.1,0.1h-0.1c-0.1,0-0.1,0-0.1,0.1
			c0,0-0.1,0.1-0.1,0.1s-0.1,0.1-0.1,0.1c-0.1,0.1-0.1,0.1-0.2,0.1l-0.1,0.1c0,0-0.1,0-0.1,0.1C38.1,33,38,33,38,33s-0.1,0-0.1,0.1
			c-0.1,0,0,0-0.1,0.1c0,0-0.1,0-0.1,0.1c0,0-0.1,0-0.1,0.1c0,0,0,0,0,0.1h-0.1c0,0,0,0.1-0.1,0.1c0,0,0,0-0.1,0c0,0,0,0,0,0.1
			l-0.1,0.1c0,0-0.1,0.1-0.2,0.1c0-0.1,0-0.1,0-0.1s0.1,0,0-0.1c0-0.1,0-0.1,0-0.1v-0.1c0-0.1,0,0,0-0.1c0-0.1,0.1-0.1,0-0.2
			c0-0.1-0.1-0.1,0-0.2c0-0.1,0-0.1,0-0.2c0-0.1,0-0.1,0-0.2c0-0.1,0-0.1,0-0.2v-0.1c0,0,0,0,0-0.1c0,0,0,0,0-0.1c0-0.1,0,0,0.1-0.1
			v-0.1c0,0,0,0,0-0.1c0,0,0,0,0-0.1c0-0.1-0.1-0.1-0.1-0.1c0-0.1,0.1-0.1,0.1-0.1c-0.1,0,0-0.1,0-0.1c-0.1,0-0.1-0.1,0-0.2h0.1
			l-0.1-0.1c0-0.1,0-0.1,0-0.1c0-0.1,0.1-0.1,0.1-0.1c0-0.1,0-0.1,0-0.1c0-0.1,0-0.1,0-0.1v-0.1v-0.1c0-0.1-0.1,0-0.1-0.1
			c0-0.1,0-0.1,0-0.1c0-0.1,0-0.1,0-0.1v-0.1c0,0,0.1,0,0-0.1c0,0,0,0-0.1,0v-0.1c0-0.1,0-0.1,0-0.1c0-0.1,0-0.2,0-0.3
			c0,0,0-0.1,0-0.1c0,0,0-0.1,0.1-0.1c0,0,0.1,0,0.1-0.1h-0.1v-0.1c0-0.1,0-0.1,0-0.2c0-0.1,0-0.1,0-0.2c0-0.1,0.1-0.1,0.1-0.2
			c-0.1,0,0-0.1,0-0.1c0-0.1,0-0.1,0-0.1c0-0.1,0-0.2,0-0.3c0-0.1,0-0.2,0-0.3c0-0.1,0-0.1,0-0.1v-0.1V28c-0.1,0,0-0.1,0-0.1
			c0-0.1,0-0.1,0-0.2c0-0.1,0-0.1,0-0.2c0-0.1,0-0.1,0-0.1c0-0.2,0.1-0.4,0.1-0.6c0-0.2,0-0.4,0-0.5c0-0.1,0-0.1,0-0.1
			c0-0.1,0-0.1,0-0.1s0-0.2,0-0.3c0-0.1,0-0.1,0-0.1c0,0,0,0,0-0.1c0,0-0.1,0-0.1-0.1c0-0.1,0.1-0.1,0.1-0.1c0-0.1,0-0.1,0-0.1
			c0-0.1,0-0.1,0-0.1c0-0.1,0-0.1,0-0.1c0-0.1,0-0.1,0-0.3c0,0,0.2-0.1,0.1-0.1c0,0.1,0,0.1-0.1,0c0,0,0-0.1,0-0.1c0,0,0-0.1,0-0.1
			c0,0,0,0,0.1,0c0.1-0.1,0-0.1-0.1-0.1v-0.1c0.1,0,0,0,0.1,0v-0.1c0,0-0.1,0,0-0.1c0,0,0,0,0.1,0c0,0,0,0,0-0.1c0-0.1,0-0.1,0-0.1
			v-0.1c0-0.1,0-0.1,0-0.1c0-0.1,0-0.1,0-0.1s-0.1-0.1,0-0.1c0.1-0.1,0.1-0.1,0.1-0.1l-0.1-0.1c0-0.1,0-0.1,0.1-0.1v-0.1
			c0,0,0-0.1,0-0.1c0-0.1,0-0.2,0-0.2c0.1,0,0.1,0,0.1-0.1V23c0-0.1,0-0.1,0-0.1s0-0.1,0-0.1h0.1c0,0,0.1-0.1,0-0.1l-0.1-0.1v-0.1
			v-0.1c0,0,0,0,0.1-0.1c-0.1,0,0-0.1,0-0.1c0-0.1,0-0.1,0-0.1c0-0.1,0-0.1,0-0.1c0-0.1,0-0.1,0-0.1V22c0,0,0.1-0.1,0-0.1
			c0,0-0.1,0-0.1-0.1s0.1,0,0.1,0h-0.1c-0.1,0,0,0,0-0.1c0-0.1,0-0.1-0.1-0.1c-0.1,0-0.1,0-0.1-0.1l-0.1-0.1c0-0.1-0.1-0.1-0.1-0.1
			c-0.1-0.1-0.2-0.1-0.3-0.2c-0.1,0-0.1-0.1-0.2-0.1s-0.1,0-0.3,0c-0.1,0-0.3,0-0.4,0.1c-0.1,0-0.1,0.1-0.1,0.1c0,0-0.1,0-0.1,0.1
			H36c0,0,0,0,0,0.1c0,0-0.1,0.1-0.1,0c0,0,0,0-0.1,0c-0.1,0-0.1,0.1-0.1,0.1c-0.1,0-0.1,0.1-0.1,0.1s-0.1,0.1-0.1,0.1
			c0,0.1-0.1,0.1-0.1,0.1l-0.1,0.1v0.1c-0.1,0.1-0.1,0.1-0.1,0.2v0.1v0.1c0,0.1,0,0.1,0,0.2s-0.1,0.1-0.1,0.2c0,0.1,0,0.1,0,0.1v0.1
			c0,0.1,0,0.1,0,0.2s0,0.2,0,0.3c0,0.1,0,0.1,0,0.1c0,0.1,0,0.1,0,0.1c0,0.1,0,0.1,0,0.2c0,0,0,0,0,0.1c0,0,0,0,0,0.1
			c0,0.1,0,0.1,0,0.1c0,0.1,0,0.1,0,0.2v0.1v0.1c0,0,0,0,0,0.1c0,0,0,0,0,0.1c0,0,0,0.1,0,0.1c0,0.1,0,0.1,0,0.2c0,0.1,0,0.1,0,0.2
			s0,0.1,0,0.2c0,0.1,0,0.1,0,0.1v0.1c0,0.1,0,0.1,0,0.3c0,0.1,0,0.1,0,0.1s0,0.1,0,0.1c0,0.1,0,0.1,0,0.1c0,0.1,0,0.1,0,0.1
			c0,0.1,0,0.1,0,0.2c0,0.1,0,0.1,0,0.2c0,0.1,0,0.1,0,0.1c0,0.1,0,0.1,0,0.1c0,0.1-0.1-0.1-0.1,0.1v0.1c0,0.1,0,0,0.1,0
			c0,0.1,0,0.1,0,0.2c0,0,0,0,0,0.1c0,0,0,0-0.1,0V27c0,0.1,0,0.2,0,0.3c0,0.1,0,0.1,0,0.2c0,0.1,0,0.1,0,0.2c0,0.1,0,0.1,0,0.1
			c0,0,0,0,0,0.1c0,0.1,0,0.1,0,0.2c0,0.1,0,0.1-0.1,0.2c0,0.1,0,0.1,0,0.1c0,0.1,0,0.1,0,0.2c0,0,0,0.1,0,0.2c0,0.1,0,0.1,0,0.2
			c0,0.1-0.1,0.2,0,0.3c0,0,0,0.1,0,0.1c0,0,0,0.1-0.1,0.1c0,0.1,0,0.1,0,0.2c0,0.1,0,0.1-0.1,0.2c0,0.1,0,0.3-0.1,0.4v0.1
			c0,0.1,0,0.1,0,0.1c0,0.1,0,0.1-0.1,0.2c-0.1,0.3-0.1,0.4-0.3,0.6c0,0.1-0.1,0.1-0.1,0.1c-0.1,0.1-0.1,0.1-0.2,0.2
			c0,0.1-0.1,0.1-0.1,0.1s0,0.1-0.1,0.1c0,0,0,0-0.1,0l-0.1,0.1l-0.1,0.1h-0.1c0,0-0.1,0-0.1,0.1c-0.1,0-0.1,0-0.1,0l-0.1,0.1
			C33.4,32,33.3,32,33.1,32c-0.1,0-0.1,0-0.2,0h-0.1c0,0-0.1,0-0.1-0.1c-0.1,0-0.1,0-0.1-0.1c-0.1,0-0.1-0.1-0.1-0.1
			c-0.1-0.1-0.1-0.1-0.1-0.1c-0.1-0.1-0.1-0.1-0.1-0.2c0-0.1,0-0.1,0-0.1l-0.1-0.1c-0.1-0.1-0.1-0.3-0.1-0.4s-0.1-0.3,0-0.4v-0.1
			c0-0.1-0.1-0.1-0.1-0.1v-0.1c0-0.1,0-0.1-0.1-0.1c0,0,0-0.1,0-0.1c0,0,0-0.1,0-0.1l0.1-0.1c0-0.1,0.1-0.1,0.1-0.2
			c0-0.1,0-0.1,0-0.2c0-0.1,0-0.3,0.1-0.4c0-0.1,0-0.1,0-0.2s0-0.1,0-0.1c0-0.1,0-0.1,0-0.1c0-0.1,0-0.1,0-0.1c0,0,0,0,0.1-0.1v-0.1
			c0.1,0,0.1-0.1,0.1-0.2c0-0.1,0-0.1-0.1-0.2c-0.1,0-0.1-0.1-0.1-0.1s0,0,0-0.1c0,0,0,0,0-0.1c0-0.1,0-0.1,0-0.1s0-0.1,0-0.1
			c0.1,0,0-0.3,0-0.3v-0.1c0-0.1,0.1-0.1,0.1-0.1c0,0,0-0.1,0-0.1c0-0.1,0-0.1,0-0.1c0-0.1,0-0.1,0-0.1s0-0.1,0.1-0.1
			c0-0.1,0.1-0.1,0.1-0.2c0-0.1,0-0.1,0.1-0.2c0-0.1,0.1-0.1,0.1-0.2c0.1-0.1,0.1-0.1,0.1-0.2c0-0.1,0.1-0.1,0.1-0.3
			c0-0.1,0-0.2,0.1-0.2c0,0,0-0.1,0.1-0.1v-0.1c0.1,0,0.1-0.1,0.1-0.1c0-0.1,0.1-0.1,0.1-0.1c0,0,0.1-0.1,0.1-0.1c0-0.1,0-0.1,0-0.1
			c-0.1,0,0-0.1,0.1-0.1c0.1,0,0.1-0.1,0.1-0.1c0.1-0.1,0.1-0.1,0.1-0.1c0,0,0,0,0.1,0c0-0.1,0-0.1,0.1-0.2c0-0.1,0.1-0.2,0.1-0.1
			c0,0,0.1,0,0.1-0.1c0,0,0-0.1,0.1-0.1c0-0.1,0.1,0,0.1-0.1c0,0,0.1-0.1,0.1-0.1v-0.1V24H34V24v-0.1l0.1-0.1l0.1-0.1v-0.1
			c0,0,0-0.1,0.1-0.1v-0.1c0-0.1,0.1-0.1,0.1-0.2c0-0.1,0-0.1-0.1-0.1c0,0,0,0,0-0.1c0-0.1,0-0.1,0.1-0.1c0-0.1,0-0.1,0-0.2v-0.1
			c0-0.1,0-0.1,0-0.1v-0.1c0,0,0-0.1-0.1-0.1l-0.1-0.1c0,0,0-0.1-0.1-0.1H34H34h-0.1h-0.1h-0.1h-0.1c-0.1,0-0.1,0-0.1,0
			c-0.1,0-0.1,0-0.1,0h-0.1c-0.1,0,0,0-0.1,0s-0.1,0.1-0.2,0.1c-0.1,0-0.1,0-0.1,0.1H33c-0.1,0-0.1,0-0.1,0.1h-0.1
			c0,0-0.1,0-0.1,0.1c-0.1,0-0.1,0-0.1,0.1l-0.1,0.1L32.6,23L32.5,23c0,0,0,0-0.1,0c0,0,0,0-0.1,0c0,0-0.1,0.1-0.1,0
			c-0.1,0,0,0-0.1,0h-0.1l-0.1,0.1c-0.1,0.1-0.2,0.1-0.3,0.2c-0.1,0.1-0.2,0.1-0.3,0.2c-0.1,0.1-0.1,0.1-0.1,0.1l-0.1,0.1
			c0,0,0,0.1-0.1,0.1c0,0,0,0-0.1,0c0,0,0,0,0,0.1c0,0,0,0.1-0.1,0.1c0,0.1-0.1,0.1-0.1,0.1V24c0,0,0,0-0.1,0c0,0,0,0.1-0.1,0.1
			s-0.1,0.1-0.1,0.2l-0.1,0.1c0,0,0,0.1-0.1,0.1c0,0,0,0,0,0.1c0,0,0,0-0.1,0.1l-0.1,0.1c0,0.1-0.1,0.1-0.1,0.1s0,0.1-0.1,0.1v0.1
			l-0.1,0.1l-0.1,0.1c0,0,0,0,0,0.1c0,0,0,0.1-0.1,0.1c0,0,0,0.1-0.1,0.1c0,0,0,0.1-0.1,0.1v0.1c0,0,0,0.1-0.1,0.1
			c0,0.1-0.1,0.1-0.1,0.2v0.1c0,0,0,0.1-0.1,0.1V26L30,26v0.1c0,0.1,0,0.1-0.1,0.1c0,0.1,0,0.1-0.1,0.1c0,0.1-0.1,0.1-0.1,0.1
			c0,0.1,0,0.1-0.1,0.2c0,0.1,0,0.1-0.1,0.2c0,0.1,0,0.1-0.1,0.2c0,0.1-0.1,0.2-0.1,0.3c0,0.1,0,0.1-0.1,0.1v0.1c0,0,0.1,0.1,0,0.1
			c0,0.1,0,0.1-0.1,0.2c0,0,0,0.1,0,0.1c0,0.1,0,0.1,0,0.1c0,0.1-0.1,0.1-0.1,0.1v0.1v0.1c0,0,0,0,0,0.1v0.1c0,0,0,0,0,0.1
			c0,0.1,0,0.1,0,0.2c0,0.1,0,0.3,0,0.4c0,0.1,0,0.3,0,0.4c0,0.1,0,0.1,0,0.1c0,0.1,0,0.1-0.1,0.1c0,0.1,0,0.1-0.1,0.1
			c0,0.1,0,0.1,0,0.1c0,0.1,0,0.1,0,0.1c0,0.1,0,0.1,0,0.1c0.1,0,0,0.2,0,0.3c0,0.1,0.1,0.1,0.1,0.1c0,0.1,0,0.1,0,0.1
			c0,0.2,0,0.3,0,0.5c0,0.1,0,0.3,0,0.4c0,0.1,0,0.1,0,0.1c0,0.1,0,0.2,0,0.3c0,0.1,0,0.3,0,0.4c0,0.1,0,0.1,0,0.2
			c0.1,0.1,0,0.1,0,0.1c0,0.1,0,0.1,0,0.1c0,0.1,0,0.1,0,0.1c0.1,0.1,0.1,0.2,0.1,0.3v0.1c0,0,0,0.1,0.1,0.1c0,0.1,0,0.1,0.1,0.1
			c0,0.1,0.1,0.1,0.1,0.1s0,0.1,0.1,0.1c0,0.1,0.1,0.1,0.1,0.1c0,0.1,0,0.1,0,0.1l0.1,0.1c0.1,0.1,0.1,0.1,0.2,0.2
			c0.1,0.1,0.1,0.1,0.1,0.1v0.1c0.1,0.1,0.2,0.1,0.3,0.2c0.1,0,0.1,0.1,0.2,0.1c0,0,0.1,0,0.1,0.1c0,0,0,0.1,0.1,0.1c0,0,0,0,0-0.1
			c0.1,0,0.1,0,0.1,0s0.1,0,0.1,0c0.1,0,0.1,0,0.1,0c0.1,0,0.1,0.1,0.1,0.1s0.1,0,0.1,0c0,0,0.1,0,0.1,0c0.1,0,0.1,0,0.1,0
			c0.1,0,0.1,0,0.1,0c0,0,0,0,0.1,0c0.1-0.1,0.1,0,0.2,0h0.1c0.1,0,0.1,0,0.1,0c0.1,0,0.2,0,0.3,0c0.1,0,0.1-0.1,0.3-0.1h0.1v-0.1
			c0.1,0,0.1,0,0.1,0h0.1h0.1h0.1c0,0,0.1,0.1,0.1,0c0,0-0.1,0-0.1-0.1c0-0.1,0.1,0,0.1-0.1c0.1,0,0.1-0.1,0.1-0.1
			c0,0,0.1,0.1,0.1,0c0,0,0,0,0-0.1h0.1c0,0,0-0.1,0.1-0.1s0.1,0,0.2,0c0.1,0,0.1,0,0.1-0.1c0.1,0,0.1,0,0.1-0.1h0.1c0,0,0,0,0-0.1
			c0.1-0.1,0.1,0,0.1,0c0,0,0,0,0-0.1H34l0.1-0.1c0.1,0,0.1,0,0.1,0s0-0.1,0.1-0.1c0,0,0.1,0,0.1-0.1l0.1-0.1c0.1,0,0.1,0,0.1-0.1
			l0.1-0.1h0.1h0.1c0.1,0,0.1,0.1,0.1,0.2c0,0.1,0,0.1,0,0.3v0.1c0,0,0,0,0,0.1c0,0.1,0,0.1,0,0.1c0,0,0,0,0,0.1v0.1
			c0,0.1,0,0.1,0,0.1c0,0,0,0.1,0.1,0.1c0,0.1,0,0-0.1,0.1v0.1c0,0,0,0,0,0.1V35v0.1c0,0.1,0,0,0,0.1c0,0,0,0,0,0.1
			c0,0.1,0,0.1,0,0.1v0.1c0,0,0.1,0.1,0,0.1c0,0,0,0,0,0.1c-0.1,0-0.1,0-0.1,0.1l-0.1,0.1l-0.1,0.1c0,0-0.1,0-0.1,0.1
			c-0.1,0.1-0.1,0.1-0.1,0.1c-0.1,0.1-0.1,0.1-0.2,0.1c-0.1,0-0.1,0.1-0.1,0.1C34,36.2,34,36.2,34,36.2c0,0,0,0-0.1,0
			c-0.2,0.1-0.3,0.2-0.4,0.3c-0.1,0.1-0.1,0.1-0.2,0.1l-0.1,0.1l-0.1,0.1c0,0,0,0,0,0.1h-0.1L33,36.9c-0.1,0.1-0.2,0.2-0.3,0.3
			c-0.1,0.1-0.2,0.2-0.4,0.3c-0.1,0.1-0.3,0.3-0.4,0.3c0,0.1,0,0.1-0.1,0.1l-0.1,0.1C31.7,38,31.6,38,31.6,38s-0.1,0-0.1,0.1
			c0,0,0,0.1-0.1,0.1c-0.1,0-0.1,0-0.1,0.1l-0.1,0.1l-0.1,0.1h-0.1c0,0.1-0.1,0.1-0.1,0.1c-0.1,0-0.1,0.1-0.1,0.1s-0.1,0.1-0.1,0.1
			c-0.1,0-0.1,0.1-0.1,0.1c0,0.1-0.1,0.1-0.1,0.1l-0.1,0.1c0,0-0.1,0-0.1,0.1l-0.1,0.1l-0.1,0.1c-0.1,0-0.1,0-0.1,0.1
			s-0.1,0.1-0.1,0.1c-0.1,0.1-0.1,0.1-0.2,0.2c-0.1,0.1-0.1,0.1-0.2,0.1h-0.1c0,0,0,0.1-0.1,0.1c0,0-0.1,0-0.1,0.1
			c0,0,0,0.1-0.1,0.1c-0.1,0-0.1,0.1-0.1,0.1c-0.1,0-0.1,0.1-0.1,0.1c0,0.1-0.1,0-0.1,0.1c0,0,0,0.1-0.1,0.1c0,0-0.1,0-0.1,0.1
			c0,0,0,0,0,0.1c0,0,0,0-0.1,0c-0.1,0-0.1,0.1-0.1,0.1l-0.1,0.1c0,0-0.1,0-0.1,0.1c-0.1,0-0.1,0.1-0.2,0.1c0,0,0,0-0.1,0.1
			c0,0-0.1,0-0.1,0.1c0,0,0,0.1-0.1,0.1c0,0,0,0.1-0.1,0.1c0,0-0.1,0-0.1,0.1c-0.1,0-0.1,0.1-0.1,0.1c-0.1,0-0.1,0.1-0.1,0.1
			c0,0-0.1,0-0.1,0.1L27.8,41c-0.1,0-0.1,0.1-0.2,0.1l-0.1,0.1c-0.1,0-0.1,0.1-0.1,0.1l-0.1,0.1l-0.1,0.1c0,0-0.1,0-0.1,0.1
			c-0.1,0-0.1,0.1-0.1,0.1c-0.1,0.1-0.1,0.1-0.2,0.1c-0.1,0.1-0.1,0.1-0.1,0.1c-0.1,0.1-0.1,0.1-0.2,0.1c-0.1,0.1-0.1,0.1-0.1,0.1
			c-0.1,0.1-0.1,0.1-0.1,0.1c-0.1,0.1-0.1,0.1-0.2,0.1c-0.1,0.1-0.3,0.2-0.3,0.3c-0.1,0.1-0.2,0.2-0.3,0.3c-0.1,0.1-0.1,0.1-0.2,0.1
			l-0.1,0.1c-0.1,0-0.1,0-0.1,0.1c-0.1,0.1-0.2,0.2-0.3,0.3c-0.1,0.1-0.2,0.1-0.3,0.2c-0.1,0.1-0.1,0.1-0.2,0.1
			c0.1,0.1-0.2,0.1-0.1,0.2c-0.1,0,0-0.1-0.1,0c0,0.1-0.1,0.2-0.2,0.2c-0.7,0.3-0.8,0.3-0.8,0.4c-0.1,0.1-0.1,0.1-0.2,0.1l-0.1,0.1
			l-0.1,0.1c-0.1,0.1-0.1,0.1-0.1,0.1c-0.1,0.1-0.3,0.2-0.3,0.3c-0.1,0-0.1,0.1-0.1,0.1c0,0-0.1,0.1-0.1,0.1c-0.1,0-0.1,0-0.1,0.1
			c0,0-0.1,0-0.1,0.1c-0.1,0.1-0.1,0.1-0.1,0.1c-0.1,0.1-0.2,0.2-0.3,0.3c-0.1,0.1-0.3,0.3-0.4,0.3c0,0-0.1,0-0.1,0.1
			c0,0,0,0.1-0.1,0.1s-0.1,0-0.1,0.1l-0.1,0.1c-0.1,0.1-0.1,0.1-0.2,0.1c0,0-0.1,0-0.1,0.1c-0.1,0-0.1,0.1-0.2,0.1l-0.1,0.1
			c-0.1,0-0.1,0.1-0.2,0.1c0,0-0.1,0.1-0.1,0.1L20.3,47c-0.1,0.1-0.1,0.1-0.2,0.1c-0.1,0.1-0.1,0.1-0.2,0.1
			c-0.1,0.1-0.2,0.2-0.3,0.3c-0.1,0.1-0.1,0.1-0.1,0.1c-0.1,0.1-0.1,0.1-0.1,0.1c0,0-0.1,0.1-0.1,0.1v0.1h-0.1
			c-0.1,0-0.1,0.1-0.2,0.1c0,0.1-0.1,0.1-0.1,0.1l-0.1,0.1l-0.1,0.1c0,0-0.1,0-0.1,0.1c0,0,0,0.1-0.1,0.1c0,0,0,0-0.1,0
			c0,0,0,0-0.1,0.1c-0.1,0.2-0.2,0.3-0.2,0.3c-0.1,0.1-0.2,0.2-0.3,0.3c-0.1,0.1-0.1,0.1-0.1,0.1c-0.1,0.1-0.1,0.1-0.2,0.2
			c-0.1,0.1-0.2,0.2-0.3,0.3c-0.1,0.1-0.3,0.2-0.3,0.3L17,50l-0.1,0.1c-0.1,0.1-0.1,0.1-0.1,0.1c-0.1,0.1-0.1,0.1-0.1,0.1
			c-0.1,0.1-0.1,0.1-0.1,0.1c-0.1,0.1-0.2,0.2-0.3,0.3C16.1,50.8,16,50.9,16,51c-0.1,0.1-0.3,0.3-0.3,0.3c-0.1,0.1-0.1,0.1-0.2,0.2
			c-0.1,0.1-0.1,0.1-0.1,0.2c-0.1,0.1-0.2,0.3-0.3,0.3c-0.1,0.1-0.1,0.2-0.2,0.3c-0.1,0.1-0.1,0.1-0.1,0.2c-0.1,0.1-0.1,0.1-0.1,0.2
			c-0.1,0.1-0.1,0.1-0.1,0.2c0.1,0,0,0.1,0,0.1c0,0.1-0.1,0.2-0.1,0.2c0,0.1,0.1,0.1,0.1,0.3c0,0.1,0,0.1,0,0.1c0,0.1,0,0.1,0.1,0.1
			c0,0.1,0,0.1,0.1,0.1c0,0,0,0.1,0.1,0.1c0,0.1,0.1,0.1,0.1,0.2l0.1,0.1c0,0.1,0,0.1,0.1,0.1c0,0.1,0.1,0.1,0.1,0.1
			c0.1,0.1,0.1,0.1,0.1,0.1c0.1,0.1,0.2,0.1,0.3,0.2h0.1c0,0,0.1,0,0.1,0.1c0,0,0.1,0,0.1,0c0,0,0.1,0,0.1,0.1c0.1,0,0.1,0,0.2,0
			c0,0,0,0,0.1,0c0,0,0,0,0.1,0s0.1,0,0.1,0h0.1h0.1h0.1c0.1,0,0.1,0,0.1,0c0.1,0,0.1,0,0.2,0c0.1,0,0.1,0,0.1-0.1h0.1
			c0.1,0,0.1,0,0.1-0.1c0,0,0.1,0,0.1-0.1c0,0,0-0.1,0.1-0.1c0-0.1,0.1-0.1,0.1-0.1c0.1,0,0.1-0.1,0.1-0.1s0.1,0,0.1-0.1
			c0,0,0-0.1,0.1-0.1c0.1-0.1,0.1-0.1,0.1-0.1c0,0,0-0.1,0.1-0.1c0-0.1,0.1,0,0.1-0.1c0,0,0-0.1,0.1-0.1l0.1-0.1
			c0.1-0.1,0.1-0.1,0.1-0.1s0.1-0.1,0.2-0.2c0,0,0,0,0-0.1c0-0.1,0.1-0.1,0.1-0.1c0.1-0.1,0.1-0.1,0.1-0.1c0.1,0,0.1-0.1,0.1-0.1
			c0.1-0.1,0.1-0.1,0.1-0.1c0,0,0.1,0,0.1-0.1l0.1-0.1c0,0,0-0.1,0.1-0.1l0.1-0.1c0,0,0.1,0,0.1-0.1c0,0,0-0.1,0.1-0.1H19
			c0,0,0-0.1,0.1-0.1l0.1-0.1v-0.1c0,0,0.1,0,0.1-0.1l0.1-0.1c0.1-0.1,0.1-0.1,0.1-0.1c0-0.1,0.1-0.1,0.1-0.1s0-0.1,0.1-0.1
			c0,0,0.1,0,0.1-0.1h0.1c0,0,0-0.1,0.1-0.1c0,0,0.1,0,0.1-0.1c0,0,0-0.1,0.1-0.1c0.1-0.1,0.1-0.1,0.1-0.1c0-0.1,0.1-0.1,0.1-0.1
			c0,0,0.1-0.1,0.1-0.1l0.1-0.1c0,0,0-0.1,0.1-0.1c0.1-0.1,0.1-0.1,0.1-0.1c0.1-0.1,0.1-0.1,0.1-0.1c0-0.1,0.1-0.1,0.1-0.1
			s0-0.1,0.1-0.1c0,0,0.1,0,0.1-0.1c0.1,0,0.1-0.1,0.1-0.1c0,0,0-0.1,0.1-0.1c0,0,0.1,0,0.1-0.1c0.1-0.1,0.1-0.1,0.1-0.1
			c0.1-0.1,0.1-0.1,0.1-0.1c0,0,0.1,0,0.1-0.1c0,0,0-0.1,0.1-0.1c0.1-0.1,0.1-0.1,0.1-0.1c0.1-0.1,0.1-0.1,0.1-0.1
			c0.1-0.1,0.1-0.2,0.2-0.3c0.1-0.1,0.1-0.2,0.3-0.2c0,0,0.1,0,0.1-0.1c0.1-0.1,0.1-0.1,0.1-0.1c0-0.1,0.1-0.1,0.1-0.1l0.1-0.1
			c0.1-0.1,0.1-0.1,0.1-0.1l0.1-0.1c0,0,0,0,0-0.1c0,0,0.1,0,0.1-0.1l0.1-0.1l0.1-0.1l0.1-0.1c0.1-0.1,0.1-0.1,0.1-0.1
			c0.1-0.1,0.1-0.1,0.2-0.2c0-0.1,0.1-0.1,0.1-0.1s0.1-0.1,0.1-0.1c0.1,0,0.1-0.1,0.1-0.1c0-0.1,0-0.1,0.1-0.1s0.1,0,0.1-0.1
			c0-0.1,0.1-0.1,0.1-0.1c0,0,0.1,0,0.1-0.1l0.1-0.1c0.1-0.1,0.1-0.1,0.1-0.1l0.1-0.1v-0.1c0.1-0.1,0.1-0.1,0.1-0.1
			c0.1-0.1,0.1-0.1,0.1-0.1c0-0.1,0-0.1,0.1-0.1s0.1,0,0.1-0.1c0.1-0.1,0.1-0.1,0.1-0.1l0.1-0.1c0,0,0-0.1,0.1-0.1
			c0-0.1,0.1-0.1,0.1-0.1l0.1-0.1c0,0,0.1,0,0.1-0.1c0,0,0-0.1,0.1-0.1l0.1-0.1c0,0,0.1,0,0.1-0.1c0,0,0-0.1,0.1-0.1
			c0.1-0.1,0.1-0.1,0.1-0.1c0,0,0-0.1,0.1-0.1l0.1-0.1l0.1-0.1l0.1-0.1c0,0,0.1-0.1,0.1-0.1c0.1-0.1,0.2-0.1,0.3-0.2
			c0.1-0.1,0.1-0.1,0.1-0.1c0.1,0,0.1-0.1,0.1-0.1l0.1-0.1c0,0,0.1,0,0.1-0.1c0.1-0.1,0.1-0.1,0.1-0.1c0.1-0.1,0.1-0.1,0.1-0.1
			c0.1-0.1,0.2-0.1,0.3-0.2c0.1,0,0.1-0.1,0.1-0.1c0.1,0,0.1-0.1,0.2-0.1c0.1-0.1,0.1-0.1,0.2-0.2c0.1-0.1,0.2-0.1,0.3-0.2
			c0.1-0.1,0.1-0.1,0.1-0.1h0.1c0,0,0,0,0-0.1c0,0,0.1,0,0.1-0.1c0.1-0.1,0.1-0.1,0.1-0.1c0.1-0.1,0.1-0.1,0.1-0.1
			c0.1-0.1,0.1-0.1,0.1-0.1s0.1-0.1,0.1-0.1c0.1,0,0.1-0.1,0.1-0.1l0.1-0.1c0,0,0,0,0.1,0l0.1-0.1c0.1-0.1,0.1-0.1,0.1-0.1
			c0,0,0.1,0,0.1-0.1h0.1c0,0,0-0.1,0.1-0.1l0.1-0.1c0.1-0.1,0.1-0.1,0.1-0.1c0.1-0.1,0.1-0.1,0.1-0.1c0.1,0,0.1,0,0.1-0.1
			c0,0,0.1,0,0.1-0.1l0.1-0.1l0.1-0.1c0,0,0,0,0.1,0h0.1c0,0,0-0.1,0.1-0.1c0,0,0,0,0.1,0c0,0,0,0,0.1-0.1l0.1-0.1
			c0.1-0.1,0.1-0.1,0.1-0.1c0.1-0.1,0.2-0.1,0.3-0.3c0,0,0.1,0,0.1-0.1l0.1-0.1c0.1,0,0.1-0.1,0.1-0.1c0.1-0.1,0.1-0.1,0.1-0.1
			c0.1-0.1,0.1-0.1,0.1-0.1l0.1-0.1h0.1c0-0.1,0,0,0,0l0.1-0.1c0.1-0.1,0.1-0.1,0.1-0.1c0,0,0,0,0-0.1h0.1c0.1,0,0.1,0,0.1-0.1
			c0,0,0.1,0,0.1-0.1c0.1,0,0.1-0.1,0.1-0.1c0.1-0.1,0.1-0.1,0.1-0.1c0,0,0-0.1,0.1-0.1c0,0,0,0,0.1,0c0,0,0,0,0.1,0
			c0,0,0.1,0,0.1-0.1c0,0,0,0,0-0.1c0,0,0,0,0.1,0c0-0.1,0.1-0.1,0.1-0.1s0.1,0,0.1-0.1c0.1,0,0,0,0.1-0.1l0.1-0.1
			c0,0,0.1,0,0.1-0.1c0,0,0-0.1,0.1-0.1c0,0,0.1,0,0.1-0.1l0.1-0.1l0.1-0.1c0.1,0,0.1-0.1,0.1-0.1c0,0,0.1-0.1,0.1-0.1
			c0,0,0-0.1,0.1-0.1c0.1,0,0.1-0.1,0.1-0.1c0.1,0,0.1-0.1,0.1-0.1c0.1-0.1,0.1-0.1,0.1-0.1l0.1-0.1c0,0,0.1,0,0.1-0.1l0.1-0.1
			c0-0.1,0-0.1,0.1-0.1s0.1-0.1,0.1-0.1c0-0.1,0.1-0.1,0.1-0.1c0.1-0.1,0.1-0.1,0.1-0.1s0.1-0.1,0.1-0.1c0.1,0,0.1-0.1,0.1-0.1
			c0.1-0.1,0.1-0.1,0.1-0.1c0.1-0.1,0.1-0.1,0.1-0.1c0,0,0.1,0,0.1-0.1c0,0,0.1,0,0.1-0.1c0.1,0,0.1-0.1,0.1-0.1s0.1-0.1,0.1-0.1
			c0,0,0.1,0,0.1-0.1c0.1,0,0.1,0,0.1-0.1v0.1c0,0.1,0,0.1,0,0.1v0.1v0.1v0.1c0,0.1,0,0.1,0,0.2V39v0.1c0,0.1,0,0.3,0,0.4
			c0,0.1,0,0.1,0,0.2c0,0.1,0,0.1,0,0.2c0,0.1,0,0.1,0,0.1V40c0,0.1,0,0.1,0,0.2v0.1c0,0.1,0,0.1,0,0.2c0,0.1,0,0.1,0,0.2
			c0,0.1,0,0.1,0,0.1c0,0,0,0,0,0.1c0,0,0,0,0,0.1c0,0.1,0,0.1,0,0.2c0,0.1,0,0.1,0,0.2c0,0.1,0,0.1,0,0.2c0,0.1,0,0.1,0,0.2
			c0,0.1,0,0.1,0,0.1v0.1c0,0.1,0,0.1,0,0.2c0,0.1,0,0.1,0,0.2c0,0.1,0,0.1,0,0.2c0,0.1,0,0.2,0,0.3c0,0.1,0,0.1,0,0.1
			c0,0.1,0,0.1,0,0.1c0,0.1,0,0.1,0,0.1V43v0.1c0,0,0,0,0,0.1c0,0.1,0,0.1,0,0.2v0.1c0,0,0,0.1,0,0.1c0,0.1,0,0.1,0,0.1v0.1v0.1
			c0,0.1,0,0.1,0,0.1c0,0.1,0,0.1,0,0.1c0,0.1,0,0.1,0,0.2c0,0.1,0,0.1,0,0.1c0,0.1,0,0.1,0,0.1c0,0.1,0,0.1,0,0.1s0,0,0,0.1
			c0,0,0,0.1,0,0.1v0.1c0,0,0,0,0,0.1c0,0,0,0,0.1,0.1V45c0,0.1,0,0.1,0,0.2h-0.1v0.1c0,0,0,0.1,0.1,0.1v0.1c0,0,0,0.1,0,0.1v0.1
			c0,0.1,0,0.1,0,0.2c0,0.1,0,0.1,0,0.1c0,0.1,0,0.1,0,0.1c0,0.1-0.1,0.1-0.1,0.2c0,0.1,0,0.1,0,0.2c0,0.1,0,0.1,0,0.1v0.1
			c0,0.1,0,0.2,0.1,0.3c0,0.1,0,0.1,0,0.1c0,0.1,0,0.1,0,0.1c0,0,0,0.1,0,0.1c0,0.1,0,0.1,0,0.2c0,0.1,0,0.1,0,0.2
			c0,0.1,0,0.1,0,0.2c0,0.1,0,0.1,0,0.1v0.1c0,0.1,0,0.1,0,0.1s0,0.1,0,0.1c0,0.1,0,0.1-0.1,0.2c0,0.1,0,0.1,0,0.1v0.1
			c0,0.1,0,0.1,0,0.2c0,0.1,0,0.1,0,0.2c0,0.1,0,0.1,0,0.2c0,0.1,0,0.1,0,0.2v0.1v0.1c0,0.1,0,0.1,0,0.1c0,0.1,0,0.1,0,0.1
			c0,0.1,0,0.1,0,0.1s0,0.1,0,0.1c0,0.1,0,0.1,0,0.1s0,0.1,0,0.2c0,0.1,0,0.1,0,0.2c0,0.1,0,0.1,0,0.2s0,0.1,0,0.2c0,0,0,0.1,0,0.1
			v0.1c0.1,0,0,0.1,0,0.2s0,0.1,0,0.2c0,0.1,0,0.1,0,0.1v0.1c0,0.1,0,0.1,0,0.1s0,0,0,0.1c0,0,0,0,0,0.1c0,0.1,0,0.2,0,0.3
			c0,0.1,0,0.1,0,0.2v0.1c0,0.1,0,0.1,0,0.1c0,0.1,0,0.1,0,0.1s0,0.2,0,0.3c0.1,0,0.1,0.1,0.1,0.1s0,0,0,0.1V53c0,0.1,0,0.1,0,0.1
			c0,0.1,0,0.1,0,0.1s0,0.1,0,0.2c0,0,0,0.1,0,0.1c0,0,0,0,0,0.1c0,0,0,0,0,0.1c0,0,0,0,0,0.1c0,0,0,0.1,0,0.1v0.1V54c0,0,0,0,0,0.1
			v0.1c0,0.1,0,0.1,0,0.2c0,0,0,0.1,0,0.1v0.1c0,0.1,0.1,0.1,0.1,0.2c0,0.1,0,0.1,0,0.1c0,0,0,0,0,0.1c0,0,0,0,0,0.1
			c0,0.1,0.1,0.1,0.1,0.2c0,0.1,0.1,0.1,0.1,0.1l0.1,0.1l0.1,0.1c0.1,0.1,0.1,0.1,0.1,0.1c0.1,0,0.1,0.1,0.1,0.1
			c0.1,0.1,0.1,0.1,0.1,0.1c0.1,0.1,0.3,0.1,0.4,0.1c0.1,0,0.1,0.1,0.2,0.1c0.1,0,0.2,0,0.3,0s0.3,0,0.3,0c0,0,0.1,0,0.1-0.1h0.1
			l0.1-0.1c0,0,0.1,0,0.1-0.1c0.1-0.1,0.3-0.2,0.4-0.3l0.1-0.1l0.1-0.1c0.1-0.1,0.1-0.1,0.1-0.1c0,0,0-0.1,0.1-0.1V55
			c0-0.1,0.1-0.1,0.1-0.1v-0.1c0,0,0,0,0-0.1h0.1c0,0,0,0,0.1,0c0,0,0-0.1,0.1-0.1h0.1c-0.1,0-0.1-0.1-0.1-0.1h-0.1v-0.1v-0.1v-0.1
			c0,0,0.1,0,0.1-0.1c-0.1,0,0,0-0.1,0h-0.1H38v-0.1c0-0.1-0.1-0.1,0-0.1c0,0,0.1-0.1,0.1-0.1c0,0,0.1-0.1,0-0.1c0,0,0,0.1-0.1,0.1
			c-0.1,0,0-0.1,0-0.1H38c0,0,0-0.1-0.1-0.1c0,0,0,0,0,0.1h-0.1c0,0,0,0,0-0.1c0,0-0.1,0-0.1-0.1c0,0,0.1-0.1,0-0.1l-0.1,0.1
			c0,0,0,0,0-0.1c-0.1,0.1,0,0-0.1-0.1h-0.1c-0.1,0,0-0.1,0-0.1c0-0.1,0-0.1,0-0.1h0.1c-0.1,0,0-0.1,0-0.1s0,0-0.1,0c0,0,0,0-0.1,0
			c0,0-0.1,0.1-0.1,0c0,0,0,0,0-0.1c0,0,0,0,0-0.1c0.1,0,0,0,0,0.1c0,0,0,0.1,0.1,0.1h0.1v-0.1c0,0,0.1,0,0.1-0.1c0,0-0.1,0-0.1-0.1
			c0,0,0,0-0.1,0h0.1c0,0,0,0,0.1-0.1c-0.1,0,0-0.1,0-0.1c0.1,0,0,0.1,0,0.1c0.1,0,0.1-0.1,0.1-0.1h-0.1h-0.1
			c-0.1,0-0.1-0.1-0.1-0.1c-0.1-0.1-0.1,0.1-0.1,0c0.1,0,0.1-0.1,0.1-0.1c0,0,0,0.1,0.1,0.1l0.1-0.1c0,0,0-0.1-0.1-0.1
			c0,0-0.1,0-0.1-0.1c-0.1,0,0,0-0.1-0.1c-0.1,0,0,0,0,0.1c0-0.1,0-0.1,0-0.1c0,0,0,0,0-0.1c0,0,0,0-0.1,0c0,0.1,0.1,0.1-0.1,0.1
			c-0.1,0-0.1-0.1-0.1-0.1v-0.1c0-0.1,0.1,0,0-0.1c0,0,0,0-0.1-0.1v-0.1c0,0,0,0,0-0.1c0,0,0,0,0.1,0c0,0,0.1,0,0-0.1h-0.1
			c0,0,0,0,0-0.1c0-0.1,0.1,0,0.1,0s0.1-0.1,0.1-0.1l-0.1-0.1c-0.1,0-0.1,0.1-0.1,0.1s0,0-0.1,0c-0.1,0,0-0.1,0-0.1s0.1,0,0.1,0
			s0.1,0,0.1,0s-0.1,0-0.1-0.1l0.1-0.1c0,0,0,0,0.1-0.1c0,0,0,0,0-0.1l0.1-0.1c0,0-0.1,0-0.1-0.1c0,0,0.1,0,0-0.1c0,0,0,0.1-0.1,0.1
			c-0.1,0,0-0.1,0-0.1h-0.1v-0.1c0,0,0,0-0.1,0c0,0,0,0,0-0.1c0-0.1,0,0,0-0.1v-0.1v-0.1v-0.1v-0.1c0,0,0,0,0-0.1c0,0,0,0-0.1,0
			v-0.1c0,0,0,0-0.1,0v0.1H37c0,0,0-0.1-0.1-0.1c0,0,0,0-0.1,0h-0.1c0,0,0,0,0-0.1l0.1-0.1v-0.1c-0.1,0-0.1,0-0.1-0.1
			c0-0.1,0.1-0.1,0.1,0c-0.1,0,0,0.1,0,0c0-0.1,0,0,0-0.1v-0.1c0,0,0,0,0-0.1c0,0,0.1,0,0-0.1h-0.1c0-0.1,0.1-0.1,0.1-0.1
			c0-0.1-0.1,0-0.1-0.1c0,0,0.1,0,0.1-0.1v-0.1c0,0,0,0-0.1,0h-0.1v-0.1c0-0.1,0-0.1,0-0.1c0.1-0.1-0.1-0.1-0.1-0.1
			c0,0-0.1,0.1-0.1,0c0-0.1,0-0.1,0-0.1c0.1-0.1,0-0.1,0-0.2c0,0,0,0,0.1,0c0,0,0,0,0.1,0v-0.1c0-0.1-0.1-0.1-0.1,0
			c0-0.1,0.1-0.1,0-0.1h-0.1v-0.1l-0.1-0.1l0.1-0.1c0,0,0.1-0.1,0-0.1c0,0-0.1,0-0.1-0.1c0,0,0,0,0-0.1c0,0,0,0,0-0.1
			c-0.1-0.1,0.1-0.1,0.1-0.1l0.1-0.1h-0.1h-0.1c0,0,0,0,0-0.1v-0.1V49c0,0,0-0.1-0.1-0.1s0,0.1,0,0.1s0,0.1-0.1,0.1h-0.1
			c0,0,0,0,0-0.1c0,0,0,0,0-0.1s0.1,0,0.1-0.1c0-0.1-0.1-0.1-0.1-0.1c0-0.1,0.1-0.1,0-0.1c0-0.1,0.1,0,0.2,0v-0.1c0,0-0.1,0-0.1-0.1
			v-0.1h-0.1v-0.1c0,0,0,0,0-0.1c0,0,0,0-0.1,0c-0.1,0,0-0.1,0-0.1s0,0,0-0.1c0,0,0,0,0.1,0c0,0,0-0.1,0.1-0.1h0.1
			c0.1,0,0.1-0.1,0.1-0.1l-0.1,0.1c0,0.1-0.1,0-0.1,0c0-0.1,0-0.1,0.1-0.1v-0.1c0,0,0,0-0.1,0.1c0,0,0,0.1-0.1,0v-0.1
			c0,0-0.1,0-0.1-0.1c0-0.1,0.1,0,0.1-0.1v-0.1c0,0,0,0,0-0.1c0,0,0,0,0,0.1c0,0,0,0-0.1,0h-0.1v-0.1c0,0,0,0,0-0.1
			c0-0.1,0-0.1-0.1-0.1v-0.1c0,0,0,0-0.1,0c-0.1,0,0-0.1,0-0.1s0,0,0.1-0.1c0,0,0,0,0.1,0l0.1-0.1v-0.1h0.1c0,0,0,0,0-0.1
			c0,0-0.1,0-0.1,0h-0.1h0.1c0,0,0,0,0.1,0c0,0,0,0,0.1,0c0,0,0.1,0,0.1-0.1v-0.1h-0.1c0,0,0.1-0.1,0-0.1c0,0,0,0-0.1,0L36.3,47h0.1
			c0.1,0,0.1-0.1,0-0.1c0,0-0.1,0-0.1-0.1c0,0,0,0-0.1,0c0,0,0,0,0-0.1c0,0-0.1,0-0.1-0.1c0-0.1,0-0.1,0.1-0.1h0.1v-0.1
			c0,0,0,0,0-0.1c0,0,0,0,0-0.1v-0.1c0,0,0-0.1-0.1-0.1c0,0-0.1,0.1-0.1,0.1c0,0,0.1,0,0.1-0.1c0,0-0.1-0.1-0.1,0v0.1c0,0,0,0,0-0.1
			l0.1-0.1c0,0,0,0,0-0.1c0,0,0,0-0.1,0s0-0.1,0-0.1s0,0,0-0.1c0,0,0,0,0-0.1h0.1h0.1c0,0,0,0,0-0.1c0,0,0,0-0.1,0c0,0,0,0,0-0.1
			c0-0.1,0-0.1,0.1-0.1c0,0,0,0-0.1,0c0,0,0.1,0,0.1-0.1h-0.1c0,0,0,0,0-0.1v-0.1c0,0,0-0.1,0.1-0.1v-0.1c0,0,0,0.1-0.1,0.1v-0.1
			c0,0,0-0.1,0.1-0.1c0,0,0.1-0.1,0-0.1c0,0,0,0-0.1,0v-0.1c0,0,0,0,0-0.1c0,0,0,0,0-0.1v-0.1c0,0-0.1,0-0.1-0.1c0,0,0,0,0-0.1
			c0,0,0,0,0-0.1v-0.1h0.1c0,0,0,0,0-0.1v-0.1v-0.1v-0.1c0,0,0,0-0.1,0c0,0,0,0,0.1,0v-0.1c0,0,0,0,0-0.1c0,0,0,0,0-0.1v-0.1
			c0,0,0,0,0-0.1c0,0,0,0,0-0.1v-0.1c0,0,0-0.1-0.1,0v-0.1v-0.1V44h0.1c0,0,0,0,0-0.1v-0.1v-0.1c0,0,0.1-0.1,0-0.1c0,0,0,0-0.1,0
			c0,0,0,0,0-0.1c0,0,0.1,0,0.1-0.1h0.1v-0.1v-0.1h-0.1c0,0,0,0,0-0.1c0,0,0,0,0-0.1v-0.1c0,0,0,0,0-0.1c0,0,0,0,0-0.1
			c0,0,0,0,0-0.1v-0.1V43c0,0,0,0,0-0.1v-0.1v-0.1v-0.1c0,0,0,0,0-0.1c0,0,0,0,0-0.1c0,0,0,0,0-0.1c0-0.1,0,0,0.1-0.1v-0.1
			c0,0,0,0,0-0.1v-0.1c0,0,0,0,0-0.1v-0.1c0,0,0,0,0-0.1v-0.1c0,0,0,0,0-0.1c0-0.1-0.1,0-0.1-0.1c0,0,0-0.1,0-0.1v-0.1
			c0,0,0,0,0-0.1v-0.1v-0.1c0,0,0,0,0-0.1c0,0,0,0,0-0.1c0,0-0.1-0.1,0-0.1c0,0,0,0,0-0.1c0,0,0,0,0-0.1v-0.1h0.1v0.1
			c0,0,0.1,0,0.1-0.1c0,0,0,0,0-0.1c0,0,0,0,0.1-0.1h-0.1c0,0,0.1-0.1,0-0.1c0,0,0,0,0-0.1v-0.1c0,0,0,0,0.1,0v-0.1c0,0,0,0,0-0.1
			c0,0,0,0,0-0.1c0,0,0,0,0-0.1v-0.1c0,0,0,0,0-0.1c0,0,0,0,0-0.1v-0.1c0,0,0-0.1,0-0.1c0,0,0,0-0.1,0c0,0,0,0,0-0.1c0,0,0,0-0.1,0
			v-0.1c0,0,0,0,0-0.1c0,0,0,0,0-0.1c0-0.1,0-0.1,0-0.1l0.1-0.1v-0.1c0,0-0.1,0-0.1-0.1c0,0,0,0,0-0.1c0,0,0,0,0-0.1c0,0,0,0,0-0.1
			c0,0,0,0,0.1-0.1c0,0,0,0,0-0.1c0,0,0,0,0.1-0.1c0,0,0,0,0-0.1v-0.1c0,0,0,0-0.1,0c-0.1,0,0-0.1-0.1-0.1c0,0,0,0,0-0.1
			c0,0,0,0,0-0.1c0,0,0,0,0-0.1c0,0,0,0,0-0.1c0,0,0,0,0-0.1v-0.1v-0.1v-0.1c0,0,0,0-0.1,0c0,0,0,0,0-0.1c0,0,0,0,0.1,0
			c0,0,0,0,0.1,0c0,0,0,0,0-0.1c0,0,0,0,0-0.1c-0.1,0-0.1,0-0.1-0.1c0-0.1,0.1-0.1,0.1-0.1v-0.1v-0.1V38c0,0,0,0,0-0.1
			c0-0.1,0.1-0.1,0.1-0.1l0.1-0.1c0,0,0-0.1,0.1-0.1c0,0,0,0.1,0.1,0c0,0,0-0.1,0.1-0.1h0.1v-0.1c0,0,0.1,0,0.1,0c0,0,0-0.1,0.1-0.1
			c0,0,0.1-0.1,0-0.1c0,0,0,0,0.1,0c0,0,0,0,0.1,0c0,0,0,0,0.1,0c0,0,0,0,0.1,0c-0.1,0,0-0.1,0.1-0.1c0,0,0,0,0.1,0c0,0,0,0,0-0.1
			l0.1-0.1c0,0,0.1,0,0.1-0.1c0,0,0.1,0,0.1-0.1l0.1-0.1c0,0,0,0,0.1,0c0,0,0,0,0-0.1l0.1-0.1c0,0,0,0,0.1,0c0,0,0,0,0.1,0
			c0,0,0,0,0.1,0c0,0,0,0,0.1,0l0.1-0.1c0-0.1,0.1-0.1,0.1-0.1h0.1l0.1-0.1c0.1-0.1,0.1-0.1,0.1-0.1c0,0,0.1,0,0.1-0.1
			c0,0,0.1,0,0.1-0.1c0.1,0,0.1-0.1,0.1-0.1c0.1-0.1,0.1-0.1,0.2-0.1h0.1H39c0,0,0,0,0-0.1c0,0,0.1,0,0.1-0.1c0.1,0,0.1,0,0.1,0h0.1
			c0-0.1,0-0.1,0.1-0.1c0,0,0.1,0,0.1-0.1c0,0,0.1,0,0.1-0.1c0,0,0,0,0.1-0.1h0.1c0,0,0-0.1,0.1-0.1s0.1-0.1,0.2-0.1
			c0.1-0.1,0.1-0.1,0.2-0.1H40c0,0,0,0,0.1-0.1c0,0,0.1,0,0.1-0.1l0.1-0.1c0.1-0.1,0.1-0.1,0.1-0.1s0.1-0.1,0.1-0.1
			c0,0,0.1,0,0.1-0.1c0,0,0.1,0,0.1-0.1c0.1,0,0.1-0.1,0.1-0.1c0.1,0,0.1-0.1,0.2-0.1c0.1,0,0.1-0.1,0.1-0.1l0.1-0.1
			c0,0,0.1,0,0.1-0.1c0,0,0,0,0-0.1h0.1c0,0,0,0,0.1,0l0.1-0.1c0.1-0.1,0.1-0.1,0.2-0.1c0.1-0.1,0.2-0.1,0.3-0.2
			c0.1,0,0.1-0.1,0.1-0.1s0.1-0.1,0.2-0.1c0.1-0.1,0.2-0.1,0.3-0.2c0.1-0.1,0.1-0.1,0.2-0.1c0.1-0.1,0.1-0.1,0.2-0.1
			c0.1-0.1,0.1-0.1,0.2-0.1c0.1,0,0.1-0.1,0.1-0.1c0.1-0.1,0.1-0.1,0.1-0.1s0.1-0.1,0.1-0.1l0.1-0.1h0.1l0.1-0.1c0,0,0.1,0,0.1-0.1
			c0,0,0.1,0,0.1-0.1c0,0,0.1,0,0.1-0.1c0.1,0,0.1-0.1,0.1-0.1l0.1-0.1c0,0,0.1,0,0.1-0.1l0.1-0.1c0,0,0,0,0.1,0c0,0,0,0,0-0.1h0.1
			c0,0,0.1,0,0.1-0.1c0.1-0.1,0.1-0.1,0.1-0.1s0.1-0.1,0.2-0.1c0,0,0-0.1,0.1-0.1c0,0,0.1,0,0.1-0.1c0.1,0,0.1-0.1,0.2-0.1
			c0.1-0.1,0.2-0.1,0.3-0.1c0,0,0.1,0,0.1-0.1l0.1-0.1l0.1-0.1c0.1,0,0.1-0.1,0.1-0.1c0.1,0,0.1-0.1,0.1-0.1h0.1L46,32
			c0,0,0.1,0,0.1-0.1h0.1c0,0,0,0,0.1,0c0,0,0.1-0.1,0.1-0.1h0.1l0.1-0.1c0,0,0,0,0.1-0.1c0,0,0.1-0.1,0.1,0l0.1-0.1
			c0,0,0.1,0,0.1-0.1c0.1,0,0.1-0.1,0.1-0.1l0.1-0.1l0.1-0.1c0,0,0,0,0.1-0.1c0.1,0,0.1-0.1,0.2-0.1l0.1-0.1c0-0.1,0-0.1,0.1-0.1
			s0.1,0,0.1,0c0-0.1,0.1-0.1,0.1-0.1l0.1-0.1c0,0,0.1,0,0.1-0.1c0.1-0.1,0.1-0.1,0.1-0.1c0,0,0.1,0,0.1-0.1c0,0,0-0.1,0.1-0.1
			c0,0,0.1,0,0.1,0c0,0,0,0,0.1,0s0.1-0.1,0.2-0.1s0.1-0.1,0.1-0.1c0.1,0,0,0,0.1-0.1h0.1c0,0,0,0,0.1,0c0.1-0.1,0.1-0.1,0.2-0.1
			c0.1,0,0.1-0.1,0.2-0.1s0.1-0.1,0.1-0.1c0.1,0,0.1-0.1,0.2-0.1c0.1-0.1,0.1-0.1,0.2-0.1c0-0.1,0.1-0.1,0.1-0.1h0.1l0.1-0.1
			c0,0,0,0,0.1,0c0,0,0.1-0.1,0.2-0.1c0,0,0.1,0,0.1-0.1c0.1,0,0.1,0,0.1-0.1h0.1c0,0,0,0,0.1,0c0.1,0,0.1-0.1,0.1-0.1h0.1l0.1-0.1
			c0.1,0,0.1-0.1,0.1-0.1c0,0,0.1,0,0.1-0.1H51l0.1-0.1l0.1-0.1c0.1,0,0.1-0.1,0.1-0.1l0.1-0.1h0.1c0.1,0,0.1-0.1,0.1-0.1
			c0.1-0.1,0.1-0.1,0.2-0.1c0.1,0,0.1-0.1,0.2-0.1c0,0,0.1,0,0.1-0.1c0,0,0,0,0.1,0c0.1,0,0.1-0.1,0.1-0.1s0.1,0,0.1-0.1
			c0.1,0,0.1,0,0.1-0.1c0.1,0,0.1-0.1,0.2-0.1c0.1,0,0.1-0.1,0.2-0.1s0.1-0.1,0.1-0.1c0.1,0,0.1,0,0.1-0.1c0.1,0,0.1-0.1,0.1-0.1
			l0.1-0.1h0.1l0.1-0.1c0.1,0,0.1,0,0.1-0.1c0.1,0,0.1-0.1,0.1-0.1c0.1,0,0.1-0.1,0.2-0.1l0.1-0.1h0.1c0.1,0,0.1-0.1,0.1-0.1
			c0.1,0,0.1,0,0.1-0.1c0.1,0,0.1-0.1,0.1-0.1s0.1,0,0.1,0c0,0,0.1-0.1,0.1-0.1s0.1-0.1,0.1-0.1c0.1-0.1,0.3-0.1,0.4-0.1
			c0.1,0,0.1-0.1,0.2-0.1s0.3-0.1,0.4-0.1c0.1-0.1,0.3-0.1,0.4-0.1c0.1,0,0.1-0.1,0.2-0.1s0.1,0,0.2-0.1c0.1-0.1,0.3-0.1,0.4-0.1
			c0.1,0,0.1,0,0.2-0.1c0.1-0.1,0.2-0.1,0.3-0.1c0.1-0.1,0.2-0.1,0.3-0.1c0.1,0,0.1-0.1,0.1-0.1s0.3-0.1,0.3-0.2
			c0.1,0,0.1-0.1,0.1-0.1c0.1-0.1,0.2-0.2,0.3-0.2h0.1l0.1-0.1c0,0,0.1,0,0.1-0.1c0.1,0,0.1,0,0.1-0.1c0,0,0.1,0,0.1-0.1
			c0.1-0.1,0.1-0.1,0.1-0.2c0-0.1,0.1-0.1,0.1-0.1l0.1-0.1v-0.1c0,0,0,0,0-0.1c0,0,0,0,0.1,0c0,0,0,0.1,0.1,0.1c0,0-0.1-0.1,0-0.1
			c0,0,0,0,0-0.1v-0.1c0.1,0,0.1,0,0.1-0.1c0-0.1,0.1-0.1,0.1-0.1v0.1c0,0,0,0,0-0.1v-0.1c0,0,0-0.1,0.1-0.1V25h0.1l0.1-0.1
			c0,0-0.1,0-0.1-0.1C60.4,23.5,60.4,23.5,60.4,23.5z"/>
		<path class="st1" d="M41.4,16c0,0.1,0,0.1,0.1,0.1v0.1c0,0,0,0,0,0.1c0.1,0.1,0.1,0.1,0.2,0.2c0,0,0.1,0.1,0.1,0.1
			c0.1,0,0.1,0,0.1,0.1c0.1,0.1,0.1,0.1,0.3,0.1c0.1,0,0.1,0,0.2,0s0.1,0,0.1,0h0.1c0,0,0,0,0.1,0c0,0,0.1,0,0.1,0c0,0,0,0,0.1-0.1
			c0.1,0,0.1-0.1,0.2-0.1l0.1-0.1c0.1,0,0.1,0,0.1,0c0,0,0-0.1,0.1-0.1c0,0,0.1,0,0.1-0.1c0.1,0,0.1-0.1,0.1-0.1
			c0.1-0.1,0.1-0.1,0.2-0.2c0-0.1,0.1-0.1,0.1-0.1c0-0.1,0.1-0.1,0.1-0.1c0,0,0.1-0.1,0.1-0.1c0-0.1,0.1-0.1,0.1-0.1
			c0.1-0.1,0.1-0.1,0.1-0.1c0-0.1,0.1-0.1,0.1-0.1v-0.1v-0.1c0,0,0,0,0.1-0.1v-0.1c0,0,0,0,0.1-0.1V15c0,0,0,0,0-0.1c0,0,0,0,0-0.1
			c0-0.1,0-0.1,0-0.1c0-0.1,0-0.1,0.1-0.1l0.1-0.1c0,0,0,0,0-0.1c0,0,0,0,0-0.1v-0.1c0,0,0,0,0-0.1c-0.1,0-0.1-0.1,0-0.1v-0.1
			c0-0.1,0-0.1-0.1-0.1c0,0,0,0-0.1-0.1v-0.1c0,0,0,0-0.1-0.1c0,0,0-0.1-0.1-0.1v-0.1c0,0,0,0-0.1-0.1c0,0,0,0-0.1,0
			c0,0-0.1,0-0.1,0h-0.1h-0.1c0,0,0,0-0.1,0h-0.1c-0.1,0-0.1,0-0.1,0c-0.1,0-0.1,0-0.1,0h-0.1c-0.1,0-0.1,0-0.1,0h-0.1
			c-0.1,0-0.1,0-0.1,0.1c-0.1,0-0.1,0-0.1,0.1h-0.1c0,0,0,0-0.1,0c-0.1,0-0.1,0-0.1,0.1c0,0,0,0-0.1,0c0,0-0.1,0.1-0.1,0.1h-0.1
			c0,0,0,0-0.1,0.1c0,0,0,0-0.1,0c0,0,0,0-0.1,0c0,0,0,0-0.1,0.1c0,0,0,0-0.1,0H42c0,0,0,0,0,0.1L42,14.1c0,0,0,0.1-0.1,0.1h-0.1
			c0,0,0,0,0,0.1c0,0,0,0,0,0.1h-0.1l-0.1,0.1v0.1c0,0,0,0-0.1,0.1c0,0,0,0,0,0.1c0,0,0,0,0,0.1c-0.1,0.1-0.1,0.1-0.1,0.1v0.1
			c0,0,0,0.1-0.1,0.1V15c0,0,0,0,0,0.1v0.1v0.1v0.1v0.1c0,0.1,0,0.1,0,0.1c0,0.1,0.1,0.1,0.1,0.1C41.4,15.9,41.4,15.9,41.4,16z"/>
		<path class="st1" d="M20.3,30.6c-0.1,0-0.1-0.1-0.2-0.1c-0.1,0-0.1-0.2,0-0.2c0,0,0,0-0.1-0.1c0-0.1-0.1-0.1-0.1-0.1
			c0-0.1,0-0.2-0.1-0.3c-0.1-0.1-0.1-0.1-0.1-0.1c0-0.1,0-0.1,0-0.1c-0.1,0-0.1-0.1-0.1-0.1c-0.1,0-0.1,0-0.2,0
			c-0.1,0-0.3,0-0.3,0.1c-0.2,0.1-0.4,0.1-0.6,0.3c-0.1,0.1-0.1,0.1-0.2,0.1c-0.1,0-0.1,0.1-0.2,0.1c-0.1,0-0.1,0-0.1,0L18,30.2
			c-0.1,0.1-0.1,0.1-0.1,0.1c-0.1,0-0.1,0.1-0.2,0.2c-0.1,0.1-0.1,0.2-0.2,0.3c-0.1,0.2-0.2,0.4-0.3,0.6c0,0.1-0.1,0.1-0.1,0.3
			c0,0.1,0,0.3-0.1,0.3c0.1,0.1,0,0.2,0,0.3s-0.1,0.3-0.1,0.4s0,0.3,0,0.4c0,0.1-0.1,0.3-0.1,0.4c0,0.1-0.1,0.4,0,0.4
			c0,0.1-0.1,0.1-0.1,0.1c0,0.1,0,0.1,0,0.1c0,0.1,0,0.2,0,0.3c0,0.1,0,0.1,0,0.1c0,0.1,0,0.1,0,0.1c0,0.2,0,0.4-0.1,0.6
			c0,0,0,0.2,0,0.3s0,0.2,0,0.3c0,0.1,0,0.2,0,0.3c-0.1-0.1-0.1,0.2,0,0.3c0,0.1-0.1,0.1-0.1,0.2c0,0.1,0.1,0.1,0,0.2
			c0,0.1-0.1,0.3-0.1,0.3c0,0.1-0.1,0.3-0.1,0.4v0.1c0,0.1,0,0.2,0,0.3c0,0.2-0.1,0.4,0,0.6c0,0.1,0,0.1,0,0.2c0,0.1,0,0.1,0,0.2
			c0,0.1,0,0.1,0,0.2c0,0.1,0,0.1,0,0.2c0,0.1-0.1,0.3-0.1,0.4c0,0.2,0,0.3,0,0.5c0,0.1,0,0.2,0,0.3c0,0.1,0.1,0.2,0,0.3
			c0.1,0.1,0,0.1,0,0.2c0,0.1,0.1,0.1,0.1,0.1c0,0.1,0.1,0.1,0.1,0.1c0,0.1,0.1,0.1,0.1,0.1c0.1,0,0,0.1,0.1,0.1c0,0,0,0,0.1,0.1
			c0.1,0,0.1,0.1,0.1,0.1c0.1,0.1,0.3,0.1,0.3,0.1h0.1c0.1,0,0.1,0,0.1-0.1c0.1,0,0.1,0,0.2,0c0,0,0-0.1,0.1-0.1c0,0,0.1,0,0.1-0.1
			c0.1,0,0.1-0.1,0.1-0.1c0.1-0.1,0.1-0.1,0.3-0.1c0.1,0,0.1-0.1,0.1-0.1c0.1-0.1,0.1-0.1,0.1-0.1c0.1,0,0.1-0.1,0.1-0.1
			c0.1-0.1,0.1-0.1,0.2-0.2c0.1-0.1,0-0.1,0.1-0.1c0.1,0,0.1,0.1,0.1,0c0.1-0.1,0-0.1,0.1-0.2c0,0.1,0.1,0.1,0.1,0.1h0.1
			c0,0,0,0,0-0.1s0.1-0.1,0.1-0.1c0-0.1-0.1-0.1-0.2-0.1c-0.1,0,0,0-0.1-0.1c0-0.1,0-0.1,0-0.1c0-0.1,0.1-0.1,0.1-0.2
			c0-0.1,0-0.1,0-0.2c0,0,0-0.1,0.1-0.1c0-0.1,0-0.1,0-0.1c0-0.1,0-0.1,0-0.2v-0.1c0,0-0.1-0.1,0-0.1c0,0,0-0.1,0.1-0.1
			c0-0.1,0-0.1,0.1-0.1c0-0.1,0-0.1,0-0.1c0,0,0.1-0.1,0-0.1c0-0.1,0-0.2-0.1-0.3c0-0.1,0.1-0.1,0.1-0.2c0-0.1,0-0.1,0-0.1
			c0,0,0,0,0-0.1c0-0.1,0.1-0.1,0.1-0.1v-0.1v-0.1v-0.1c0-0.1,0-0.1,0-0.2c0-0.1,0-0.1,0-0.1v-0.1c0-0.1,0-0.1,0-0.2
			c0-0.1,0-0.1,0-0.1v-0.1c0-0.1,0-0.1,0-0.2c0-0.1,0.1-0.1,0.1-0.2c0-0.1,0-0.1,0-0.2c0-0.1,0.1-0.1,0.1-0.1c0-0.1,0-0.1,0-0.2
			c0,0,0-0.1,0-0.1c0,0,0-0.1,0.1-0.1c0-0.1,0-0.1,0.1-0.2c0-0.1,0-0.1,0-0.2c0-0.1,0-0.1,0-0.2c0-0.1,0-0.1,0-0.2c0,0,0,0,0.1-0.1
			c0.1-0.1,0-0.2,0.1-0.3c0-0.1,0-0.1,0-0.1l0.1-0.1c0-0.1,0-0.1,0-0.2v-0.2c0-0.1,0-0.1,0-0.2c0-0.1,0-0.1,0.1-0.2
			c0-0.1,0-0.3,0-0.4c0-0.1,0-0.1,0-0.2c0-0.1,0.1-0.1,0.1-0.1c0-0.1,0-0.1,0.1-0.2c0-0.1,0.1-0.1,0.1-0.2c0-0.1-0.1-0.1,0-0.2
			c0,0,0.1,0,0.1-0.1c0-0.1,0-0.1,0-0.1c0-0.1,0-0.1,0.1-0.1c0-0.1,0-0.1,0-0.2v-0.1c0,0,0,0-0.1-0.1c0-0.1,0-0.1,0-0.1
			c0-0.1,0.1-0.1,0.1-0.2c0-0.1,0.1-0.1,0.1-0.1c0-0.1-0.1-0.1-0.1-0.1v-0.1c0-0.1,0.1-0.1,0.1-0.1s0,0-0.1,0s-0.1-0.1-0.1-0.1
			c-0.1-0.1-0.1-0.1-0.1-0.2c0-0.1,0-0.2,0-0.3C20.2,30.7,20.3,30.7,20.3,30.6z"/>
		<path class="st1" d="M66.2,34.6H44.1c-3.5,0-6.3,2.8-6.3,6.3c0,3.5,2.8,6.3,6.3,6.3h22.1c3.5,0,6.3-2.8,6.3-6.3
			C72.5,37.4,69.7,34.6,66.2,34.6z M49.2,43.3c0,0.3-0.1,0.4-0.3,0.5c-0.1,0-0.1,0.1-0.2,0.1c-0.1,0-0.1,0-0.2-0.1
			c-0.2-0.1-0.3-0.3-0.3-0.5v-2.9c0-0.3-0.1-0.6-0.4-0.7c-0.1-0.1-0.3-0.1-0.4-0.1c-0.2,0-0.3,0-0.4,0.1c-0.1,0.1-0.3,0.1-0.4,0.2
			v3.4c0,0.3-0.1,0.4-0.3,0.5c-0.1,0-0.1,0.1-0.2,0.1c-0.3,0-0.6-0.3-0.6-0.6v-2.9c0-0.4-0.2-0.6-0.5-0.7c-0.1-0.1-0.3-0.1-0.4-0.1
			c-0.3,0-0.5,0.1-0.7,0.1v3.6c0,0.1-0.1,0.3-0.2,0.4c-0.1,0.1-0.3,0.2-0.4,0.2c-0.1,0-0.3-0.1-0.4-0.2c-0.1-0.1-0.2-0.2-0.2-0.4
			v-4.1c0.3-0.1,0.5-0.2,0.8-0.3c0.3-0.1,0.6-0.1,1-0.1s0.7,0.1,1,0.1c0.3,0.1,0.4,0.3,0.6,0.4c0.1-0.1,0.2-0.1,0.3-0.2
			c0.3-0.2,0.7-0.3,1.3-0.3c0.1,0,0.3,0,0.4,0.1c0.3,0.1,0.4,0.1,0.6,0.3c0.1,0.1,0.2,0.1,0.3,0.2c0.1,0.1,0.3,0.3,0.3,0.4
			c0.1,0.2,0.1,0.4,0.1,0.6V43.3z M53.2,43.6C52.9,43.8,52.5,44,52,44c-0.2,0-0.3,0-0.5-0.1c-0.8-0.2-1.2-0.7-1.4-1.5
			c-0.1-0.3-0.1-0.6-0.1-1c0-0.4,0.1-0.7,0.1-1c0.2-0.8,0.7-1.3,1.4-1.5c0.1-0.1,0.3-0.1,0.5-0.1c0.7,0,1.2,0.3,1.5,0.7
			c0.3,0.4,0.5,1.1,0.5,1.8C54,42.4,53.7,43.1,53.2,43.6z M58.1,43.3c-0.4,0.4-1,0.7-1.7,0.7c-0.6,0-1-0.1-1.3-0.2
			c-0.1-0.1-0.2-0.1-0.3-0.1v-6.3c0-0.1,0.1-0.3,0.2-0.4c0.1-0.1,0.3-0.2,0.4-0.2c0.1,0,0.1,0,0.2,0.1c0.1,0,0.1,0.1,0.2,0.1
			c0.1,0.1,0.1,0.3,0.1,0.4v1.8c0.1,0,0.1-0.1,0.2-0.1c0.1-0.1,0.3-0.1,0.4-0.1c0.1,0,0.2,0,0.3,0s0.3,0,0.4,0.1
			c0.4,0.1,0.7,0.3,1,0.6c0.3,0.4,0.5,1,0.5,1.7C58.7,42.2,58.4,42.8,58.1,43.3z M60.6,43.3c0,0.3-0.3,0.6-0.5,0.6
			c-0.1,0-0.1,0-0.2-0.1c-0.2-0.1-0.3-0.3-0.3-0.5v-3.8c0-0.3,0.3-0.6,0.5-0.6c0.3,0,0.4,0.1,0.5,0.3c0,0.1,0.1,0.1,0.1,0.2
			L60.6,43.3L60.6,43.3z M60.3,38.1c-0.1,0-0.1,0.1-0.3,0.1c-0.1,0-0.2,0-0.3-0.1c-0.2-0.1-0.4-0.3-0.4-0.5c0-0.3,0.1-0.4,0.4-0.5
			c0.1,0,0.1-0.1,0.3-0.1c0.1,0,0.2,0,0.3,0.1c0.2,0.1,0.4,0.3,0.4,0.5C60.7,37.8,60.5,38,60.3,38.1z M62.2,43.9L62.2,43.9
			c-0.4,0-0.6-0.3-0.6-0.6v-6c0-0.3,0.3-0.5,0.5-0.5c0.3,0,0.5,0.3,0.5,0.6v6C62.7,43.7,62.5,43.9,62.2,43.9z M67.4,43.7
			c-0.1,0.1-0.2,0.1-0.3,0.1c-0.3,0.1-0.8,0.2-1.3,0.2c-0.5,0-1-0.1-1.3-0.4c-0.1-0.1-0.3-0.2-0.3-0.3c-0.4-0.4-0.6-1.1-0.6-1.9
			c0-1.2,0.4-2,1.2-2.4c0.1-0.1,0.3-0.1,0.4-0.1s0.3-0.1,0.4-0.1c0.3,0,0.6,0.1,0.8,0.2c0.4,0.2,0.6,0.4,0.8,0.8
			c0.2,0.4,0.3,0.9,0.3,1.5l-3,0.4c0.1,0.4,0.2,0.8,0.4,1c0.2,0.3,0.5,0.3,1,0.3c0.4,0,0.7-0.1,1-0.1c0.1,0,0.1-0.1,0.2-0.1
			c0.1,0,0.1-0.1,0.2-0.1c0.1,0,0.1,0,0.1,0c0.1,0.1,0.3,0.2,0.3,0.3C67.6,43.5,67.6,43.6,67.4,43.7z"/>
		<path class="st1" d="M51.9,39.6c-0.8,0-1,0.9-1,1.9c0,0.9,0.2,1.8,1,1.8c0.8,0,1-0.8,1-1.8C52.9,40.5,52.8,39.6,51.9,39.6z"/>
		<path class="st1" d="M65.6,39.6c-0.6,0-1.1,0.5-1.1,1.7l2-0.3C66.5,40,66.2,39.6,65.6,39.6z"/>
		<path class="st1" d="M56.5,39.6c-0.3,0-0.5,0.1-0.6,0.1v3.4c0.1,0.1,0.4,0.1,0.6,0.1c0.9,0,1.2-0.8,1.2-1.9
			C57.5,40.4,57.3,39.6,56.5,39.6z"/>
		<path class="st1" d="M51.9,43.3c-0.8,0-1-0.9-1-1.9c0-1,0.1-1.9,1-1.9c0.8,0,1,0.9,1,1.9C52.9,42.4,52.8,43.3,51.9,43.3z"/>
	</g>
</g>
</svg>
