<?xml version="1.0" encoding="utf-8"?>
<!-- Generator: Adobe Illustrator 26.3.1, SVG Export Plug-In . SVG Version: 6.00 Build 0)  -->
<svg version="1.1" id="Layer_1" xmlns="http://www.w3.org/2000/svg" xmlns:xlink="http://www.w3.org/1999/xlink" x="0px" y="0px"
	 viewBox="0 0 151.1 19.9" style="enable-background:new 0 0 151.1 19.9;" xml:space="preserve">
<style type="text/css">
	.st0{clip-path:url(#SVGID_00000095320194021139069490000015938032327635889327_);}
	.st1{fill:#1D1D1B;}
</style>
<g>
	<g>
		<defs>
			<rect id="SVGID_1_" x="0.6" y="0.4" width="150" height="19"/>
		</defs>
		<clipPath id="SVGID_00000085232609149473365300000002671151069219325602_">
			<use xlink:href="#SVGID_1_"  style="overflow:visible;"/>
		</clipPath>
		<g style="clip-path:url(#SVGID_00000085232609149473365300000002671151069219325602_);">
			<path class="st1" d="M2.5,1.9H1.2C1.1,0.8,1.1,0.5,5,0.5h5.5c7.8,0,11.1,3.5,11.1,9.2c0,5.5-3.2,9.2-10.9,9.2H0.6
				c-0.1-0.3-0.1-0.7,0-1.1C3.5,17.7,4,17.6,4,15.8V3.1C4,2.1,3.7,1.9,2.5,1.9z M18.1,10.2c0-5.1-2.7-8.2-7.9-8.2H7.4v13.4
				c0,1.6,0.6,1.9,3.1,1.9C15.1,17.5,18.1,16,18.1,10.2z"/>
			<path class="st1" d="M34.7,0.7c0.1,0.6,0.2,1.1,0.7,2l6.2,14.1c0.3,0.7,0.6,0.9,2,0.9h0.6c0.2,0.7,0,1.2-0.7,1.2h-8.7
				c-0.1-0.2-0.1-0.7,0-1.1c2.9-0.1,3.2-0.3,2.9-1l-1.7-4h-7L28,15.7c-0.6,1.6-0.6,2,0.8,2h2.3c0.2,0.7,0,1.2-0.7,1.2h-7.7
				c-0.1-0.2-0.1-0.7,0-1.1c2.1-0.2,2.3-0.4,3.1-2.1l5.3-12.5c0.9-2.1,1.2-2.5,2.5-2.5H34.7z M35.4,11.4l-2.9-6.9l-2.8,6.9H35.4z"/>
			<path class="st1" d="M54.9,1c0.1,0.2,0.1,0.7,0,1.1c-2.3,0.2-2.7,0.7-2.7,1.8v12.7c0,0.9,0.2,1.2,1.4,1.2h1.5
				c0.2,0.7,0.1,1.2-0.7,1.2h-8.2c-0.1-0.2-0.1-0.7,0-1.1c2.2-0.3,2.7-0.6,2.7-1.7V3.4c0-1-0.2-1.2-1.5-1.2h-1.3
				c-0.2-0.7,0-1.2,1.2-1.2H54.9z"/>
			<path class="st1" d="M86,1c0.1,0.3,0.1,0.7,0,1.1c-2.5,0.2-2.7,0.6-2.6,1.4l1.3,13.1c0.1,0.8,0.5,0.9,2.6,1.2
				c0.1,0.7,0,1.2-0.8,1.2H77c-0.1-0.3-0.1-0.7,0-1.1l1.5-0.1c2.2-0.2,2.7-0.4,2.5-1.7L79.8,4.4l-6.5,13.5c-0.5,1-0.7,1.2-1.3,1.2
				L64.5,4.5l-0.8,12c-0.1,1.1-0.1,1.3,2.7,1.3h1.5c0.2,0.7,0.1,1.2-0.7,1.2h-8.9c-0.1-0.3-0.1-0.7,0-1.1c3-0.2,3.2-0.7,3.3-1.8
				l1.1-12.6c0.1-0.8-0.1-1.2-2.7-1.2c-0.2-0.6,0-1.2,1.2-1.2h5.5l6.8,12.9l6.2-12.9L86,1L86,1z"/>
			<path class="st1" d="M100.9,1c0.1,0.2,0.1,0.7,0,1.1c-2.8,0.2-3.4,0.4-3.4,2.1v11.9c0,0.9,0.5,1.2,1.2,1.2h1.8
				c2,0,2.2-0.2,3.4-2.6l0.7-1.6c0.8,0,1.2,0.3,0.9,1.2c-0.6,1.6-1.1,3.1-1.4,4.8H90.9c-0.1-0.3-0.1-0.7,0-1.1
				c2.7-0.2,3.2-0.5,3.2-2.2V3.4c0-1-0.3-1.2-1.5-1.2h-1.3c-0.2-0.7,0-1.2,1.2-1.2H100.9z"/>
			<path class="st1" d="M122.8,1c0.1,1.2,0.2,2.5,0.4,3.6c0.2,0.8-0.2,1.3-1.1,1.2l-0.2-1.2c-0.5-1.6-1-2.1-2.5-2.1h-4.3v6.8h2.8
				c0.8,0,1-0.2,1.1-1l0.2-1.4h0.3c0.5,0,0.8,0.2,0.8,1c-0.1,1.6-0.1,3.5,0,5.3c-0.2,0.1-0.7,0.2-0.9,0c-0.3-2.1-0.7-2.3-1.4-2.3
				h-2.8v4.7c0,1,0.2,1.4,2.1,1.4h2.3c2,0,2.2-0.2,3.4-2.6l0.8-1.6c0.7,0,1.2,0.3,0.9,1.2c-0.6,1.6-1.1,3.1-1.4,4.8h-14.9
				c-0.1-0.3-0.1-0.7,0-1.1c2.8-0.2,3.4-0.3,3.4-2.1V3.2c0-1-0.2-1.2-1.5-1.2h-1.3c-0.1-0.7,0-1.2,1.2-1.2h12.8V1z"/>
			<path class="st1" d="M129.4,2.2h-1.3c-0.2-0.7,0-1.2,1.1-1.3c1.3-0.1,2.9-0.1,6.7-0.1c5.2,0,8.1,2.5,8.1,6.1c0,2.2-1.4,4-3.7,5
				c0,0,2,1.8,3.1,2.6c3.6,2.8,4.7,3,7.1,3c0.2,0.9-0.4,1.6-3.3,1.6c-2.5,0-4.2-0.6-6.2-2.2c-0.9-0.7-1.8-1.8-2.6-3
				c-0.7-1.2-0.8-1.3-2.4-1.3h-1.7v4c0,0.7,0.2,1.1,1.7,1.1h1.4c0.1,0.7,0,1.2-0.8,1.2h-8.5c-0.1-0.3-0.1-0.7,0-1.1
				c2.3-0.2,2.9-0.4,2.9-2.1V3.5C130.9,2.4,130.6,2.2,129.4,2.2z M135.6,11.2c2.7,0,4.8-0.4,4.8-4s-2.2-4.8-5.2-4.8h-0.8v8.8H135.6z
				"/>
		</g>
	</g>
</g>
</svg>
