<?xml version="1.0" encoding="utf-8"?>
<!-- Generator: Adobe Illustrator 26.3.1, SVG Export Plug-In . SVG Version: 6.00 Build 0)  -->
<svg version="1.1" id="Layer_1" xmlns="http://www.w3.org/2000/svg" xmlns:xlink="http://www.w3.org/1999/xlink" x="0px" y="0px"
	 viewBox="0 0 141.7 53" style="enable-background:new 0 0 141.7 53;" xml:space="preserve">
<style type="text/css">
	.st0{clip-path:url(#SVGID_00000090975065184886293410000014005173264234156969_);}
	.st1{fill:#1D1D1B;}
</style>
<g>
	<defs>
		<rect id="SVGID_1_" x="1.9" y="0" width="138" height="53"/>
	</defs>
	<clipPath id="SVGID_00000085253095732320394420000013771136124280755072_">
		<use xlink:href="#SVGID_1_"  style="overflow:visible;"/>
	</clipPath>
	<g style="clip-path:url(#SVGID_00000085253095732320394420000013771136124280755072_);">
		<path class="st1" d="M24,9.9c-0.5-0.4-0.9-0.4-1.5,0.1c-2.6,0.9-7.4,4.2-8.5,4c1.9-2.7,4-5.2,6.5-7.6c1-1.4-0.3-1.7-0.5-2.5
			c-0.3-1-0.2-2.1,0.2-3.1c0.5-0.8-0.5-0.9-1-0.6C12.8,6.7,7.5,13.3,2.5,20c-0.8,1-0.6,1.8-0.1,2.4l2.6,3.4c0.5,0.9,1.4,1.1,2.5,0.4
			l8.3-5.6C12.5,26,9.4,32.2,6.9,39.7c-1.1,3.2,1.9,8.1,6.1,13.2c0.5,0.5,1.4,0,0.8-1.1c-4-7.4-0.7-18.9,12-35.9
			c0.6-0.7,0.9-1.4,0.4-2.1L24,9.9z"/>
		<path class="st1" d="M56.8,19.6l1.1-4.2c0.2-0.6,0.7-0.9,1.3-1H63h1.1l0.6-2h-1.6l-5.1,0.1c-1.1-0.1-1.9,0.3-2.5,1.6l-2.8,11
			l-1.1,4.3c-0.3,0.9-0.1,1.7,1.1,2c0.1,0,0.2,0.1,0.3,0.1h6.5l0.5-2h-5c-0.4-0.3-0.7-0.3-0.5-1.3l1.2-4.6c0.2-0.5,0.5-0.9,1-0.9
			h3.8l0.5-1.6h-3.9C56.7,20.7,56.6,20.3,56.8,19.6z"/>
		<path class="st1" d="M64.5,28.3c2.6-10.1,1-4.1,3.3-12.8c0.2-0.6,0.7-0.9,1.3-1h3.5h1.2l0.5-1.6l0.2-0.5h-0.2h-1.7h-4.9
			c-1.1-0.1-2,0.3-2.5,1.6L63,23.1l-1.6,6c-0.3,1.1-0.1,1.9,1.4,2.1h0.1h6.5l0.5-2h-5C64.7,29.3,64.4,29.2,64.5,28.3z"/>
		<path class="st1" d="M39.5,22.3L35.8,19c-0.8-0.9,0-4.5,1.6-4.5h4.1h1.4l0.5-1.9h-1.9h-5.1c-2.2,0.4-4,4.9-3.1,7.1l3.8,3.4
			c0.5,0.6,0.6,1.2,0.6,1.8l-1.1,3.8c-0.2,0.9-0.9,0.9-1.6,0.9h-5.1l-0.5,1.8h7.5c1.2-0.1,1.9-0.8,2-2l1.2-4.8
			C40.5,23.6,40.1,22.9,39.5,22.3z"/>
		<path class="st1" d="M52.1,21.8l0.5-2.3l1.2-4.8c0.2-1.3-0.2-2-1.2-2.1c-0.2-0.1-0.3-0.1-0.5-0.1h-7.4l-3.2,12l-1.9,7h1.9h0.7
			l4.6-17h3c0.6,0.2,1,0.5,1,1.1l-1.2,5.2c-0.2,0.9-0.7,1.4-1.6,1.7l-2.3,0.5l-0.4,1.8l5.1-0.9C51.2,23.6,51.9,22.9,52.1,21.8z"/>
		<path class="st1" d="M79,12.5h-3l-1.6,5.7l-1.7,6.3l-1.9,6.9h1.9h1.2l0.5-2.1L79,12.5z"/>
		<path class="st1" d="M105.9,12.5H104h-1.1l-5.2,18.9h3l3.3-11.9L105.9,12.5z"/>
		<path class="st1" d="M119.2,23.6c0.2-0.5,0.5-0.9,1-0.9h3.8l0.5-1.6h-4c-0.5-0.3-0.5-0.8-0.3-1.4l1.2-4.2c0.2-0.6,0.7-0.9,1.3-1
			h3.4h1.4l0.4-1.3l0.2-0.8H128h-1.7h-4.7c-1.1-0.1-2,0.3-2.5,1.6l-2.8,11l-1.1,4.3c-0.3,0.9-0.1,1.7,1.1,2c0.1,0,0.2,0.1,0.3,0.1
			h6.5l0.5-2h-5.1c-0.4-0.3-0.7-0.3-0.5-1.3L119.2,23.6z"/>
		<path class="st1" d="M138.3,12.5h-8.9l-1.5,5.3l-1.7,6.3l-1.9,7.2h1.9h1.7h5.4c1.3-0.1,2.1-0.8,2.4-2.1l4-15.1
			C139.9,13.2,139.4,12.6,138.3,12.5z M136.5,16l-3.3,11.7c-0.1,0.9-0.7,1.6-1.9,1.6H128c-0.1,0-0.2,0-0.2-0.1
			c-0.3-0.2-0.3-0.5-0.2-0.9l0.2-0.5l4-13.5h3.9C136.7,14.3,136.8,15,136.5,16z"/>
		<path class="st1" d="M106.5,28l9.6-12.3l0.7-0.9c0.9-1.3,0.5-2.2-0.7-2.2c0,0,0,0-0.1,0h-8.7l-0.1,1.7h5.4c0.7,0,1.1,0.3,0.6,0.9
			L104,27.4l-1.6,2c-0.6,0.9-0.4,1.6,0.7,2.1h0.9h8.6l0.5-2.1h-6.5C106,29.3,106,28.5,106.5,28z"/>
		<path class="st1" d="M84.3,12.6l-9.9,18.6l-0.2,0.3h0.2h2.2l7.8-14.9l0.7,0.1l0.4,4.1c0.3,1-0.4,0.9-0.6,0.9h-2.2l-0.4,1.6
			l2.6,0.1c0.5,0.1,0.7,0.3,0.6,0.8l0.5,7h2.6l-1.1-18.8L84.3,12.6z"/>
		<path class="st1" d="M92.6,28l4.2-15.5h-3l-4.5,16.7c-0.1,0.9,0.3,2,1.6,2.3h6l0.6-2l-4.3-0.1C92.6,29.3,92.4,28.8,92.6,28z"/>
	</g>
</g>
</svg>
